<?xml version="1.0" encoding="utf-8"?>
<!-- Generator: Adobe Illustrator 26.2.1, SVG Export Plug-In . SVG Version: 6.00 Build 0)  -->
<svg version="1.1" xmlns="http://www.w3.org/2000/svg" xmlns:xlink="http://www.w3.org/1999/xlink" x="0px" y="0px"
	 viewBox="0 0 3232.1 39.1" style="enable-background:new 0 0 3232.1 39.1;" xml:space="preserve">
<style type="text/css">
	.st0{fill:#FFFFFF;}
</style>
<g id="レイヤー_1">
	<g id="レイヤー_1_00000173135092444417984380000001292149815846662294_">
	</g>
	<g id="グループ_74" transform="translate(-16 -4947.563)">
		<g id="グループ_72" transform="translate(16 4947.563)">
			<g>
				<g id="グループ_71" transform="translate(0 0)">
					<path id="パス_299" class="st0" d="M5.4,29.7L7,29.6c1.2-0.1,1.7-0.4,1.7-0.6V7.7H7.5C4,8,1.7,11.3,0.5,13.6l-0.3,0.5H0
						l1-6.7h20.2l0.7,6.7h-0.2l-0.2-0.5c-1.2-2.7-3.6-5.8-6.9-5.9h-1.2v21.3c0,0.3,0.2,0.4,2.1,0.5l1.2,0.1l0.1,0.2H5.3L5.4,29.7z"
						/>
					<path id="パス_300" class="st0" d="M23.3,22.2c0-4.5,3.6-8.2,8.7-8.2c5.1,0,8.5,3.6,8.5,8.1c0,4.6-3.5,8.3-8.7,8.3
						C26.6,30.4,23.3,26.8,23.3,22.2 M35.9,22.4c0-3.7-0.7-6.1-1.8-7.2c-0.6-0.6-1.4-0.9-2.2-0.9c-2.8,0-4.1,3.5-4.1,7.6
						c0,3.8,0.7,6.1,1.8,7.3c0.6,0.6,1.4,0.9,2.2,0.9C34.5,30.1,35.9,26.7,35.9,22.4"/>
					<path id="パス_301" class="st0" d="M45.2,29.7l0.5,0c1.1-0.1,1.5-0.1,1.5-0.6V9.9c0-1.6-0.2-1.9-1.4-2.2l-0.8-0.2l0-0.1
						l6.3-1.6v16.9l2.8-2.6c2.2-2,3.1-3.3,3.1-4c0-0.7-0.4-1.1-2.3-1.2l-0.5,0l-0.1-0.2h8.1l-0.1,0.2l-0.6,0.1
						c-1.8,0.2-2.7,0.8-5.8,3.9c-0.2,0.1-0.3,0.3-0.4,0.5l4.4,7.9c1.2,2.1,1.6,2.5,2.8,2.6l0.5,0l0.1,0.2h-6.6l-0.3-0.5l-4-7.3
						l-1.2,1v6.1c0,0.3,0.2,0.4,1.8,0.5l0.5,0l0.1,0.2h-8.6L45.2,29.7z"/>
					<path id="パス_302" class="st0" d="M66.6,36.9c0-1.1,0.9-2.1,2.1-2.1c1.2,0,2.2,0.9,2.4,2.1c0.9-0.2,1.4-1.1,2.1-3l1.3-3.7
						H74l-6-13.4c-0.8-1.7-1-2-2.1-2.1l-0.6,0l-0.1-0.2h9l-0.1,0.2l-0.6,0c-1.4,0.1-1.7,0.5-1.1,1.7l3.8,8.9l2.2-6.1
						c1.3-3.6,1-4.1-1.4-4.4l-0.5-0.1l-0.1-0.2h6.4l-0.1,0.2l-0.6,0.1c-1.7,0.1-1.8,0.6-3.3,4.8l-3.8,10.3l-1.5,4.4
						c-1,3.2-2.4,4.8-4.4,4.8C67.8,39.2,66.7,38.3,66.6,36.9C66.6,37,66.6,37,66.6,36.9"/>
					<path id="パス_303" class="st0" d="M85.8,22.2c0-4.5,3.6-8.2,8.7-8.2c5.1,0,8.5,3.6,8.5,8.1c0,4.6-3.5,8.3-8.7,8.3
						C89.2,30.4,85.8,26.8,85.8,22.2 M98.5,22.4c0-3.7-0.7-6.1-1.8-7.2c-0.6-0.6-1.4-0.9-2.2-0.9c-2.8,0-4.1,3.5-4.1,7.6
						c0,3.8,0.7,6.1,1.8,7.3c0.6,0.6,1.4,0.9,2.2,0.9C97,30.1,98.5,26.7,98.5,22.4"/>
					<path id="パス_304" class="st0" d="M118.2,29.7l1.3-0.1c1.3-0.1,1.7-0.4,1.7-0.6V8.3c0-0.3-0.2-0.4-2.1-0.5l-0.9-0.1
						l-0.1-0.2l10.6,0c8.5-0.1,12.7,4.2,12.7,11.1c0,6.3-5.2,11.5-13.3,11.5h-9.9L118.2,29.7z M136.3,19.2c0-6.8-2.6-11.3-8.6-11.3
						h-1.9v21.1l2.4,0.6C133.6,29.5,136.3,24.7,136.3,19.2"/>
					<path id="パス_305" class="st0" d="M146.5,22.5c-0.2-4.6,3.4-8.4,8-8.6c0.1,0,0.2,0,0.3,0c4.1,0,6.2,2.5,6.2,5.1
						c0,0.2,0,0.4-0.1,0.6c0,0-9-0.1-10-0.1c-0.1,0.6-0.1,1.2-0.1,1.7c0,4,2.2,6.7,5.5,6.7c2,0.1,3.8-1,4.6-2.8l0.3,0.1
						c-1.5,3.3-3.8,5.2-7.2,5.2C149.7,30.5,146.5,27,146.5,22.5 M157,19.2c0-2.2-0.6-4.8-2.6-4.8c-1.6,0-3.1,2-3.4,4.8L157,19.2z"/>
					<path id="パス_306" class="st0" d="M166.5,29.5l-0.2-4.5h0.2l0.9,1.5c1.2,2.3,2.4,3.6,4.5,3.6c1.5,0.2,2.9-1,3-2.5
						c0-0.1,0-0.2,0-0.4c0-1.8-1.6-2.7-3.8-3.5c-2.4-0.9-4.6-2-4.6-4.8c0-3,2.4-4.9,5.8-4.9c1.2,0,2.3,0.2,3.4,0.6l1.4-0.4l0.2,4.6
						l-0.2,0.1l-2.7-3.8c-0.6-0.5-1.4-0.8-2.2-0.8c-1.4-0.1-2.6,0.9-2.7,2.2c0,0.1,0,0.3,0,0.4c0,1.7,1.6,2.4,3.8,3.2
						c2.4,1,4.8,2,4.8,5c0,2.7-2.1,5.2-6.4,5.2C169.9,30.4,168.2,30.1,166.5,29.5"/>
					<path id="パス_307" class="st0" d="M183.3,29.7l0.5,0c1.1-0.1,1.5-0.1,1.5-0.6V19c0-2.2-0.3-2.6-1.5-2.8l-0.8-0.2l0-0.1
						l6.3-1.7v15.1c0,0.3,0.2,0.4,1.8,0.5l0.4,0l0.1,0.2h-8.6L183.3,29.7z M184.6,9.1c0-1.4,1.1-2.6,2.5-2.6c1.4,0,2.6,1.1,2.6,2.5
						c0,1.4-1.1,2.6-2.5,2.6c0,0,0,0-0.1,0C185.8,11.7,184.7,10.6,184.6,9.1C184.6,9.2,184.6,9.2,184.6,9.1"/>
					<path id="パス_308" class="st0" d="M195.8,34.9c0-1.9,2.5-3.2,4.5-4v0c-2.4-0.1-4.2-1.5-4.2-3.2c0-2,2.2-3.3,4.2-3.8v0
						c-2-0.6-3.3-2.4-3.4-4.4c0-2.9,3-5.3,6.5-5.3c1.5,0,3,0.4,4.3,1.2l4.7-0.8l-0.4,1.8l-3.6-0.5l0,0.1c1,0.8,1.5,2,1.5,3.2
						c0,2.9-2.8,5.2-6.6,5.2c-0.8,0-1.6-0.1-2.4-0.3c-1.3,0.3-2.1,0.9-2.1,1.8c0,1,1,1.3,3,1.3c1,0,3.3-0.1,4.6-0.1
						c3.4,0,5.4,1.6,5.4,4.2c0,4-4,7.1-9.6,7.1C197.9,38.4,195.8,37.2,195.8,34.9 M209.3,33.7c0-2-1.4-2.8-4.8-3
						c-1.2,0-2.5,0.1-3.7,0.2c-1.3,0.5-2.1,1.8-2,3.1c0,2.2,2.1,3.7,5.2,3.7C207.2,37.8,209.3,35.9,209.3,33.7 M206.1,19.4
						c0-3-0.7-5-2.7-5c-1.6,0-2.4,1.6-2.4,4.7c0,3.2,0.9,4.8,2.5,4.8C205.2,24,206.1,22.4,206.1,19.4"/>
					<path id="パス_309" class="st0" d="M216.5,29.7l0.5,0c1.1-0.1,1.5-0.1,1.5-0.6V19c0-2.2-0.3-2.6-1.5-2.8l-0.8-0.2l0-0.1
						l6.4-1.7l-0.1,3.1l0.1,0c1.5-1.3,3.7-3.2,6.2-3.2c1.1,0,2.1,0.4,2.8,1.2c0.9,1.1,1.3,2.5,1.2,4v10c0,0.2,0.1,0.4,1.8,0.5l0.4,0
						l0.1,0.2h-8.5l0.1-0.2l0.7,0c1.3-0.1,1.3-0.3,1.3-0.6v-9.4c0-2.2-1.1-3.1-3-3.1c-1.2,0-2.3,0.4-3.2,1.1v11.5
						c0,0.3,0.2,0.4,1.6,0.5l0.5,0l0.1,0.2h-8.4L216.5,29.7z"/>
					<path id="パス_310" class="st0" d="M255.3,20.2l-1.3,3.6c-1.7,5-1.9,5.4,1.5,5.8l0.7,0.1l0.1,0.2h-7.9l0.1-0.2l0.6-0.1
						c2.3-0.3,2.6-0.8,5-7.2l4-11.3l-0.4-1.2c1.6-0.5,2.4-1.5,3.1-3.2h0.7l6.2,18.2c1.3,3.9,1.9,4.5,3.5,4.6l1,0.1l0.1,0.2h-11.3
						l0.1-0.2l1-0.1c1.8-0.1,1.9-1,1.1-3.3l-2-6.1L255.3,20.2z M261.1,19.9l-2.7-8.2h0l-2.9,8.2H261.1z"/>
					<path id="パス_311" class="st0" d="M276.6,29.7l1.6-0.1c1-0.1,1.7-0.4,1.7-0.6V8.3c0-0.3-0.2-0.4-2.1-0.5l-1.2-0.1l-0.1-0.2
						l10.8,0c6.2,0,9.4,1.9,9.4,5.8c0,2.7-2.2,4.9-5.5,5.5l4.7,7.4c1.8,2.8,2.4,3.5,4.3,3.7l0.4,0l0.1,0.2h-7.8l-0.3-0.6l-6-10.7
						c-0.7-0.1-1.3-0.3-2-0.6v11c0,0.3,0.7,0.4,2,0.5l1.4,0.1l0.1,0.2h-11.5L276.6,29.7z M291.7,13c0-3.2-2.1-5.2-5.9-5.2h-1.4v9.9
						c0.6,0.2,1.2,0.3,1.8,0.3C289.7,18,291.7,16.2,291.7,13"/>
					<path id="パス_312" class="st0" d="M309.4,29.7l1.6-0.1c1.2-0.1,1.7-0.4,1.7-0.6V7.7h-1.2c-3.5,0.3-5.9,3.6-7,5.9l-0.3,0.5
						h-0.3l1-6.7h20.2l0.7,6.7h-0.2l-0.2-0.5c-1.2-2.7-3.6-5.8-6.9-5.9h-1.2v21.3c0,0.3,0.2,0.4,2.1,0.5l1.2,0.1l0.1,0.2h-11.5
						L309.4,29.7z"/>
					<path id="パス_313" class="st0" d="M331.6,29.1l-0.4-5.8h0.2l1.4,2.8c1.4,2.6,3.3,3.9,6,3.9c3,0,4.8-1.8,4.8-4.6
						c0-3.1-2.5-4.2-5.6-5.4c-3.4-1.2-6.2-2.7-6.2-6.4c0-3.6,3-6.6,7.4-6.6c1.7,0,3.4,0.3,5,0.9l1.4-0.5l0.1,6.3h-0.2l-3-5.3
						c-1-0.7-2.2-1.1-3.5-1c-2.1-0.2-3.9,1.4-4.1,3.5c0,0.1,0,0.1,0,0.2c0,2.7,2.4,3.7,5.3,4.8c3.7,1.3,6.6,3,6.6,7.1
						c0,3.8-3.4,7.5-8.3,7.5C336.3,30.4,333.9,29.9,331.6,29.1"/>
					<path id="パス_314" class="st0" d="M399.7,8.8h-8l1.1-4.1h20.5l-1.1,4.1h-8l-5.7,21.1h-4.4L399.7,8.8z"/>
					<path id="パス_315" class="st0" d="M410.6,21.7c0.1-6.1,5-11,11.1-11.2c5.4,0,8.9,3.7,8.9,8.7c-0.1,6.1-5,11-11.1,11.1
						C414.1,30.4,410.6,26.7,410.6,21.7 M426.3,19.3c0-3.2-2-5-4.9-5c-3.7,0-6.5,3.9-6.5,7.2c0,3.2,2,5,4.9,5
						C423.5,26.6,426.3,22.8,426.3,19.3"/>
					<path id="パス_316" class="st0" d="M441.7,3.6h4.4L441.9,19l9.7-8.1h5.8l-9.6,7.7l4.6,11.3h-4.9l-3.4-8.5l-3.7,3l-1.5,5.5
						h-4.4L441.7,3.6z"/>
					<path id="パス_317" class="st0" d="M455.2,34.5l2.3-3.2c0.7,0.5,1.6,0.8,2.4,0.8c1.1,0,2-0.5,3.2-2.1l-2.8-19.1h4.5l1.6,14.1
						l8.4-14.1h4.8l-12.3,19.6c-2.6,3.9-4.8,5.3-7.9,5.3C457.9,35.8,456.4,35.4,455.2,34.5"/>
					<path id="パス_318" class="st0" d="M481.3,21.7c0.1-6.1,5-11,11.1-11.2c5.4,0,8.9,3.7,8.9,8.7c-0.1,6.1-5,11-11.1,11.1
						C484.8,30.4,481.3,26.7,481.3,21.7 M497,19.3c0-3.2-2-5-4.9-5c-3.7,0-6.5,3.9-6.5,7.2c0,3.2,2,5,4.9,5
						C494.1,26.6,497,22.8,497,19.3"/>
					<path id="パス_319" class="st0" d="M525.5,4.7h6.8c4.6,0,7.8,1.3,9.8,3.3c1.9,2,2.9,4.6,2.8,7.3c0,3.7-1.4,7.3-4.1,9.9
						c-3,3-7.5,4.7-13.1,4.7h-9L525.5,4.7z M528.3,25.9c3.4,0.1,6.7-1.1,9.2-3.4c1.8-1.8,2.8-4.4,2.8-7c0.1-1.7-0.6-3.4-1.8-4.6
						c-1.3-1.3-3.5-2.1-6.6-2.1h-3.1l-4.7,17.1H528.3z"/>
					<path id="パス_320" class="st0" d="M558.8,26.8c1.8,0,3.5-0.7,4.9-1.8l2.1,2.8c-2.1,1.7-4.7,2.7-7.4,2.6
						c-5.3,0-8.6-3.2-8.6-8.3c0-5.6,4.6-11.5,11.2-11.5c4.9,0,7.6,3.2,7.6,7.4c0,1.4-0.3,2.8-0.8,4.1h-13.8
						C553.9,24.9,555.6,26.8,558.8,26.8 M564.2,19c0.1-0.4,0.2-0.9,0.2-1.3c0.1-1.9-1.3-3.5-3.2-3.6c-0.2,0-0.4,0-0.6,0
						c-2.9,0.1-5.5,2.1-6.3,4.9L564.2,19z"/>
					<path id="パス_321" class="st0" d="M571.4,26.9l2.6-2.7c1.6,1.7,3.8,2.7,6.1,2.7c1.7,0,3.1-0.9,3.1-2.3
						c0-0.9-0.9-1.6-2.8-2.4c-3.2-1.3-5.5-2.5-5.5-5.4c0-3.6,2.9-6.3,7.5-6.3c2.7,0,5.2,1,7.3,2.7l-2.4,2.8c-1.5-1.3-3.3-2-5.2-2.1
						c-1.9,0-2.9,0.9-2.9,2.2c0,1,0.9,1.6,3,2.5c2.9,1.2,5.2,2.6,5.2,5.3c0,3.9-3.3,6.4-7.6,6.4C576.6,30.4,573.6,29.1,571.4,26.9"
						/>
					<path id="パス_322" class="st0" d="M597.6,10.9h4.4l-5.1,19h-4.4L597.6,10.9z M599.3,3.8h4.7L602.9,8h-4.7L599.3,3.8z"/>
					<path id="パス_323" class="st0" d="M603.6,32.8l2.4-3c2,1.5,4.5,2.4,7.1,2.4c1.7,0.1,3.4-0.5,4.6-1.7c1-1.1,1.7-2.4,2-3.9
						l0.3-1.2c-1.7,1.8-4,2.9-6.5,2.9c-3.7,0-7.3-2.4-7.3-6.9c0-5.9,4.6-10.8,10.5-11c2.7-0.1,5.2,1.4,6.3,3.8l0.9-3.4h4.4
						l-4.2,15.7c-0.9,3.5-1.8,5-3.2,6.5c-1.8,1.8-4.1,2.7-7.5,2.7C609.9,35.8,606.5,34.8,603.6,32.8 M621.8,18.5
						c0-2.4-1.8-4.2-4.6-4.2c-3.6,0.1-6.4,3-6.4,6.6c0,2.7,1.9,4.1,4.4,4.1C618.7,24.8,621.6,22,621.8,18.5"/>
					<path id="パス_324" class="st0" d="M635.9,10.9h4.4l-0.7,2.4c1.5-1.7,3.5-2.7,5.8-2.8c3.5,0,5.8,2.2,5.8,5.7
						c-0.1,1.1-0.3,2.3-0.6,3.4l-2.7,10.4h-4.4l2.8-10.6c0.2-0.6,0.3-1.3,0.3-1.9c0-1.9-1.2-3-3.3-3c-2.4,0-4.5,1.9-5.2,4.8
						l-2.9,10.7h-4.4L635.9,10.9z"/>
					<path id="パス_325" class="st0" d="M684.2,4.5h4.2l4.3,25.4h-4.5l-1-6.1h-11.9l-4.2,6.1h-4.8L684.2,4.5z M686.6,19.9L685,9.7
						L678,19.9H686.6z"/>
					<path id="パス_326" class="st0" d="M705.2,4.7h9.1c3.5,0,6,0.8,7.6,2.4c1.2,1.3,1.9,3,1.8,4.8c0.1,2.2-0.8,4.2-2.3,5.8
						c-1.7,1.6-3.9,2.7-6.3,3l4.7,9.2h-5.1l-4.3-8.8h-5.3l-2.3,8.8h-4.5L705.2,4.7z M712,17.2c2.7,0,4.8-0.7,5.9-1.9
						c0.8-0.8,1.3-1.9,1.3-3c0-0.9-0.3-1.7-0.9-2.3c-0.8-0.8-2.2-1.2-4.2-1.2h-5.5l-2.3,8.5L712,17.2z"/>
					<path id="パス_327" class="st0" d="M736.9,8.8h-8l1.1-4.1h20.5l-1.1,4.1h-8l-5.7,21.1h-4.4L736.9,8.8z"/>
					<path id="パス_328" class="st0" d="M749.6,25.6l3.3-2.8c1.8,2.3,4.6,3.6,7.6,3.6c2.8,0,4.9-1.4,4.9-3.5c0-1.5-1-2.4-4.7-3.8
						c-3.9-1.5-6.5-3.3-6.5-6.8c0-4.8,4.3-7.9,9.7-7.9c3.5-0.2,6.9,1.2,9.3,3.8l-3.1,3c-1.7-1.8-4-2.9-6.5-2.9c-3,0-4.7,1.6-4.7,3.3
						c0,1.6,1.3,2.4,4.9,3.9c3.9,1.5,6.3,3.3,6.3,6.8c0,4.9-4.5,8.1-9.8,8.1C755.5,30.3,751.9,28.6,749.6,25.6"/>
					<path id="パス_329" class="st0" d="M826,4.3v1.7h-9.3v24h-4.3v-24h-9.3V4.3H826z"/>
					<path id="パス_330" class="st0" d="M837.8,30.4c-1.4,0-2.9-0.3-4.2-0.8c-1.2-0.5-2.4-1.2-3.3-2.2c-1.9-1.9-3-4.4-3-7.1
						c0-1.4,0.3-2.8,0.8-4.1c0.5-1.2,1.2-2.4,2.2-3.4c0.9-1,2.1-1.7,3.3-2.3c1.3-0.6,2.8-0.8,4.2-0.8c1.4,0,2.8,0.2,4.2,0.8
						c1.2,0.5,2.3,1.2,3.3,2.1c0.9,0.9,1.7,1.9,2.2,3.1c0.5,1.2,0.8,2.5,0.8,3.8c0,1.4-0.3,2.9-0.8,4.2c-0.5,1.3-1.2,2.5-2.2,3.5
						c-0.9,1-2.1,1.8-3.3,2.3C840.6,30.1,839.2,30.4,837.8,30.4 M838.5,28.9c0.8,0,1.5-0.2,2.1-0.6c0.7-0.4,1.2-1,1.7-1.6
						c0.5-0.7,0.9-1.5,1.1-2.4c0.3-0.9,0.4-1.9,0.4-2.8c0-1.4-0.1-2.7-0.4-4c-0.2-1.2-0.6-2.3-1.2-3.3c-0.5-0.9-1.3-1.7-2.2-2.2
						c-1-0.6-2.1-0.8-3.3-0.8c-0.7,0-1.3,0.2-1.9,0.6c-0.6,0.4-1.2,0.9-1.6,1.6c-0.5,0.7-0.9,1.5-1.1,2.3c-0.3,0.9-0.4,1.9-0.4,2.8
						c0,1.4,0.1,2.7,0.5,4.1c0.3,1.2,0.7,2.3,1.3,3.3c0.5,0.9,1.3,1.7,2.1,2.2C836.5,28.6,837.5,28.9,838.5,28.9"/>
					<path id="パス_331" class="st0" d="M859.7,18.1l9.9-8h2.6l-8.9,7.2l11,12.6h-5.2l-9.4-10.8v10.8h-3.9V1.1l2.8-1.1h1.1
						L859.7,18.1z"/>
					<path id="パス_332" class="st0" d="M879,34.6c0.2,0.1,0.3,0.2,0.5,0.3c0.2,0.1,0.4,0.2,0.6,0.3c0.2,0.1,0.5,0.2,0.7,0.2
						c0.3,0.1,0.6,0.1,0.9,0.1c0.4,0,0.8-0.1,1.2-0.3c0.4-0.2,0.7-0.5,1-0.9c0.3-0.4,0.6-0.7,0.8-1.1c0.2-0.4,0.4-0.8,0.6-1.2l1.3-3
						l-10.1-18.9h4.5l7.6,14.3l6.3-14.3h2.1l-10.1,23.3c-0.4,0.9-0.9,1.7-1.5,2.5c-0.5,0.7-1.1,1.3-1.8,1.8c-0.6,0.4-1.2,0.8-1.9,1
						c-0.6,0.2-1.3,0.3-1.9,0.3c-0.5,0-0.9-0.1-1.4-0.2c-0.4-0.1-0.8-0.3-1.1-0.6L879,34.6z"/>
					<path id="パス_333" class="st0" d="M911.6,30.4c-1.4,0-2.9-0.3-4.2-0.8c-1.2-0.5-2.4-1.2-3.3-2.2c-1.9-1.9-3-4.4-3-7.1
						c0-1.4,0.3-2.8,0.8-4.1c0.5-1.2,1.2-2.4,2.2-3.4c0.9-1,2.1-1.7,3.3-2.3c1.3-0.6,2.8-0.8,4.2-0.8c1.4,0,2.8,0.2,4.2,0.8
						c1.2,0.5,2.3,1.2,3.3,2.1c0.9,0.9,1.7,1.9,2.2,3.1c0.5,1.2,0.8,2.5,0.8,3.8c0,1.4-0.3,2.9-0.8,4.2c-0.5,1.3-1.2,2.5-2.2,3.5
						c-0.9,1-2.1,1.8-3.3,2.3C914.4,30.1,913,30.4,911.6,30.4 M912.3,28.9c0.8,0,1.5-0.2,2.1-0.6c0.7-0.4,1.2-1,1.7-1.6
						c0.5-0.7,0.9-1.5,1.1-2.4c0.3-0.9,0.4-1.9,0.4-2.8c0-1.4-0.1-2.7-0.4-4c-0.2-1.2-0.6-2.3-1.2-3.3c-0.5-0.9-1.3-1.7-2.2-2.2
						c-1-0.6-2.1-0.8-3.3-0.8c-0.7,0-1.3,0.2-1.9,0.6c-0.6,0.4-1.2,0.9-1.6,1.6c-0.5,0.7-0.9,1.5-1.1,2.3c-0.3,0.9-0.4,1.9-0.4,2.8
						c0,1.4,0.1,2.7,0.5,4.1c0.3,1.2,0.7,2.3,1.3,3.3c0.5,0.9,1.3,1.7,2.1,2.2C910.3,28.6,911.3,28.9,912.3,28.9"/>
					<path id="パス_334" class="st0" d="M940.5,4.3h8.6c2.3,0,4.6,0.2,6.8,0.7c1.7,0.4,3.4,1.2,4.7,2.4c1.4,1.2,2.5,2.6,3.3,4.3
						c0.7,1.6,1.1,3.4,1.1,5.2c0,1.7-0.3,3.5-1,5.1c-0.6,1.6-1.6,3-2.9,4.2c-1.4,1.2-2.9,2.2-4.7,2.8c-2,0.7-4.2,1.1-6.4,1h-9.6
						L940.5,4.3z M944.8,28h4.6c1.4,0,2.8-0.2,4.1-0.7c1.3-0.5,2.4-1.2,3.3-2.1c1-1,1.7-2.2,2.2-3.5c0.6-1.5,0.9-3.1,0.8-4.8
						c0-1.5-0.2-3-0.8-4.4c-0.5-1.3-1.2-2.4-2.2-3.4c-0.9-1-2.1-1.7-3.3-2.2c-1.3-0.5-2.8-0.8-4.2-0.8h-4.6V28z"/>
					<path id="パス_335" class="st0" d="M980.7,30.4c-1.3,0-2.6-0.2-3.8-0.8c-1.1-0.5-2.2-1.2-3.1-2.1c-0.9-0.9-1.6-1.9-2.1-3.1
						c-0.5-1.2-0.8-2.4-0.8-3.7c0-1.5,0.2-3,0.7-4.4c0.4-1.3,1.1-2.5,2-3.5c0.8-1,1.9-1.8,3.1-2.3c1.3-0.6,2.6-0.9,4-0.8
						c1.2,0,2.4,0.2,3.6,0.7c1,0.4,2,1.1,2.8,1.8c0.8,0.8,1.4,1.7,1.8,2.7c0.4,1,0.7,2.1,0.6,3.2h-14.8c0,1.3,0.2,2.5,0.5,3.7
						c0.3,1.1,0.8,2.1,1.4,2.9c0.6,0.8,1.3,1.5,2.2,1.9c0.9,0.5,1.8,0.7,2.8,0.7c0.8,0,1.7-0.1,2.5-0.4c0.8-0.3,1.5-0.6,2.1-1.1
						c0.6-0.4,1.2-1,1.6-1.5c0.4-0.5,0.7-1.1,0.9-1.8l1.1,0.5c-0.3,1-0.8,2-1.4,2.9c-0.6,0.9-1.4,1.7-2.2,2.3
						c-0.8,0.7-1.8,1.2-2.8,1.6C982.8,30.2,981.7,30.4,980.7,30.4 M984.6,16.5c0-0.7-0.1-1.4-0.4-2.1c-0.5-1.3-1.5-2.3-2.7-2.8
						c-0.6-0.3-1.3-0.4-2-0.4c-0.6,0-1.2,0.1-1.7,0.4c-0.5,0.3-1,0.6-1.5,1.1c-0.4,0.5-0.8,1.1-1.1,1.7c-0.3,0.7-0.4,1.4-0.5,2.1
						L984.6,16.5z"/>
					<path id="パス_336" class="st0" d="M1003.2,29c0.5,0,1-0.1,1.5-0.2c0.4-0.1,0.8-0.4,1.2-0.6c0.3-0.3,0.6-0.6,0.8-0.9
						c0.2-0.3,0.3-0.7,0.3-1.1c0-0.6-0.1-1.1-0.5-1.6c-0.3-0.5-0.7-0.9-1.2-1.2c-0.5-0.4-1.1-0.7-1.7-1c-0.6-0.3-1.3-0.6-1.9-0.9
						c-0.7-0.3-1.3-0.7-1.9-1c-0.6-0.3-1.2-0.8-1.7-1.2c-0.5-0.5-0.9-1-1.2-1.7c-0.3-0.7-0.5-1.4-0.5-2.2c0-0.8,0.2-1.5,0.5-2.2
						c0.3-0.7,0.8-1.3,1.4-1.8c0.6-0.5,1.4-0.9,2.1-1.2c0.9-0.3,1.8-0.4,2.7-0.4c0.6,0,1.2,0,1.8,0.1c0.6,0.1,1.1,0.3,1.7,0.5
						c0.6,0.3,1.1,0.7,1.6,1.1c0.6,0.6,1.2,1.2,1.7,1.9l-1.5,1.3c-0.6-1.1-1.5-2-2.5-2.7c-0.9-0.6-1.9-0.9-3-0.9
						c-0.5,0-1,0.1-1.5,0.2c-0.4,0.1-0.8,0.3-1.2,0.6c-0.3,0.2-0.6,0.5-0.8,0.8c-0.2,0.3-0.3,0.7-0.3,1c0,0.6,0.2,1.1,0.5,1.5
						c0.4,0.5,0.8,0.9,1.3,1.2c0.6,0.4,1.2,0.7,1.8,1c0.7,0.3,1.4,0.6,2.1,0.9c0.7,0.3,1.4,0.6,2.1,1c0.7,0.3,1.3,0.8,1.8,1.2
						c0.5,0.5,1,1,1.3,1.6c0.3,0.7,0.5,1.4,0.5,2.2c0,0.8-0.2,1.6-0.5,2.4c-0.3,0.7-0.8,1.4-1.4,1.9c-0.7,0.6-1.5,1-2.4,1.3
						c-1.1,0.3-2.2,0.5-3.3,0.5c-0.6,0-1.2,0-1.8-0.1c-0.6-0.1-1.3-0.3-1.8-0.5c-0.7-0.3-1.3-0.7-1.9-1.1c-0.7-0.5-1.3-1.2-1.8-1.9
						l1.6-1.5c0.4,0.6,0.9,1.2,1.4,1.7c0.4,0.4,0.9,0.8,1.3,1.2c0.4,0.3,0.9,0.5,1.4,0.7C1002.2,28.9,1002.7,29,1003.2,29"/>
					<path id="パス_337" class="st0" d="M1017.9,2.5c0-0.3,0.1-0.6,0.2-0.9c0.1-0.3,0.3-0.5,0.5-0.7c0.2-0.2,0.4-0.4,0.7-0.5
						c0.6-0.2,1.2-0.2,1.7,0c0.3,0.1,0.5,0.3,0.7,0.5c0.2,0.2,0.4,0.4,0.5,0.7c0.1,0.3,0.2,0.6,0.2,0.9c0,0.3-0.1,0.6-0.2,0.9
						c-0.1,0.3-0.3,0.5-0.5,0.7c-0.2,0.2-0.4,0.4-0.7,0.5c-0.6,0.2-1.2,0.2-1.7,0c-0.3-0.1-0.5-0.3-0.7-0.5
						c-0.2-0.2-0.4-0.4-0.5-0.7C1018,3.1,1017.9,2.8,1017.9,2.5 M1018.2,10.9l2.8-1.1h1.1v20.2h-3.9V10.9z"/>
					<path id="パス_338" class="st0" d="M1049.6,11.1v1.7h-3.8c0.4,0.6,0.7,1.2,0.9,1.8c0.2,0.6,0.4,1.3,0.4,2
						c0,1-0.2,1.9-0.7,2.8c-0.5,0.9-1.1,1.6-1.9,2.2c-0.9,0.6-1.9,1.1-2.9,1.4c-1.2,0.3-2.5,0.5-3.7,0.5c-0.5,0-1,0-1.5-0.1
						c-0.5-0.1-0.9-0.2-1.4-0.3c-0.4,0.3-0.7,0.7-0.9,1.1c-0.2,0.4-0.4,0.8-0.4,1.2c0,0.4,0.3,0.8,0.7,0.9c0.6,0.3,1.2,0.4,1.8,0.4
						l7.3,0.3c1,0,2,0.2,2.9,0.4c0.7,0.2,1.3,0.5,1.9,0.9c0.4,0.4,0.8,0.8,1,1.3c0.2,0.6,0.3,1.1,0.3,1.7c0,1.1-0.3,2.2-0.8,3.1
						c-0.6,1-1.4,1.8-2.3,2.4c-1.1,0.7-2.4,1.2-3.7,1.5c-1.6,0.4-3.3,0.6-4.9,0.5c-1.4,0-2.9-0.1-4.3-0.3c-1-0.1-2.1-0.4-3.1-0.8
						c-0.7-0.3-1.3-0.7-1.8-1.3c-0.4-0.5-0.6-1.1-0.6-1.7c0-0.5,0.1-1.1,0.4-1.6c0.3-0.5,0.6-1,1-1.4c0.4-0.5,0.9-0.9,1.4-1.3
						c0.5-0.4,1-0.8,1.5-1.2c-0.3-0.1-0.7-0.3-1-0.4c-0.3-0.1-0.6-0.3-0.8-0.6c-0.2-0.2-0.4-0.4-0.5-0.7c-0.1-0.2-0.2-0.5-0.2-0.8
						c0-0.4,0.1-0.9,0.3-1.2c0.2-0.5,0.5-0.9,0.9-1.2c0.4-0.4,0.8-0.8,1.3-1.1c0.5-0.3,1-0.6,1.6-0.8c-1.2-0.5-2.3-1.3-3.1-2.4
						c-0.8-1-1.2-2.2-1.1-3.5c0-1,0.2-1.9,0.7-2.7c0.5-0.9,1.1-1.6,1.9-2.3c0.8-0.7,1.8-1.2,2.8-1.5c1.1-0.4,2.3-0.6,3.4-0.6
						c0.6,0,1.2,0,1.8,0.1c0.5,0.1,1.1,0.2,1.6,0.3c0.4,0.1,0.9,0.3,1.3,0.4c0.3,0.1,0.6,0.3,0.9,0.5L1049.6,11.1z M1033.7,29.8
						c-0.3,0.2-0.5,0.5-0.8,0.7c-0.2,0.3-0.4,0.5-0.6,0.9c-0.2,0.3-0.3,0.6-0.3,0.9c-0.1,0.3-0.1,0.6-0.1,0.9c0,0.5,0.2,0.9,0.5,1.3
						c0.4,0.5,0.9,0.8,1.4,1.1c0.7,0.3,1.5,0.6,2.3,0.7c1.1,0.2,2.2,0.3,3.3,0.3c1.2,0,2.4-0.1,3.5-0.3c0.9-0.2,1.8-0.4,2.7-0.8
						c0.6-0.3,1.2-0.7,1.7-1.1c0.3-0.3,0.5-0.8,0.6-1.3c0-0.4-0.1-0.8-0.3-1.1c-0.3-0.3-0.6-0.6-1-0.8c-0.5-0.2-1-0.4-1.5-0.5
						c-0.7-0.1-1.4-0.2-2.1-0.2c-1,0-1.9,0-2.9-0.1s-1.9-0.1-2.7-0.2c-0.8-0.1-1.6-0.1-2.2-0.2C1034.5,29.9,1034,29.8,1033.7,29.8
						 M1038.7,22.5c0.6,0,1.1-0.1,1.6-0.4c0.5-0.3,1-0.6,1.4-1c0.8-0.9,1.3-2.2,1.3-3.4c0-0.9-0.1-1.8-0.4-2.7
						c-0.2-0.8-0.6-1.5-1.1-2.2c-0.4-0.6-1-1.1-1.6-1.4c-0.6-0.3-1.2-0.5-1.9-0.5c-0.6,0-1.2,0.1-1.7,0.4c-0.5,0.3-0.9,0.7-1.2,1.1
						c-0.3,0.5-0.6,1.1-0.7,1.7c-0.2,0.7-0.2,1.4-0.2,2.1c0,0.8,0.1,1.7,0.3,2.5c0.2,0.7,0.5,1.4,0.9,2c0.4,0.5,0.9,1,1.4,1.3
						C1037.4,22.3,1038,22.5,1038.7,22.5"/>
					<path id="パス_339" class="st0" d="M1057.7,9.7h1.1v4c1.1-1.2,2.3-2.2,3.7-3c1.2-0.6,2.6-1,3.9-1c0.7,0,1.3,0.2,1.9,0.5
						c0.6,0.3,1.1,0.7,1.6,1.3c0.5,0.6,0.8,1.2,1.1,1.9c0.3,0.8,0.4,1.5,0.4,2.3v14.2h-3.9V16.4c0-0.6-0.1-1.2-0.2-1.7
						c-0.1-0.5-0.4-0.9-0.7-1.2c-0.3-0.3-0.6-0.6-1-0.8c-0.4-0.2-0.8-0.3-1.3-0.3c-0.4,0-0.9,0.1-1.3,0.2c-0.5,0.2-1,0.4-1.4,0.6
						c-0.5,0.3-1,0.6-1.4,0.9c-0.5,0.4-0.9,0.7-1.4,1.2v14.7h-3.9V10.8L1057.7,9.7z"/>
					<path id="パス_340" class="st0" d="M1101.4,3.7l12.1,26.2h-4.4l-3.9-8.6h-11l-4,8.6h-2.2l12.4-26.2H1101.4z M1094.9,19.7h9.5
						l-4.7-10.2L1094.9,19.7z"/>
					<path id="パス_341" class="st0" d="M1119.4,4.3h8.9c1.4,0,2.7,0.1,4,0.5c1,0.3,2,0.7,2.9,1.4c0.7,0.6,1.3,1.3,1.8,2.1
						c0.4,0.8,0.6,1.8,0.6,2.7c0,0.8-0.1,1.5-0.5,2.2c-0.3,0.7-0.7,1.3-1.3,1.9c-0.6,0.6-1.3,1.1-2,1.5c-0.8,0.4-1.7,0.7-2.6,1
						l9.3,12.4h-5l-8.9-12.1h-3v12.1h-4.3L1119.4,4.3z M1123.7,16.6h2.5c0.9,0,1.8-0.1,2.7-0.4c0.8-0.2,1.5-0.6,2.1-1.1
						c1.2-0.9,1.9-2.4,1.9-4c0-0.7-0.1-1.5-0.4-2.1c-0.3-0.6-0.6-1.2-1.1-1.7c-0.5-0.5-1.1-0.8-1.7-1.1c-0.7-0.3-1.4-0.4-2.2-0.4
						h-3.8L1123.7,16.6z"/>
					<path id="パス_342" class="st0" d="M1166.7,4.3v1.7h-9.3v24h-4.3v-24h-9.3V4.3H1166.7z"/>
					<path id="パス_343" class="st0" d="M1181.7,28.9c0.6,0,1.3-0.1,1.9-0.3c0.6-0.2,1.2-0.4,1.7-0.8c0.5-0.3,0.9-0.8,1.2-1.3
						c0.3-0.5,0.5-1.1,0.4-1.7c0-0.7-0.2-1.5-0.6-2.1c-0.4-0.6-1-1.2-1.6-1.7c-0.7-0.5-1.5-1-2.3-1.4c-0.8-0.5-1.7-0.9-2.6-1.4
						c-0.9-0.5-1.7-0.9-2.6-1.4c-0.8-0.5-1.6-1-2.3-1.7c-0.6-0.6-1.2-1.3-1.6-2.1c-0.4-0.8-0.6-1.7-0.6-2.6c0-0.9,0.2-1.9,0.5-2.7
						c0.4-0.8,0.9-1.6,1.6-2.2c0.8-0.6,1.7-1.1,2.6-1.4c1.2-0.4,2.4-0.5,3.6-0.5c1.1,0,2.2,0.1,3.3,0.4c0.9,0.2,1.7,0.6,2.5,1.1
						c0.7,0.5,1.3,1.1,1.8,1.9c0.5,0.8,0.9,1.6,1.2,2.6l-2.2,1c-0.2-0.8-0.6-1.5-1-2.2c-0.4-0.6-0.9-1.2-1.4-1.7
						c-0.6-0.5-1.2-0.8-1.9-1.1c-0.8-0.3-1.6-0.4-2.5-0.4c-0.7,0-1.4,0.1-2.1,0.3c-0.6,0.2-1.1,0.5-1.5,0.9
						c-0.4,0.3-0.7,0.8-0.9,1.2c-0.2,0.4-0.3,0.9-0.3,1.4c0,0.7,0.2,1.3,0.6,1.8c0.5,0.6,1,1.1,1.6,1.6c0.7,0.5,1.5,1,2.3,1.4
						c0.9,0.5,1.8,0.9,2.7,1.4c0.9,0.5,1.8,1,2.7,1.5c0.8,0.5,1.6,1.1,2.3,1.7c0.7,0.6,1.2,1.3,1.6,2c0.4,0.7,0.6,1.6,0.6,2.4
						c0,1-0.2,2-0.6,2.9c-0.4,0.9-1,1.7-1.7,2.3c-0.8,0.7-1.8,1.2-2.9,1.6c-1.3,0.4-2.7,0.6-4,0.6c-1.1,0-2.2-0.1-3.3-0.4
						c-0.9-0.2-1.8-0.6-2.6-1.2c-0.7-0.5-1.4-1.2-1.9-1.9c-0.6-0.8-1-1.6-1.3-2.5l2.3-0.9c0.3,0.8,0.6,1.6,1.1,2.2
						c0.4,0.6,1,1.2,1.6,1.7c0.6,0.5,1.3,0.8,2,1.1C1180.1,28.8,1180.9,28.9,1181.7,28.9"/>
					<path id="パス_344" class="st0" d="M1241.5,4.3v1.7h-9.3v24h-4.3v-24h-9.3V4.3H1241.5z"/>
					<path id="パス_345" class="st0" d="M1253.3,30.4c-1.4,0-2.9-0.3-4.2-0.8c-1.2-0.5-2.4-1.2-3.3-2.2c-1.9-1.9-3-4.4-3-7.1
						c0-1.4,0.3-2.8,0.8-4.1c0.5-1.2,1.2-2.4,2.2-3.4c0.9-1,2.1-1.7,3.3-2.3c1.3-0.6,2.8-0.8,4.2-0.8c1.4,0,2.8,0.2,4.2,0.8
						c1.2,0.5,2.3,1.2,3.3,2.1c0.9,0.9,1.7,1.9,2.2,3.1c0.5,1.2,0.8,2.5,0.8,3.8c0,1.4-0.3,2.9-0.8,4.2c-0.5,1.3-1.2,2.5-2.2,3.5
						c-0.9,1-2.1,1.8-3.3,2.3C1256.2,30.1,1254.7,30.4,1253.3,30.4 M1254,28.9c0.8,0,1.5-0.2,2.1-0.6c0.7-0.4,1.2-1,1.7-1.6
						c0.5-0.7,0.9-1.5,1.1-2.4c0.3-0.9,0.4-1.9,0.4-2.8c0-1.4-0.1-2.7-0.4-4c-0.2-1.2-0.6-2.3-1.2-3.3c-0.5-0.9-1.3-1.7-2.2-2.2
						c-1-0.6-2.1-0.8-3.3-0.8c-0.7,0-1.3,0.2-1.9,0.6c-0.6,0.4-1.2,0.9-1.6,1.6c-0.5,0.7-0.9,1.5-1.1,2.3c-0.3,0.9-0.4,1.9-0.4,2.8
						c0,1.4,0.1,2.7,0.4,4.1c0.3,1.2,0.7,2.3,1.3,3.3c0.5,0.9,1.3,1.7,2.1,2.2C1252,28.6,1253,28.9,1254,28.9"/>
					<path id="パス_346" class="st0" d="M1275.3,18.1l10-8h2.6l-8.9,7.2l11,12.6h-5.2l-9.4-10.8v10.8h-3.9V1.1l2.8-1.1h1.1
						L1275.3,18.1z"/>
					<path id="パス_347" class="st0" d="M1294.5,34.6c0.2,0.1,0.3,0.2,0.5,0.3c0.2,0.1,0.4,0.2,0.6,0.3c0.2,0.1,0.5,0.2,0.7,0.2
						c0.3,0.1,0.6,0.1,0.9,0.1c0.4,0,0.8-0.1,1.2-0.3c0.4-0.2,0.7-0.5,1-0.9c0.3-0.4,0.6-0.7,0.8-1.1c0.2-0.4,0.4-0.8,0.6-1.2l1.3-3
						L1292,10.1h4.5l7.6,14.3l6.2-14.3h2.1l-10.1,23.3c-0.4,0.9-0.9,1.7-1.5,2.5c-0.5,0.7-1.1,1.3-1.8,1.8c-0.6,0.4-1.2,0.8-1.9,1
						c-0.6,0.2-1.3,0.3-1.9,0.3c-0.5,0-0.9-0.1-1.4-0.2c-0.4-0.1-0.8-0.3-1.1-0.6L1294.5,34.6z"/>
					<path id="パス_348" class="st0" d="M1327.1,30.4c-1.4,0-2.9-0.3-4.2-0.8c-1.2-0.5-2.4-1.2-3.3-2.2c-1.9-1.9-3-4.4-3-7.1
						c0-1.4,0.3-2.8,0.8-4.1c0.5-1.2,1.2-2.4,2.2-3.4c0.9-1,2.1-1.7,3.3-2.3c1.3-0.6,2.8-0.8,4.2-0.8c1.4,0,2.8,0.2,4.2,0.8
						c1.2,0.5,2.3,1.2,3.3,2.1c0.9,0.9,1.7,1.9,2.2,3.1c0.5,1.2,0.8,2.5,0.8,3.8c0,1.4-0.3,2.9-0.8,4.2c-0.5,1.3-1.2,2.5-2.2,3.5
						c-0.9,1-2.1,1.8-3.3,2.3C1329.9,30.1,1328.5,30.4,1327.1,30.4 M1327.8,28.9c0.8,0,1.5-0.2,2.1-0.6c0.7-0.4,1.2-1,1.7-1.6
						c0.5-0.7,0.8-1.5,1.1-2.4c0.3-0.9,0.4-1.9,0.4-2.8c0-1.4-0.1-2.7-0.4-4c-0.2-1.2-0.6-2.3-1.2-3.3c-0.5-0.9-1.3-1.7-2.2-2.2
						c-1-0.6-2.1-0.8-3.3-0.8c-0.7,0-1.3,0.2-1.9,0.6c-0.6,0.4-1.2,0.9-1.6,1.6c-0.5,0.7-0.9,1.5-1.1,2.3c-0.3,0.9-0.4,1.9-0.4,2.8
						c0,1.4,0.1,2.7,0.5,4.1c0.3,1.2,0.7,2.3,1.3,3.3c0.5,0.9,1.3,1.7,2.1,2.2C1325.8,28.6,1326.8,28.9,1327.8,28.9"/>
					<path id="パス_349" class="st0" d="M1356,4.3h8.6c2.3,0,4.6,0.2,6.8,0.7c1.7,0.4,3.4,1.2,4.7,2.4c1.4,1.2,2.5,2.6,3.3,4.3
						c0.7,1.6,1.1,3.4,1.1,5.2c0,1.7-0.3,3.5-1,5.1c-0.6,1.6-1.6,3-2.9,4.2c-1.4,1.2-2.9,2.2-4.7,2.8c-2,0.7-4.2,1.1-6.4,1h-9.6
						L1356,4.3z M1360.3,28h4.6c1.4,0,2.8-0.2,4.1-0.7c1.3-0.5,2.4-1.2,3.3-2.1c1-1,1.7-2.2,2.2-3.5c0.6-1.5,0.9-3.1,0.8-4.8
						c0-1.5-0.2-3-0.8-4.4c-0.5-1.3-1.2-2.4-2.2-3.4c-0.9-1-2.1-1.7-3.3-2.2c-1.3-0.5-2.8-0.8-4.2-0.8h-4.6L1360.3,28z"/>
					<path id="パス_350" class="st0" d="M1396.2,30.4c-1.3,0-2.6-0.2-3.8-0.8c-1.1-0.5-2.2-1.2-3.1-2.1c-0.9-0.9-1.6-1.9-2.1-3.1
						c-0.5-1.2-0.8-2.4-0.8-3.7c0-1.5,0.2-3,0.7-4.4c0.4-1.3,1.1-2.5,2-3.5c0.8-1,1.9-1.8,3.1-2.3c1.3-0.6,2.6-0.9,4-0.8
						c1.2,0,2.4,0.2,3.6,0.7c1,0.4,2,1.1,2.8,1.8c0.8,0.8,1.4,1.7,1.8,2.7c0.4,1,0.6,2.1,0.6,3.2h-14.8c0,1.3,0.2,2.5,0.5,3.7
						c0.3,1.1,0.8,2.1,1.4,2.9c0.6,0.8,1.3,1.5,2.2,1.9c0.9,0.5,1.8,0.7,2.8,0.7c0.8,0,1.7-0.1,2.5-0.4c0.8-0.3,1.5-0.6,2.1-1.1
						c0.6-0.4,1.2-1,1.6-1.5c0.4-0.5,0.7-1.1,0.9-1.8l1.1,0.5c-0.3,1-0.8,2-1.4,2.9c-0.6,0.9-1.4,1.7-2.2,2.3
						c-0.8,0.7-1.8,1.2-2.8,1.6C1398.3,30.2,1397.3,30.4,1396.2,30.4 M1400.1,16.5c0-0.7-0.1-1.4-0.4-2.1c-0.2-0.6-0.6-1.2-1.1-1.7
						c-0.5-0.5-1-0.8-1.6-1.1c-0.6-0.3-1.3-0.4-2-0.4c-0.6,0-1.2,0.1-1.7,0.4c-0.5,0.3-1,0.6-1.4,1.1c-0.4,0.5-0.8,1.1-1.1,1.7
						c-0.3,0.7-0.4,1.4-0.5,2.1L1400.1,16.5z"/>
					<path id="パス_351" class="st0" d="M1418.8,29c0.5,0,1-0.1,1.5-0.2c0.4-0.1,0.8-0.4,1.2-0.6c0.3-0.3,0.6-0.6,0.8-0.9
						c0.2-0.3,0.3-0.7,0.3-1.1c0-0.6-0.1-1.1-0.5-1.6c-0.3-0.5-0.7-0.9-1.2-1.2c-0.5-0.4-1.1-0.7-1.7-1c-0.6-0.3-1.3-0.6-1.9-0.9
						s-1.3-0.7-1.9-1c-0.6-0.3-1.2-0.8-1.7-1.2c-0.5-0.5-0.9-1-1.2-1.7c-0.3-0.7-0.5-1.4-0.5-2.2c0-0.8,0.2-1.5,0.5-2.2
						c0.3-0.7,0.8-1.3,1.4-1.8c0.6-0.5,1.4-0.9,2.1-1.2c0.9-0.3,1.8-0.4,2.7-0.4c0.6,0,1.2,0,1.8,0.1c0.6,0.1,1.1,0.3,1.7,0.5
						c0.6,0.3,1.2,0.7,1.6,1.1c0.6,0.6,1.2,1.2,1.7,1.9l-1.5,1.3c-0.6-1.1-1.5-2-2.5-2.7c-0.9-0.6-1.9-0.9-2.9-0.9
						c-0.5,0-1,0.1-1.5,0.2c-0.4,0.1-0.8,0.3-1.2,0.6c-0.3,0.2-0.6,0.5-0.8,0.8c-0.2,0.3-0.3,0.7-0.3,1c0,0.6,0.2,1.1,0.5,1.5
						c0.4,0.5,0.8,0.9,1.3,1.2c0.6,0.4,1.2,0.7,1.8,1l2.1,0.9c0.7,0.3,1.4,0.6,2.1,1c0.7,0.3,1.3,0.8,1.8,1.2c0.5,0.5,1,1,1.3,1.6
						c0.3,0.7,0.5,1.4,0.5,2.2c0,0.8-0.2,1.6-0.5,2.4c-0.3,0.7-0.8,1.4-1.4,1.9c-0.7,0.6-1.5,1-2.4,1.3c-1.1,0.3-2.2,0.5-3.3,0.5
						c-0.6,0-1.2,0-1.8-0.1c-0.6-0.1-1.3-0.3-1.8-0.5c-0.7-0.3-1.3-0.7-1.9-1.1c-0.7-0.5-1.3-1.2-1.8-1.9l1.6-1.5
						c0.4,0.6,0.9,1.2,1.4,1.7c0.4,0.4,0.9,0.8,1.3,1.2c0.4,0.3,0.9,0.5,1.4,0.7C1417.7,28.9,1418.2,29,1418.8,29"/>
					<path id="パス_352" class="st0" d="M1433.5,2.5c0-0.3,0.1-0.6,0.2-0.9c0.1-0.3,0.3-0.5,0.5-0.7c0.2-0.2,0.5-0.4,0.7-0.5
						c0.6-0.2,1.2-0.2,1.7,0c0.3,0.1,0.5,0.3,0.7,0.5c0.2,0.2,0.4,0.4,0.5,0.7c0.1,0.3,0.2,0.6,0.2,0.9c0,0.3-0.1,0.6-0.2,0.9
						c-0.1,0.3-0.3,0.5-0.5,0.7c-0.2,0.2-0.4,0.4-0.7,0.5c-0.6,0.2-1.2,0.2-1.7,0c-0.3-0.1-0.5-0.3-0.7-0.5
						c-0.2-0.2-0.4-0.4-0.5-0.7C1433.5,3.1,1433.5,2.8,1433.5,2.5 M1433.8,10.9l2.8-1.1h1.1v20.2h-3.9V10.9z"/>
					<path id="パス_353" class="st0" d="M1465.2,11.1v1.7h-3.8c0.4,0.6,0.7,1.2,0.9,1.8c0.2,0.6,0.4,1.3,0.4,2
						c0,1-0.2,1.9-0.7,2.8c-0.5,0.9-1.1,1.6-1.9,2.2c-0.9,0.6-1.9,1.1-2.9,1.4c-1.2,0.3-2.5,0.5-3.7,0.5c-0.5,0-1,0-1.5-0.1
						c-0.5-0.1-0.9-0.2-1.4-0.3c-0.4,0.3-0.7,0.7-0.9,1.1c-0.2,0.4-0.4,0.8-0.4,1.2c0,0.4,0.3,0.8,0.7,0.9c0.6,0.3,1.2,0.4,1.8,0.4
						l7.3,0.3c1,0,2,0.2,2.9,0.4c0.7,0.2,1.3,0.5,1.9,0.9c0.4,0.4,0.8,0.8,1,1.3c0.2,0.6,0.3,1.1,0.3,1.7c0,1.1-0.3,2.2-0.8,3.1
						c-0.6,1-1.4,1.8-2.3,2.4c-1.1,0.7-2.4,1.2-3.7,1.5c-1.6,0.4-3.3,0.6-4.9,0.5c-1.4,0-2.9-0.1-4.3-0.3c-1-0.1-2.1-0.4-3.1-0.8
						c-0.7-0.3-1.3-0.7-1.8-1.3c-0.4-0.5-0.6-1.1-0.6-1.7c0-0.5,0.1-1.1,0.4-1.6c0.3-0.5,0.6-1,1-1.4c0.4-0.5,0.9-0.9,1.4-1.3
						c0.5-0.4,1-0.8,1.5-1.2c-0.3-0.1-0.7-0.3-1-0.4c-0.3-0.1-0.6-0.3-0.8-0.6c-0.2-0.2-0.4-0.4-0.5-0.7c-0.1-0.2-0.2-0.5-0.2-0.8
						c0-0.4,0.1-0.9,0.3-1.2c0.2-0.5,0.5-0.9,0.9-1.2c0.4-0.4,0.8-0.8,1.3-1.1c0.5-0.3,1-0.6,1.6-0.8c-1.2-0.5-2.3-1.3-3.1-2.4
						c-0.8-1-1.2-2.2-1.1-3.5c0-1,0.2-1.9,0.7-2.7c0.5-0.9,1.1-1.6,1.9-2.3c0.8-0.7,1.8-1.2,2.8-1.5c1.1-0.4,2.3-0.6,3.4-0.6
						c0.6,0,1.2,0,1.8,0.1c0.5,0.1,1.1,0.2,1.6,0.3c0.5,0.1,0.9,0.3,1.3,0.4c0.3,0.1,0.6,0.3,0.9,0.5L1465.2,11.1z M1449.3,29.8
						c-0.3,0.2-0.5,0.5-0.8,0.7c-0.2,0.3-0.4,0.5-0.6,0.9c-0.2,0.3-0.3,0.6-0.4,0.9c-0.1,0.3-0.1,0.6-0.1,0.9c0,0.5,0.2,0.9,0.5,1.3
						c0.4,0.5,0.9,0.8,1.4,1.1c0.7,0.3,1.5,0.6,2.3,0.7c1.1,0.2,2.2,0.3,3.3,0.3c1.2,0,2.4-0.1,3.5-0.3c0.9-0.2,1.8-0.4,2.7-0.8
						c0.6-0.3,1.2-0.7,1.7-1.1c0.3-0.3,0.5-0.8,0.6-1.3c0-0.4-0.1-0.8-0.3-1.1c-0.3-0.3-0.6-0.6-1-0.8c-0.5-0.2-1-0.4-1.5-0.5
						c-0.7-0.1-1.4-0.2-2.1-0.2c-0.9,0-1.9,0-2.9-0.1s-1.9-0.1-2.7-0.2s-1.6-0.1-2.2-0.2S1449.5,29.8,1449.3,29.8 M1454.2,22.5
						c0.6,0,1.1-0.1,1.6-0.4c0.5-0.3,1-0.6,1.4-1c0.4-0.5,0.7-1,0.9-1.5c0.2-0.6,0.4-1.3,0.3-1.9c0-0.9-0.1-1.8-0.4-2.7
						c-0.2-0.8-0.6-1.5-1.1-2.2c-0.4-0.6-1-1.1-1.6-1.4c-0.6-0.3-1.2-0.5-1.9-0.5c-0.6,0-1.2,0.1-1.7,0.4c-0.5,0.3-0.9,0.7-1.2,1.1
						c-0.3,0.5-0.6,1.1-0.7,1.7c-0.2,0.7-0.2,1.4-0.2,2.1c0,0.8,0.1,1.7,0.3,2.5c0.2,0.7,0.5,1.4,0.9,2c0.4,0.5,0.9,1,1.4,1.3
						C1452.9,22.3,1453.5,22.5,1454.2,22.5"/>
					<path id="パス_354" class="st0" d="M1473.2,9.7h1.1v4c1.1-1.2,2.3-2.2,3.7-3c1.2-0.6,2.6-1,3.9-1c0.7,0,1.3,0.2,1.9,0.5
						c0.6,0.3,1.1,0.7,1.6,1.3c0.5,0.6,0.8,1.2,1.1,1.9c0.3,0.7,0.4,1.5,0.4,2.3v14.2h-3.9V16.4c0-0.6-0.1-1.2-0.2-1.7
						c-0.1-0.5-0.4-0.9-0.7-1.2c-0.3-0.3-0.6-0.6-1-0.8c-0.4-0.2-0.8-0.3-1.3-0.3c-0.4,0-0.9,0.1-1.3,0.2c-0.5,0.2-1,0.4-1.4,0.6
						c-0.5,0.3-1,0.6-1.4,0.9c-0.5,0.4-0.9,0.7-1.4,1.2v14.7h-3.9V10.8L1473.2,9.7z"/>
					<path id="パス_355" class="st0" d="M1516.9,3.7l12.1,26.2h-4.4l-3.9-8.6h-11l-4,8.6h-2.2l12.4-26.2H1516.9z M1510.4,19.7h9.5
						l-4.7-10.2L1510.4,19.7z"/>
					<path id="パス_356" class="st0" d="M1534.9,4.3h8.9c1.4,0,2.7,0.1,4,0.5c1,0.3,2,0.7,2.9,1.4c0.7,0.6,1.3,1.3,1.8,2.1
						c0.4,0.8,0.6,1.8,0.6,2.7c0,0.8-0.1,1.5-0.5,2.2c-0.3,0.7-0.7,1.3-1.3,1.9c-0.6,0.6-1.3,1.1-2,1.5c-0.8,0.4-1.7,0.7-2.6,1
						l9.3,12.4h-5l-8.9-12.1h-3v12.1h-4.3L1534.9,4.3z M1539.2,16.6h2.5c0.9,0,1.8-0.1,2.7-0.4c0.8-0.2,1.5-0.6,2.1-1.1
						c0.6-0.5,1.1-1,1.4-1.7c0.3-0.7,0.5-1.5,0.5-2.3c0-0.7-0.1-1.5-0.4-2.1c-0.3-0.6-0.6-1.2-1.1-1.7c-0.5-0.5-1.1-0.8-1.7-1.1
						c-0.7-0.3-1.4-0.4-2.2-0.4h-3.8V16.6z"/>
					<path id="パス_357" class="st0" d="M1582.2,4.3v1.7h-9.3v24h-4.3v-24h-9.3V4.3H1582.2z"/>
					<path id="パス_358" class="st0" d="M1597.2,28.9c0.6,0,1.3-0.1,1.9-0.3c0.6-0.2,1.2-0.4,1.7-0.8c0.5-0.3,0.9-0.8,1.2-1.3
						c0.3-0.5,0.5-1.1,0.5-1.7c0-0.7-0.2-1.5-0.6-2.1c-0.4-0.6-1-1.2-1.6-1.7c-0.7-0.5-1.5-1-2.3-1.4c-0.8-0.5-1.7-0.9-2.6-1.4
						s-1.7-0.9-2.6-1.4c-0.8-0.5-1.6-1-2.3-1.7c-0.6-0.6-1.2-1.3-1.6-2.1c-0.4-0.8-0.6-1.7-0.6-2.6c0-0.9,0.2-1.9,0.5-2.7
						c0.4-0.8,0.9-1.6,1.6-2.2c0.8-0.6,1.7-1.1,2.6-1.4c1.2-0.4,2.4-0.5,3.6-0.5c1.1,0,2.2,0.1,3.3,0.4c0.9,0.2,1.7,0.6,2.5,1.1
						c0.7,0.5,1.3,1.1,1.8,1.9c0.5,0.8,0.9,1.6,1.2,2.6l-2.2,1c-0.2-0.8-0.6-1.5-1-2.2c-0.4-0.6-0.9-1.2-1.4-1.7
						c-0.6-0.5-1.2-0.8-1.9-1.1c-0.8-0.3-1.6-0.4-2.5-0.4c-0.7,0-1.4,0.1-2.1,0.3c-0.6,0.2-1.1,0.5-1.5,0.9
						c-0.4,0.3-0.7,0.8-0.9,1.2c-0.2,0.4-0.3,0.9-0.3,1.4c0,0.7,0.2,1.3,0.6,1.8c0.5,0.6,1,1.1,1.6,1.6c0.7,0.5,1.5,1,2.3,1.4
						c0.9,0.5,1.8,0.9,2.7,1.4s1.8,1,2.7,1.5c0.8,0.5,1.6,1.1,2.3,1.7c0.7,0.6,1.2,1.3,1.6,2c0.4,0.7,0.6,1.6,0.6,2.4
						c0,1-0.2,2-0.6,2.9c-0.4,0.9-1,1.7-1.7,2.3c-0.8,0.7-1.8,1.2-2.9,1.6c-1.3,0.4-2.7,0.6-4,0.6c-1.1,0-2.2-0.1-3.3-0.4
						c-0.9-0.2-1.8-0.6-2.6-1.2c-0.7-0.5-1.4-1.2-1.9-1.9c-0.6-0.8-1-1.6-1.3-2.5l2.3-0.9c0.2,0.8,0.6,1.6,1.1,2.2
						c0.4,0.6,1,1.2,1.6,1.7c0.6,0.5,1.3,0.8,2,1.1C1595.6,28.8,1596.4,28.9,1597.2,28.9"/>
				</g>
			</g>
		</g>
		<g id="グループ_73" transform="translate(1642 4947.563)">
			<g>
				<g id="グループ_71-2" transform="translate(0 0)">
					<path id="パス_299-2" class="st0" d="M5.4,29.7L7,29.6c1.2-0.1,1.7-0.4,1.7-0.6V7.7H7.5C4,8,1.7,11.3,0.5,13.6l-0.3,0.5H0
						l1-6.7h20.2l0.7,6.7h-0.2l-0.2-0.5c-1.2-2.7-3.6-5.8-6.9-5.9h-1.2v21.3c0,0.3,0.2,0.4,2.1,0.5l1.2,0.1l0.1,0.2H5.3L5.4,29.7z"
						/>
					<path id="パス_300-2" class="st0" d="M23.3,22.2c0-4.5,3.6-8.2,8.7-8.2c5.1,0,8.5,3.6,8.5,8.1c0,4.6-3.5,8.3-8.7,8.3
						C26.6,30.4,23.3,26.8,23.3,22.2 M35.9,22.4c0-3.7-0.7-6.1-1.8-7.2c-0.6-0.6-1.4-0.9-2.2-0.9c-2.8,0-4.1,3.5-4.1,7.6
						c0,3.8,0.7,6.1,1.8,7.3c0.6,0.6,1.4,0.9,2.2,0.9C34.5,30.1,35.9,26.7,35.9,22.4"/>
					<path id="パス_301-2" class="st0" d="M45.2,29.7l0.5,0c1.1-0.1,1.5-0.1,1.5-0.6V9.9c0-1.6-0.2-1.9-1.4-2.2l-0.8-0.2l0-0.1
						l6.3-1.6v16.9l2.8-2.6c2.2-2,3.1-3.3,3.1-4c0-0.7-0.4-1.1-2.3-1.2l-0.5,0l-0.1-0.2h8.1l-0.1,0.2l-0.6,0.1
						c-1.8,0.2-2.7,0.8-5.8,3.9c-0.2,0.1-0.3,0.3-0.4,0.5l4.4,7.9c1.2,2.1,1.6,2.5,2.8,2.6l0.5,0l0.1,0.2h-6.6l-0.3-0.5l-4-7.3
						l-1.2,1v6.1c0,0.3,0.2,0.4,1.8,0.5l0.5,0l0.1,0.2h-8.6L45.2,29.7z"/>
					<path id="パス_302-2" class="st0" d="M66.6,36.9c0-1.1,0.9-2.1,2.1-2.1c1.2,0,2.2,0.9,2.4,2.1c0.9-0.2,1.4-1.1,2.1-3l1.3-3.7
						H74l-6-13.4c-0.8-1.7-1-2-2.1-2.1l-0.6,0l-0.1-0.2h9l-0.1,0.2l-0.6,0c-1.4,0.1-1.7,0.5-1.1,1.7l3.8,8.9l2.2-6.1
						c1.3-3.6,1-4.1-1.4-4.4l-0.5-0.1l-0.1-0.2h6.4l-0.1,0.2l-0.6,0.1c-1.7,0.1-1.8,0.6-3.3,4.8l-3.8,10.3l-1.5,4.4
						c-1,3.2-2.4,4.8-4.4,4.8C67.8,39.2,66.7,38.3,66.6,36.9C66.6,37,66.6,37,66.6,36.9"/>
					<path id="パス_303-2" class="st0" d="M85.8,22.2c0-4.5,3.6-8.2,8.7-8.2c5.1,0,8.5,3.6,8.5,8.1c0,4.6-3.5,8.3-8.7,8.3
						C89.2,30.4,85.8,26.8,85.8,22.2 M98.5,22.4c0-3.7-0.7-6.1-1.8-7.2c-0.6-0.6-1.4-0.9-2.2-0.9c-2.8,0-4.1,3.5-4.1,7.6
						c0,3.8,0.7,6.1,1.8,7.3c0.6,0.6,1.4,0.9,2.2,0.9C97,30.1,98.5,26.7,98.5,22.4"/>
					<path id="パス_304-2" class="st0" d="M118.2,29.7l1.3-0.1c1.3-0.1,1.7-0.4,1.7-0.6V8.3c0-0.3-0.2-0.4-2.1-0.5l-0.9-0.1
						l-0.1-0.2l10.6,0c8.5-0.1,12.7,4.2,12.7,11.1c0,6.3-5.2,11.5-13.3,11.5h-9.9L118.2,29.7z M136.3,19.2c0-6.8-2.6-11.3-8.6-11.3
						h-1.9v21.1l2.4,0.6C133.6,29.5,136.3,24.7,136.3,19.2"/>
					<path id="パス_305-2" class="st0" d="M146.5,22.5c-0.2-4.6,3.4-8.4,8-8.6c0.1,0,0.2,0,0.3,0c4.1,0,6.2,2.5,6.2,5.1
						c0,0.2,0,0.4-0.1,0.6c0,0-9-0.1-10-0.1c-0.1,0.6-0.1,1.2-0.1,1.7c0,4,2.2,6.7,5.5,6.7c2,0.1,3.8-1,4.6-2.8l0.3,0.1
						c-1.5,3.3-3.8,5.2-7.2,5.2C149.7,30.5,146.5,27,146.5,22.5 M157,19.2c0-2.2-0.6-4.8-2.6-4.8c-1.6,0-3.1,2-3.4,4.8L157,19.2z"/>
					<path id="パス_306-2" class="st0" d="M166.5,29.5l-0.2-4.5h0.2l0.9,1.5c1.2,2.3,2.4,3.6,4.5,3.6c1.5,0.2,2.9-1,3-2.5
						c0-0.1,0-0.2,0-0.4c0-1.8-1.6-2.7-3.8-3.5c-2.4-0.9-4.6-2-4.6-4.8c0-3,2.4-4.9,5.8-4.9c1.2,0,2.3,0.2,3.4,0.6l1.4-0.4l0.2,4.6
						l-0.2,0.1l-2.7-3.8c-0.6-0.5-1.4-0.8-2.2-0.8c-1.4-0.1-2.6,0.9-2.7,2.2c0,0.1,0,0.3,0,0.4c0,1.7,1.6,2.4,3.8,3.2
						c2.4,1,4.8,2,4.8,5c0,2.7-2.1,5.2-6.4,5.2C169.9,30.4,168.2,30.1,166.5,29.5"/>
					<path id="パス_307-2" class="st0" d="M183.3,29.7l0.5,0c1.1-0.1,1.5-0.1,1.5-0.6V19c0-2.2-0.3-2.6-1.5-2.8l-0.8-0.2l0-0.1
						l6.3-1.7v15.1c0,0.3,0.2,0.4,1.8,0.5l0.4,0l0.1,0.2h-8.6L183.3,29.7z M184.6,9.1c0-1.4,1.1-2.6,2.5-2.6c1.4,0,2.6,1.1,2.6,2.5
						c0,1.4-1.1,2.6-2.5,2.6c0,0,0,0-0.1,0C185.8,11.7,184.7,10.6,184.6,9.1C184.6,9.2,184.6,9.2,184.6,9.1"/>
					<path id="パス_308-2" class="st0" d="M195.8,34.9c0-1.9,2.5-3.2,4.5-4v0c-2.4-0.1-4.2-1.5-4.2-3.2c0-2,2.2-3.3,4.2-3.8v0
						c-2-0.6-3.3-2.4-3.4-4.4c0-2.9,3-5.3,6.5-5.3c1.5,0,3,0.4,4.3,1.2l4.7-0.8l-0.4,1.8l-3.6-0.5l0,0.1c1,0.8,1.5,2,1.5,3.2
						c0,2.9-2.8,5.2-6.6,5.2c-0.8,0-1.6-0.1-2.4-0.3c-1.3,0.3-2.1,0.9-2.1,1.8c0,1,1,1.3,3,1.3c1,0,3.3-0.1,4.6-0.1
						c3.4,0,5.4,1.6,5.4,4.2c0,4-4,7.1-9.6,7.1C197.9,38.4,195.8,37.2,195.8,34.9 M209.3,33.7c0-2-1.4-2.8-4.8-3
						c-1.2,0-2.5,0.1-3.7,0.2c-1.3,0.5-2.1,1.8-2,3.1c0,2.2,2.1,3.7,5.2,3.7C207.2,37.8,209.3,35.9,209.3,33.7 M206.1,19.4
						c0-3-0.7-5-2.7-5c-1.6,0-2.4,1.6-2.4,4.7c0,3.2,0.9,4.8,2.5,4.8C205.2,24,206.1,22.4,206.1,19.4"/>
					<path id="パス_309-2" class="st0" d="M216.5,29.7l0.5,0c1.1-0.1,1.5-0.1,1.5-0.6V19c0-2.2-0.3-2.6-1.5-2.8l-0.8-0.2l0-0.1
						l6.4-1.7l-0.1,3.1l0.1,0c1.5-1.3,3.7-3.2,6.2-3.2c1.1,0,2.1,0.4,2.8,1.2c0.9,1.1,1.3,2.5,1.2,4v10c0,0.2,0.1,0.4,1.8,0.5l0.4,0
						l0.1,0.2h-8.5l0.1-0.2l0.7,0c1.3-0.1,1.3-0.3,1.3-0.6v-9.4c0-2.2-1.1-3.1-3-3.1c-1.2,0-2.3,0.4-3.2,1.1v11.5
						c0,0.3,0.2,0.4,1.6,0.5l0.5,0l0.1,0.2h-8.4L216.5,29.7z"/>
					<path id="パス_310-2" class="st0" d="M255.3,20.2l-1.3,3.6c-1.7,5-1.9,5.4,1.5,5.8l0.7,0.1l0.1,0.2h-7.9l0.1-0.2l0.6-0.1
						c2.3-0.3,2.6-0.8,5-7.2l4-11.3l-0.4-1.2c1.6-0.5,2.4-1.5,3.1-3.2h0.7l6.2,18.2c1.3,3.9,1.9,4.5,3.5,4.6l1,0.1l0.1,0.2h-11.3
						l0.1-0.2l1-0.1c1.8-0.1,1.9-1,1.1-3.3l-2-6.1L255.3,20.2z M261.1,19.9l-2.7-8.2h0l-2.9,8.2H261.1z"/>
					<path id="パス_311-2" class="st0" d="M276.6,29.7l1.6-0.1c1-0.1,1.7-0.4,1.7-0.6V8.3c0-0.3-0.2-0.4-2.1-0.5l-1.2-0.1
						l-0.1-0.2l10.8,0c6.2,0,9.4,1.9,9.4,5.8c0,2.7-2.2,4.9-5.5,5.5l4.7,7.4c1.8,2.8,2.4,3.5,4.3,3.7l0.4,0l0.1,0.2h-7.8l-0.3-0.6
						l-6-10.7c-0.7-0.1-1.3-0.3-2-0.6v11c0,0.3,0.7,0.4,2,0.5l1.4,0.1l0.1,0.2h-11.5L276.6,29.7z M291.7,13c0-3.2-2.1-5.2-5.9-5.2
						h-1.4v9.9c0.6,0.2,1.2,0.3,1.8,0.3C289.7,18,291.7,16.2,291.7,13"/>
					<path id="パス_312-2" class="st0" d="M309.4,29.7l1.6-0.1c1.2-0.1,1.7-0.4,1.7-0.6V7.7h-1.2c-3.5,0.3-5.9,3.6-7,5.9l-0.3,0.5
						h-0.3l1-6.7h20.2l0.7,6.7h-0.2l-0.2-0.5c-1.2-2.7-3.6-5.8-6.9-5.9h-1.2v21.3c0,0.3,0.2,0.4,2.1,0.5l1.2,0.1l0.1,0.2h-11.5
						L309.4,29.7z"/>
					<path id="パス_313-2" class="st0" d="M331.6,29.1l-0.4-5.8h0.2l1.4,2.8c1.4,2.6,3.3,3.9,6,3.9c3,0,4.8-1.8,4.8-4.6
						c0-3.1-2.5-4.2-5.6-5.4c-3.4-1.2-6.2-2.7-6.2-6.4c0-3.6,3-6.6,7.4-6.6c1.7,0,3.4,0.3,5,0.9l1.4-0.5l0.1,6.3h-0.2l-3-5.3
						c-1-0.7-2.2-1.1-3.5-1c-2.1-0.2-3.9,1.4-4.1,3.5c0,0.1,0,0.1,0,0.2c0,2.7,2.4,3.7,5.3,4.8c3.7,1.3,6.6,3,6.6,7.1
						c0,3.8-3.4,7.5-8.3,7.5C336.3,30.4,333.9,29.9,331.6,29.1"/>
					<path id="パス_314-2" class="st0" d="M399.7,8.8h-8l1.1-4.1h20.5l-1.1,4.1h-8l-5.7,21.1h-4.4L399.7,8.8z"/>
					<path id="パス_315-2" class="st0" d="M410.6,21.7c0.1-6.1,5-11,11.1-11.2c5.4,0,8.9,3.7,8.9,8.7c-0.1,6.1-5,11-11.1,11.1
						C414.1,30.4,410.6,26.7,410.6,21.7 M426.3,19.3c0-3.2-2-5-4.9-5c-3.7,0-6.5,3.9-6.5,7.2c0,3.2,2,5,4.9,5
						C423.5,26.6,426.3,22.8,426.3,19.3"/>
					<path id="パス_316-2" class="st0" d="M441.7,3.6h4.4L441.9,19l9.7-8.1h5.8l-9.6,7.7l4.6,11.3h-4.9l-3.4-8.5l-3.7,3l-1.5,5.5
						h-4.4L441.7,3.6z"/>
					<path id="パス_317-2" class="st0" d="M455.2,34.5l2.3-3.2c0.7,0.5,1.6,0.8,2.4,0.8c1.1,0,2-0.5,3.2-2.1l-2.8-19.1h4.5
						l1.6,14.1l8.4-14.1h4.8l-12.3,19.6c-2.6,3.9-4.8,5.3-7.9,5.3C457.9,35.8,456.4,35.4,455.2,34.5"/>
					<path id="パス_318-2" class="st0" d="M481.3,21.7c0.1-6.1,5-11,11.1-11.2c5.4,0,8.9,3.7,8.9,8.7c-0.1,6.1-5,11-11.1,11.1
						C484.8,30.4,481.3,26.7,481.3,21.7 M497,19.3c0-3.2-2-5-4.9-5c-3.7,0-6.5,3.9-6.5,7.2c0,3.2,2,5,4.9,5
						C494.1,26.6,497,22.8,497,19.3"/>
					<path id="パス_319-2" class="st0" d="M525.5,4.7h6.8c4.6,0,7.8,1.3,9.8,3.3c1.9,2,2.9,4.6,2.8,7.3c0,3.7-1.4,7.3-4.1,9.9
						c-3,3-7.5,4.7-13.1,4.7h-9L525.5,4.7z M528.3,25.9c3.4,0.1,6.7-1.1,9.2-3.4c1.8-1.8,2.8-4.4,2.8-7c0.1-1.7-0.6-3.4-1.8-4.6
						c-1.3-1.3-3.5-2.1-6.6-2.1h-3.1l-4.7,17.1H528.3z"/>
					<path id="パス_320-2" class="st0" d="M558.8,26.8c1.8,0,3.5-0.7,4.9-1.8l2.1,2.8c-2.1,1.7-4.7,2.7-7.4,2.6
						c-5.3,0-8.6-3.2-8.6-8.3c0-5.6,4.6-11.5,11.2-11.5c4.9,0,7.6,3.2,7.6,7.4c0,1.4-0.3,2.8-0.8,4.1h-13.8
						C553.9,24.9,555.6,26.8,558.8,26.8 M564.2,19c0.1-0.4,0.2-0.9,0.2-1.3c0.1-1.9-1.3-3.5-3.2-3.6c-0.2,0-0.4,0-0.6,0
						c-2.9,0.1-5.5,2.1-6.3,4.9L564.2,19z"/>
					<path id="パス_321-2" class="st0" d="M571.4,26.9l2.6-2.7c1.6,1.7,3.8,2.7,6.1,2.7c1.7,0,3.1-0.9,3.1-2.3
						c0-0.9-0.9-1.6-2.8-2.4c-3.2-1.3-5.5-2.5-5.5-5.4c0-3.6,2.9-6.3,7.5-6.3c2.7,0,5.2,1,7.3,2.7l-2.4,2.8c-1.5-1.3-3.3-2-5.2-2.1
						c-1.9,0-2.9,0.9-2.9,2.2c0,1,0.9,1.6,3,2.5c2.9,1.2,5.2,2.6,5.2,5.3c0,3.9-3.3,6.4-7.6,6.4C576.6,30.4,573.6,29.1,571.4,26.9"
						/>
					<path id="パス_322-2" class="st0" d="M597.6,10.9h4.4l-5.1,19h-4.4L597.6,10.9z M599.3,3.8h4.7L602.9,8h-4.7L599.3,3.8z"/>
					<path id="パス_323-2" class="st0" d="M603.6,32.8l2.4-3c2,1.5,4.5,2.4,7.1,2.4c1.7,0.1,3.4-0.5,4.6-1.7c1-1.1,1.7-2.4,2-3.9
						l0.3-1.2c-1.7,1.8-4,2.9-6.5,2.9c-3.7,0-7.3-2.4-7.3-6.9c0-5.9,4.6-10.8,10.5-11c2.7-0.1,5.2,1.4,6.3,3.8l0.9-3.4h4.4
						l-4.2,15.7c-0.9,3.5-1.8,5-3.2,6.5c-1.8,1.8-4.1,2.7-7.5,2.7C609.9,35.8,606.5,34.8,603.6,32.8 M621.8,18.5
						c0-2.4-1.8-4.2-4.6-4.2c-3.6,0.1-6.4,3-6.4,6.6c0,2.7,1.9,4.1,4.4,4.1C618.7,24.8,621.6,22,621.8,18.5"/>
					<path id="パス_324-2" class="st0" d="M635.9,10.9h4.4l-0.7,2.4c1.5-1.7,3.5-2.7,5.8-2.8c3.5,0,5.8,2.2,5.8,5.7
						c-0.1,1.1-0.3,2.3-0.6,3.4l-2.7,10.4h-4.4l2.8-10.6c0.2-0.6,0.3-1.3,0.3-1.9c0-1.9-1.2-3-3.3-3c-2.4,0-4.5,1.9-5.2,4.8
						l-2.9,10.7h-4.4L635.9,10.9z"/>
					<path id="パス_325-2" class="st0" d="M684.2,4.5h4.2l4.3,25.4h-4.5l-1-6.1h-11.9l-4.2,6.1h-4.8L684.2,4.5z M686.6,19.9
						L685,9.7L678,19.9H686.6z"/>
					<path id="パス_326-2" class="st0" d="M705.2,4.7h9.1c3.5,0,6,0.8,7.6,2.4c1.2,1.3,1.9,3,1.8,4.8c0.1,2.2-0.8,4.2-2.3,5.8
						c-1.7,1.6-3.9,2.7-6.3,3l4.7,9.2h-5.1l-4.3-8.8h-5.3l-2.3,8.8h-4.5L705.2,4.7z M712,17.2c2.7,0,4.8-0.7,5.9-1.9
						c0.8-0.8,1.3-1.9,1.3-3c0-0.9-0.3-1.7-0.9-2.3c-0.8-0.8-2.2-1.2-4.2-1.2h-5.5l-2.3,8.5L712,17.2z"/>
					<path id="パス_327-2" class="st0" d="M736.9,8.8h-8l1.1-4.1h20.5l-1.1,4.1h-8l-5.7,21.1h-4.4L736.9,8.8z"/>
					<path id="パス_328-2" class="st0" d="M749.6,25.6l3.3-2.8c1.8,2.3,4.6,3.6,7.6,3.6c2.8,0,4.9-1.4,4.9-3.5
						c0-1.5-1-2.4-4.7-3.8c-3.9-1.5-6.5-3.3-6.5-6.8c0-4.8,4.3-7.9,9.7-7.9c3.5-0.2,6.9,1.2,9.3,3.8l-3.1,3c-1.7-1.8-4-2.9-6.5-2.9
						c-3,0-4.7,1.6-4.7,3.3c0,1.6,1.3,2.4,4.9,3.9c3.9,1.5,6.3,3.3,6.3,6.8c0,4.9-4.5,8.1-9.8,8.1C755.5,30.3,751.9,28.6,749.6,25.6
						"/>
					<path id="パス_329-2" class="st0" d="M826,4.3v1.7h-9.3v24h-4.3v-24h-9.3V4.3H826z"/>
					<path id="パス_330-2" class="st0" d="M837.8,30.4c-1.4,0-2.9-0.3-4.2-0.8c-1.2-0.5-2.4-1.2-3.3-2.2c-1.9-1.9-3-4.4-3-7.1
						c0-1.4,0.3-2.8,0.8-4.1c0.5-1.2,1.2-2.4,2.2-3.4c0.9-1,2.1-1.7,3.3-2.3c1.3-0.6,2.8-0.8,4.2-0.8c1.4,0,2.8,0.2,4.2,0.8
						c1.2,0.5,2.3,1.2,3.3,2.1c0.9,0.9,1.7,1.9,2.2,3.1c0.5,1.2,0.8,2.5,0.8,3.8c0,1.4-0.3,2.9-0.8,4.2c-0.5,1.3-1.2,2.5-2.2,3.5
						c-0.9,1-2.1,1.8-3.3,2.3C840.6,30.1,839.2,30.4,837.8,30.4 M838.5,28.9c0.8,0,1.5-0.2,2.1-0.6c0.7-0.4,1.2-1,1.7-1.6
						c0.5-0.7,0.9-1.5,1.1-2.4c0.3-0.9,0.4-1.9,0.4-2.8c0-1.4-0.1-2.7-0.4-4c-0.2-1.2-0.6-2.3-1.2-3.3c-0.5-0.9-1.3-1.7-2.2-2.2
						c-1-0.6-2.1-0.8-3.3-0.8c-0.7,0-1.3,0.2-1.9,0.6c-0.6,0.4-1.2,0.9-1.6,1.6c-0.5,0.7-0.9,1.5-1.1,2.3c-0.3,0.9-0.4,1.9-0.4,2.8
						c0,1.4,0.1,2.7,0.5,4.1c0.3,1.2,0.7,2.3,1.3,3.3c0.5,0.9,1.3,1.7,2.1,2.2C836.5,28.6,837.5,28.9,838.5,28.9"/>
					<path id="パス_331-2" class="st0" d="M859.7,18.1l9.9-8h2.6l-8.9,7.2l11,12.6h-5.2l-9.4-10.8v10.8h-3.9V1.1l2.8-1.1h1.1
						L859.7,18.1z"/>
					<path id="パス_332-2" class="st0" d="M879,34.6c0.2,0.1,0.3,0.2,0.5,0.3c0.2,0.1,0.4,0.2,0.6,0.3c0.2,0.1,0.5,0.2,0.7,0.2
						c0.3,0.1,0.6,0.1,0.9,0.1c0.4,0,0.8-0.1,1.2-0.3c0.4-0.2,0.7-0.5,1-0.9c0.3-0.4,0.6-0.7,0.8-1.1c0.2-0.4,0.4-0.8,0.6-1.2l1.3-3
						l-10.1-18.9h4.5l7.6,14.3l6.3-14.3h2.1l-10.1,23.3c-0.4,0.9-0.9,1.7-1.5,2.5c-0.5,0.7-1.1,1.3-1.8,1.8c-0.6,0.4-1.2,0.8-1.9,1
						c-0.6,0.2-1.3,0.3-1.9,0.3c-0.5,0-0.9-0.1-1.4-0.2c-0.4-0.1-0.8-0.3-1.1-0.6L879,34.6z"/>
					<path id="パス_333-2" class="st0" d="M911.6,30.4c-1.4,0-2.9-0.3-4.2-0.8c-1.2-0.5-2.4-1.2-3.3-2.2c-1.9-1.9-3-4.4-3-7.1
						c0-1.4,0.3-2.8,0.8-4.1c0.5-1.2,1.2-2.4,2.2-3.4c0.9-1,2.1-1.7,3.3-2.3c1.3-0.6,2.8-0.8,4.2-0.8c1.4,0,2.8,0.2,4.2,0.8
						c1.2,0.5,2.3,1.2,3.3,2.1c0.9,0.9,1.7,1.9,2.2,3.1c0.5,1.2,0.8,2.5,0.8,3.8c0,1.4-0.3,2.9-0.8,4.2c-0.5,1.3-1.2,2.5-2.2,3.5
						c-0.9,1-2.1,1.8-3.3,2.3C914.4,30.1,913,30.4,911.6,30.4 M912.3,28.9c0.8,0,1.5-0.2,2.1-0.6c0.7-0.4,1.2-1,1.7-1.6
						c0.5-0.7,0.9-1.5,1.1-2.4c0.3-0.9,0.4-1.9,0.4-2.8c0-1.4-0.1-2.7-0.4-4c-0.2-1.2-0.6-2.3-1.2-3.3c-0.5-0.9-1.3-1.7-2.2-2.2
						c-1-0.6-2.1-0.8-3.3-0.8c-0.7,0-1.3,0.2-1.9,0.6c-0.6,0.4-1.2,0.9-1.6,1.6c-0.5,0.7-0.9,1.5-1.1,2.3c-0.3,0.9-0.4,1.9-0.4,2.8
						c0,1.4,0.1,2.7,0.5,4.1c0.3,1.2,0.7,2.3,1.3,3.3c0.5,0.9,1.3,1.7,2.1,2.2C910.3,28.6,911.3,28.9,912.3,28.9"/>
					<path id="パス_334-2" class="st0" d="M940.5,4.3h8.6c2.3,0,4.6,0.2,6.8,0.7c1.7,0.4,3.4,1.2,4.7,2.4c1.4,1.2,2.5,2.6,3.3,4.3
						c0.7,1.6,1.1,3.4,1.1,5.2c0,1.7-0.3,3.5-1,5.1c-0.6,1.6-1.6,3-2.9,4.2c-1.4,1.2-2.9,2.2-4.7,2.8c-2,0.7-4.2,1.1-6.4,1h-9.6
						L940.5,4.3z M944.8,28h4.6c1.4,0,2.8-0.2,4.1-0.7c1.3-0.5,2.4-1.2,3.3-2.1c1-1,1.7-2.2,2.2-3.5c0.6-1.5,0.9-3.1,0.8-4.8
						c0-1.5-0.2-3-0.8-4.4c-0.5-1.3-1.2-2.4-2.2-3.4c-0.9-1-2.1-1.7-3.3-2.2c-1.3-0.5-2.8-0.8-4.2-0.8h-4.6V28z"/>
					<path id="パス_335-2" class="st0" d="M980.7,30.4c-1.3,0-2.6-0.2-3.8-0.8c-1.1-0.5-2.2-1.2-3.1-2.1c-0.9-0.9-1.6-1.9-2.1-3.1
						c-0.5-1.2-0.8-2.4-0.8-3.7c0-1.5,0.2-3,0.7-4.4c0.4-1.3,1.1-2.5,2-3.5c0.8-1,1.9-1.8,3.1-2.3c1.3-0.6,2.6-0.9,4-0.8
						c1.2,0,2.4,0.2,3.6,0.7c1,0.4,2,1.1,2.8,1.8c0.8,0.8,1.4,1.7,1.8,2.7c0.4,1,0.7,2.1,0.6,3.2h-14.8c0,1.3,0.2,2.5,0.5,3.7
						c0.3,1.1,0.8,2.1,1.4,2.9c0.6,0.8,1.3,1.5,2.2,1.9c0.9,0.5,1.8,0.7,2.8,0.7c0.8,0,1.7-0.1,2.5-0.4c0.8-0.3,1.5-0.6,2.1-1.1
						c0.6-0.4,1.2-1,1.6-1.5c0.4-0.5,0.7-1.1,0.9-1.8l1.1,0.5c-0.3,1-0.8,2-1.4,2.9c-0.6,0.9-1.4,1.7-2.2,2.3
						c-0.8,0.7-1.8,1.2-2.8,1.6C982.8,30.2,981.7,30.4,980.7,30.4 M984.6,16.5c0-0.7-0.1-1.4-0.4-2.1c-0.5-1.3-1.5-2.3-2.7-2.8
						c-0.6-0.3-1.3-0.4-2-0.4c-0.6,0-1.2,0.1-1.7,0.4c-0.5,0.3-1,0.6-1.5,1.1c-0.4,0.5-0.8,1.1-1.1,1.7c-0.3,0.7-0.4,1.4-0.5,2.1
						L984.6,16.5z"/>
					<path id="パス_336-2" class="st0" d="M1003.2,29c0.5,0,1-0.1,1.5-0.2c0.4-0.1,0.8-0.4,1.2-0.6c0.3-0.3,0.6-0.6,0.8-0.9
						c0.2-0.3,0.3-0.7,0.3-1.1c0-0.6-0.1-1.1-0.5-1.6c-0.3-0.5-0.7-0.9-1.2-1.2c-0.5-0.4-1.1-0.7-1.7-1c-0.6-0.3-1.3-0.6-1.9-0.9
						c-0.7-0.3-1.3-0.7-1.9-1c-0.6-0.3-1.2-0.8-1.7-1.2c-0.5-0.5-0.9-1-1.2-1.7c-0.3-0.7-0.5-1.4-0.5-2.2c0-0.8,0.2-1.5,0.5-2.2
						c0.3-0.7,0.8-1.3,1.4-1.8c0.6-0.5,1.4-0.9,2.1-1.2c0.9-0.3,1.8-0.4,2.7-0.4c0.6,0,1.2,0,1.8,0.1c0.6,0.1,1.1,0.3,1.7,0.5
						c0.6,0.3,1.1,0.7,1.6,1.1c0.6,0.6,1.2,1.2,1.7,1.9l-1.5,1.3c-0.6-1.1-1.5-2-2.5-2.7c-0.9-0.6-1.9-0.9-3-0.9
						c-0.5,0-1,0.1-1.5,0.2c-0.4,0.1-0.8,0.3-1.2,0.6c-0.3,0.2-0.6,0.5-0.8,0.8c-0.2,0.3-0.3,0.7-0.3,1c0,0.6,0.2,1.1,0.5,1.5
						c0.4,0.5,0.8,0.9,1.3,1.2c0.6,0.4,1.2,0.7,1.8,1c0.7,0.3,1.4,0.6,2.1,0.9c0.7,0.3,1.4,0.6,2.1,1c0.7,0.3,1.3,0.8,1.8,1.2
						c0.5,0.5,1,1,1.3,1.6c0.3,0.7,0.5,1.4,0.5,2.2c0,0.8-0.2,1.6-0.5,2.4c-0.3,0.7-0.8,1.4-1.4,1.9c-0.7,0.6-1.5,1-2.4,1.3
						c-1.1,0.3-2.2,0.5-3.3,0.5c-0.6,0-1.2,0-1.8-0.1c-0.6-0.1-1.3-0.3-1.8-0.5c-0.7-0.3-1.3-0.7-1.9-1.1c-0.7-0.5-1.3-1.2-1.8-1.9
						l1.6-1.5c0.4,0.6,0.9,1.2,1.4,1.7c0.4,0.4,0.9,0.8,1.3,1.2c0.4,0.3,0.9,0.5,1.4,0.7C1002.2,28.9,1002.7,29,1003.2,29"/>
					<path id="パス_337-2" class="st0" d="M1017.9,2.5c0-0.3,0.1-0.6,0.2-0.9c0.1-0.3,0.3-0.5,0.5-0.7c0.2-0.2,0.4-0.4,0.7-0.5
						c0.6-0.2,1.2-0.2,1.7,0c0.3,0.1,0.5,0.3,0.7,0.5c0.2,0.2,0.4,0.4,0.5,0.7c0.1,0.3,0.2,0.6,0.2,0.9c0,0.3-0.1,0.6-0.2,0.9
						c-0.1,0.3-0.3,0.5-0.5,0.7c-0.2,0.2-0.4,0.4-0.7,0.5c-0.6,0.2-1.2,0.2-1.7,0c-0.3-0.1-0.5-0.3-0.7-0.5
						c-0.2-0.2-0.4-0.4-0.5-0.7C1018,3.1,1017.9,2.8,1017.9,2.5 M1018.2,10.9l2.8-1.1h1.1v20.2h-3.9V10.9z"/>
					<path id="パス_338-2" class="st0" d="M1049.6,11.1v1.7h-3.8c0.4,0.6,0.7,1.2,0.9,1.8c0.2,0.6,0.4,1.3,0.4,2
						c0,1-0.2,1.9-0.7,2.8c-0.5,0.9-1.1,1.6-1.9,2.2c-0.9,0.6-1.9,1.1-2.9,1.4c-1.2,0.3-2.5,0.5-3.7,0.5c-0.5,0-1,0-1.5-0.1
						c-0.5-0.1-0.9-0.2-1.4-0.3c-0.4,0.3-0.7,0.7-0.9,1.1c-0.2,0.4-0.4,0.8-0.4,1.2c0,0.4,0.3,0.8,0.7,0.9c0.6,0.3,1.2,0.4,1.8,0.4
						l7.3,0.3c1,0,2,0.2,2.9,0.4c0.7,0.2,1.3,0.5,1.9,0.9c0.4,0.4,0.8,0.8,1,1.3c0.2,0.6,0.3,1.1,0.3,1.7c0,1.1-0.3,2.2-0.8,3.1
						c-0.6,1-1.4,1.8-2.3,2.4c-1.1,0.7-2.4,1.2-3.7,1.5c-1.6,0.4-3.3,0.6-4.9,0.5c-1.4,0-2.9-0.1-4.3-0.3c-1-0.1-2.1-0.4-3.1-0.8
						c-0.7-0.3-1.3-0.7-1.8-1.3c-0.4-0.5-0.6-1.1-0.6-1.7c0-0.5,0.1-1.1,0.4-1.6c0.3-0.5,0.6-1,1-1.4c0.4-0.5,0.9-0.9,1.4-1.3
						c0.5-0.4,1-0.8,1.5-1.2c-0.3-0.1-0.7-0.3-1-0.4c-0.3-0.1-0.6-0.3-0.8-0.6c-0.2-0.2-0.4-0.4-0.5-0.7c-0.1-0.2-0.2-0.5-0.2-0.8
						c0-0.4,0.1-0.9,0.3-1.2c0.2-0.5,0.5-0.9,0.9-1.2c0.4-0.4,0.8-0.8,1.3-1.1c0.5-0.3,1-0.6,1.6-0.8c-1.2-0.5-2.3-1.3-3.1-2.4
						c-0.8-1-1.2-2.2-1.1-3.5c0-1,0.2-1.9,0.7-2.7c0.5-0.9,1.1-1.6,1.9-2.3c0.8-0.7,1.8-1.2,2.8-1.5c1.1-0.4,2.3-0.6,3.4-0.6
						c0.6,0,1.2,0,1.8,0.1c0.5,0.1,1.1,0.2,1.6,0.3c0.4,0.1,0.9,0.3,1.3,0.4c0.3,0.1,0.6,0.3,0.9,0.5L1049.6,11.1z M1033.7,29.8
						c-0.3,0.2-0.5,0.5-0.8,0.7c-0.2,0.3-0.4,0.5-0.6,0.9c-0.2,0.3-0.3,0.6-0.3,0.9c-0.1,0.3-0.1,0.6-0.1,0.9c0,0.5,0.2,0.9,0.5,1.3
						c0.4,0.5,0.9,0.8,1.4,1.1c0.7,0.3,1.5,0.6,2.3,0.7c1.1,0.2,2.2,0.3,3.3,0.3c1.2,0,2.4-0.1,3.5-0.3c0.9-0.2,1.8-0.4,2.7-0.8
						c0.6-0.3,1.2-0.7,1.7-1.1c0.3-0.3,0.5-0.8,0.6-1.3c0-0.4-0.1-0.8-0.3-1.1c-0.3-0.3-0.6-0.6-1-0.8c-0.5-0.2-1-0.4-1.5-0.5
						c-0.7-0.1-1.4-0.2-2.1-0.2c-1,0-1.9,0-2.9-0.1s-1.9-0.1-2.7-0.2c-0.8-0.1-1.6-0.1-2.2-0.2C1034.5,29.9,1034,29.8,1033.7,29.8
						 M1038.7,22.5c0.6,0,1.1-0.1,1.6-0.4c0.5-0.3,1-0.6,1.4-1c0.8-0.9,1.3-2.2,1.3-3.4c0-0.9-0.1-1.8-0.4-2.7
						c-0.2-0.8-0.6-1.5-1.1-2.2c-0.4-0.6-1-1.1-1.6-1.4c-0.6-0.3-1.2-0.5-1.9-0.5c-0.6,0-1.2,0.1-1.7,0.4c-0.5,0.3-0.9,0.7-1.2,1.1
						c-0.3,0.5-0.6,1.1-0.7,1.7c-0.2,0.7-0.2,1.4-0.2,2.1c0,0.8,0.1,1.7,0.3,2.5c0.2,0.7,0.5,1.4,0.9,2c0.4,0.5,0.9,1,1.4,1.3
						C1037.4,22.3,1038,22.5,1038.7,22.5"/>
					<path id="パス_339-2" class="st0" d="M1057.7,9.7h1.1v4c1.1-1.2,2.3-2.2,3.7-3c1.2-0.6,2.6-1,3.9-1c0.7,0,1.3,0.2,1.9,0.5
						c0.6,0.3,1.1,0.7,1.6,1.3c0.5,0.6,0.8,1.2,1.1,1.9c0.3,0.8,0.4,1.5,0.4,2.3v14.2h-3.9V16.4c0-0.6-0.1-1.2-0.2-1.7
						c-0.1-0.5-0.4-0.9-0.7-1.2c-0.3-0.3-0.6-0.6-1-0.8c-0.4-0.2-0.8-0.3-1.3-0.3c-0.4,0-0.9,0.1-1.3,0.2c-0.5,0.2-1,0.4-1.4,0.6
						c-0.5,0.3-1,0.6-1.4,0.9c-0.5,0.4-0.9,0.7-1.4,1.2v14.7h-3.9V10.8L1057.7,9.7z"/>
					<path id="パス_340-2" class="st0" d="M1101.4,3.7l12.1,26.2h-4.4l-3.9-8.6h-11l-4,8.6h-2.2l12.4-26.2H1101.4z M1094.9,19.7
						h9.5l-4.7-10.2L1094.9,19.7z"/>
					<path id="パス_341-2" class="st0" d="M1119.4,4.3h8.9c1.4,0,2.7,0.1,4,0.5c1,0.3,2,0.7,2.9,1.4c0.7,0.6,1.3,1.3,1.8,2.1
						c0.4,0.8,0.6,1.8,0.6,2.7c0,0.8-0.1,1.5-0.5,2.2c-0.3,0.7-0.7,1.3-1.3,1.9c-0.6,0.6-1.3,1.1-2,1.5c-0.8,0.4-1.7,0.7-2.6,1
						l9.3,12.4h-5l-8.9-12.1h-3v12.1h-4.3L1119.4,4.3z M1123.7,16.6h2.5c0.9,0,1.8-0.1,2.7-0.4c0.8-0.2,1.5-0.6,2.1-1.1
						c1.2-0.9,1.9-2.4,1.9-4c0-0.7-0.1-1.5-0.4-2.1c-0.3-0.6-0.6-1.2-1.1-1.7c-0.5-0.5-1.1-0.8-1.7-1.1c-0.7-0.3-1.4-0.4-2.2-0.4
						h-3.8L1123.7,16.6z"/>
					<path id="パス_342-2" class="st0" d="M1166.7,4.3v1.7h-9.3v24h-4.3v-24h-9.3V4.3H1166.7z"/>
					<path id="パス_343-2" class="st0" d="M1181.7,28.9c0.6,0,1.3-0.1,1.9-0.3c0.6-0.2,1.2-0.4,1.7-0.8c0.5-0.3,0.9-0.8,1.2-1.3
						c0.3-0.5,0.5-1.1,0.4-1.7c0-0.7-0.2-1.5-0.6-2.1c-0.4-0.6-1-1.2-1.6-1.7c-0.7-0.5-1.5-1-2.3-1.4c-0.8-0.5-1.7-0.9-2.6-1.4
						c-0.9-0.5-1.7-0.9-2.6-1.4c-0.8-0.5-1.6-1-2.3-1.7c-0.6-0.6-1.2-1.3-1.6-2.1c-0.4-0.8-0.6-1.7-0.6-2.6c0-0.9,0.2-1.9,0.5-2.7
						c0.4-0.8,0.9-1.6,1.6-2.2c0.8-0.6,1.7-1.1,2.6-1.4c1.2-0.4,2.4-0.5,3.6-0.5c1.1,0,2.2,0.1,3.3,0.4c0.9,0.2,1.7,0.6,2.5,1.1
						c0.7,0.5,1.3,1.1,1.8,1.9c0.5,0.8,0.9,1.6,1.2,2.6l-2.2,1c-0.2-0.8-0.6-1.5-1-2.2c-0.4-0.6-0.9-1.2-1.4-1.7
						c-0.6-0.5-1.2-0.8-1.9-1.1c-0.8-0.3-1.6-0.4-2.5-0.4c-0.7,0-1.4,0.1-2.1,0.3c-0.6,0.2-1.1,0.5-1.5,0.9
						c-0.4,0.3-0.7,0.8-0.9,1.2c-0.2,0.4-0.3,0.9-0.3,1.4c0,0.7,0.2,1.3,0.6,1.8c0.5,0.6,1,1.1,1.6,1.6c0.7,0.5,1.5,1,2.3,1.4
						c0.9,0.5,1.8,0.9,2.7,1.4c0.9,0.5,1.8,1,2.7,1.5c0.8,0.5,1.6,1.1,2.3,1.7c0.7,0.6,1.2,1.3,1.6,2c0.4,0.7,0.6,1.6,0.6,2.4
						c0,1-0.2,2-0.6,2.9c-0.4,0.9-1,1.7-1.7,2.3c-0.8,0.7-1.8,1.2-2.9,1.6c-1.3,0.4-2.7,0.6-4,0.6c-1.1,0-2.2-0.1-3.3-0.4
						c-0.9-0.2-1.8-0.6-2.6-1.2c-0.7-0.5-1.4-1.2-1.9-1.9c-0.6-0.8-1-1.6-1.3-2.5l2.3-0.9c0.3,0.8,0.6,1.6,1.1,2.2
						c0.4,0.6,1,1.2,1.6,1.7c0.6,0.5,1.3,0.8,2,1.1C1180.1,28.8,1180.9,28.9,1181.7,28.9"/>
					<path id="パス_344-2" class="st0" d="M1241.5,4.3v1.7h-9.3v24h-4.3v-24h-9.3V4.3H1241.5z"/>
					<path id="パス_345-2" class="st0" d="M1253.3,30.4c-1.4,0-2.9-0.3-4.2-0.8c-1.2-0.5-2.4-1.2-3.3-2.2c-1.9-1.9-3-4.4-3-7.1
						c0-1.4,0.3-2.8,0.8-4.1c0.5-1.2,1.2-2.4,2.2-3.4c0.9-1,2.1-1.7,3.3-2.3c1.3-0.6,2.8-0.8,4.2-0.8c1.4,0,2.8,0.2,4.2,0.8
						c1.2,0.5,2.3,1.2,3.3,2.1c0.9,0.9,1.7,1.9,2.2,3.1c0.5,1.2,0.8,2.5,0.8,3.8c0,1.4-0.3,2.9-0.8,4.2c-0.5,1.3-1.2,2.5-2.2,3.5
						c-0.9,1-2.1,1.8-3.3,2.3C1256.2,30.1,1254.7,30.4,1253.3,30.4 M1254,28.9c0.8,0,1.5-0.2,2.1-0.6c0.7-0.4,1.2-1,1.7-1.6
						c0.5-0.7,0.9-1.5,1.1-2.4c0.3-0.9,0.4-1.9,0.4-2.8c0-1.4-0.1-2.7-0.4-4c-0.2-1.2-0.6-2.3-1.2-3.3c-0.5-0.9-1.3-1.7-2.2-2.2
						c-1-0.6-2.1-0.8-3.3-0.8c-0.7,0-1.3,0.2-1.9,0.6c-0.6,0.4-1.2,0.9-1.6,1.6c-0.5,0.7-0.9,1.5-1.1,2.3c-0.3,0.9-0.4,1.9-0.4,2.8
						c0,1.4,0.1,2.7,0.4,4.1c0.3,1.2,0.7,2.3,1.3,3.3c0.5,0.9,1.3,1.7,2.1,2.2C1252,28.6,1253,28.9,1254,28.9"/>
					<path id="パス_346-2" class="st0" d="M1275.3,18.1l10-8h2.6l-8.9,7.2l11,12.6h-5.2l-9.4-10.8v10.8h-3.9V1.1l2.8-1.1h1.1
						L1275.3,18.1z"/>
					<path id="パス_347-2" class="st0" d="M1294.5,34.6c0.2,0.1,0.3,0.2,0.5,0.3c0.2,0.1,0.4,0.2,0.6,0.3c0.2,0.1,0.5,0.2,0.7,0.2
						c0.3,0.1,0.6,0.1,0.9,0.1c0.4,0,0.8-0.1,1.2-0.3c0.4-0.2,0.7-0.5,1-0.9c0.3-0.4,0.6-0.7,0.8-1.1c0.2-0.4,0.4-0.8,0.6-1.2l1.3-3
						L1292,10.1h4.5l7.6,14.3l6.2-14.3h2.1l-10.1,23.3c-0.4,0.9-0.9,1.7-1.5,2.5c-0.5,0.7-1.1,1.3-1.8,1.8c-0.6,0.4-1.2,0.8-1.9,1
						c-0.6,0.2-1.3,0.3-1.9,0.3c-0.5,0-0.9-0.1-1.4-0.2c-0.4-0.1-0.8-0.3-1.1-0.6L1294.5,34.6z"/>
					<path id="パス_348-2" class="st0" d="M1327.1,30.4c-1.4,0-2.9-0.3-4.2-0.8c-1.2-0.5-2.4-1.2-3.3-2.2c-1.9-1.9-3-4.4-3-7.1
						c0-1.4,0.3-2.8,0.8-4.1c0.5-1.2,1.2-2.4,2.2-3.4c0.9-1,2.1-1.7,3.3-2.3c1.3-0.6,2.8-0.8,4.2-0.8c1.4,0,2.8,0.2,4.2,0.8
						c1.2,0.5,2.3,1.2,3.3,2.1c0.9,0.9,1.7,1.9,2.2,3.1c0.5,1.2,0.8,2.5,0.8,3.8c0,1.4-0.3,2.9-0.8,4.2c-0.5,1.3-1.2,2.5-2.2,3.5
						c-0.9,1-2.1,1.8-3.3,2.3C1329.9,30.1,1328.5,30.4,1327.1,30.4 M1327.8,28.9c0.8,0,1.5-0.2,2.1-0.6c0.7-0.4,1.2-1,1.7-1.6
						c0.5-0.7,0.8-1.5,1.1-2.4c0.3-0.9,0.4-1.9,0.4-2.8c0-1.4-0.1-2.7-0.4-4c-0.2-1.2-0.6-2.3-1.2-3.3c-0.5-0.9-1.3-1.7-2.2-2.2
						c-1-0.6-2.1-0.8-3.3-0.8c-0.7,0-1.3,0.2-1.9,0.6c-0.6,0.4-1.2,0.9-1.6,1.6c-0.5,0.7-0.9,1.5-1.1,2.3c-0.3,0.9-0.4,1.9-0.4,2.8
						c0,1.4,0.1,2.7,0.5,4.1c0.3,1.2,0.7,2.3,1.3,3.3c0.5,0.9,1.3,1.7,2.1,2.2C1325.8,28.6,1326.8,28.9,1327.8,28.9"/>
					<path id="パス_349-2" class="st0" d="M1356,4.3h8.6c2.3,0,4.6,0.2,6.8,0.7c1.7,0.4,3.4,1.2,4.7,2.4c1.4,1.2,2.5,2.6,3.3,4.3
						c0.7,1.6,1.1,3.4,1.1,5.2c0,1.7-0.3,3.5-1,5.1c-0.6,1.6-1.6,3-2.9,4.2c-1.4,1.2-2.9,2.2-4.7,2.8c-2,0.7-4.2,1.1-6.4,1h-9.6
						L1356,4.3z M1360.3,28h4.6c1.4,0,2.8-0.2,4.1-0.7c1.3-0.5,2.4-1.2,3.3-2.1c1-1,1.7-2.2,2.2-3.5c0.6-1.5,0.9-3.1,0.8-4.8
						c0-1.5-0.2-3-0.8-4.4c-0.5-1.3-1.2-2.4-2.2-3.4c-0.9-1-2.1-1.7-3.3-2.2c-1.3-0.5-2.8-0.8-4.2-0.8h-4.6L1360.3,28z"/>
					<path id="パス_350-2" class="st0" d="M1396.2,30.4c-1.3,0-2.6-0.2-3.8-0.8c-1.1-0.5-2.2-1.2-3.1-2.1
						c-0.9-0.9-1.6-1.9-2.1-3.1c-0.5-1.2-0.8-2.4-0.8-3.7c0-1.5,0.2-3,0.7-4.4c0.4-1.3,1.1-2.5,2-3.5c0.8-1,1.9-1.8,3.1-2.3
						c1.3-0.6,2.6-0.9,4-0.8c1.2,0,2.4,0.2,3.6,0.7c1,0.4,2,1.1,2.8,1.8c0.8,0.8,1.4,1.7,1.8,2.7c0.4,1,0.6,2.1,0.6,3.2h-14.8
						c0,1.3,0.2,2.5,0.5,3.7c0.3,1.1,0.8,2.1,1.4,2.9c0.6,0.8,1.3,1.5,2.2,1.9c0.9,0.5,1.8,0.7,2.8,0.7c0.8,0,1.7-0.1,2.5-0.4
						c0.8-0.3,1.5-0.6,2.1-1.1c0.6-0.4,1.2-1,1.6-1.5c0.4-0.5,0.7-1.1,0.9-1.8l1.1,0.5c-0.3,1-0.8,2-1.4,2.9
						c-0.6,0.9-1.4,1.7-2.2,2.3c-0.8,0.7-1.8,1.2-2.8,1.6C1398.3,30.2,1397.3,30.4,1396.2,30.4 M1400.1,16.5c0-0.7-0.1-1.4-0.4-2.1
						c-0.2-0.6-0.6-1.2-1.1-1.7c-0.5-0.5-1-0.8-1.6-1.1c-0.6-0.3-1.3-0.4-2-0.4c-0.6,0-1.2,0.1-1.7,0.4c-0.5,0.3-1,0.6-1.4,1.1
						c-0.4,0.5-0.8,1.1-1.1,1.7c-0.3,0.7-0.4,1.4-0.5,2.1L1400.1,16.5z"/>
					<path id="パス_351-2" class="st0" d="M1418.8,29c0.5,0,1-0.1,1.5-0.2c0.4-0.1,0.8-0.4,1.2-0.6c0.3-0.3,0.6-0.6,0.8-0.9
						c0.2-0.3,0.3-0.7,0.3-1.1c0-0.6-0.1-1.1-0.5-1.6c-0.3-0.5-0.7-0.9-1.2-1.2c-0.5-0.4-1.1-0.7-1.7-1c-0.6-0.3-1.3-0.6-1.9-0.9
						s-1.3-0.7-1.9-1c-0.6-0.3-1.2-0.8-1.7-1.2c-0.5-0.5-0.9-1-1.2-1.7c-0.3-0.7-0.5-1.4-0.5-2.2c0-0.8,0.2-1.5,0.5-2.2
						c0.3-0.7,0.8-1.3,1.4-1.8c0.6-0.5,1.4-0.9,2.1-1.2c0.9-0.3,1.8-0.4,2.7-0.4c0.6,0,1.2,0,1.8,0.1c0.6,0.1,1.1,0.3,1.7,0.5
						c0.6,0.3,1.2,0.7,1.6,1.1c0.6,0.6,1.2,1.2,1.7,1.9l-1.5,1.3c-0.6-1.1-1.5-2-2.5-2.7c-0.9-0.6-1.9-0.9-2.9-0.9
						c-0.5,0-1,0.1-1.5,0.2c-0.4,0.1-0.8,0.3-1.2,0.6c-0.3,0.2-0.6,0.5-0.8,0.8c-0.2,0.3-0.3,0.7-0.3,1c0,0.6,0.2,1.1,0.5,1.5
						c0.4,0.5,0.8,0.9,1.3,1.2c0.6,0.4,1.2,0.7,1.8,1l2.1,0.9c0.7,0.3,1.4,0.6,2.1,1c0.7,0.3,1.3,0.8,1.8,1.2c0.5,0.5,1,1,1.3,1.6
						c0.3,0.7,0.5,1.4,0.5,2.2c0,0.8-0.2,1.6-0.5,2.4c-0.3,0.7-0.8,1.4-1.4,1.9c-0.7,0.6-1.5,1-2.4,1.3c-1.1,0.3-2.2,0.5-3.3,0.5
						c-0.6,0-1.2,0-1.8-0.1c-0.6-0.1-1.3-0.3-1.8-0.5c-0.7-0.3-1.3-0.7-1.9-1.1c-0.7-0.5-1.3-1.2-1.8-1.9l1.6-1.5
						c0.4,0.6,0.9,1.2,1.4,1.7c0.4,0.4,0.9,0.8,1.3,1.2c0.4,0.3,0.9,0.5,1.4,0.7C1417.7,28.9,1418.2,29,1418.8,29"/>
					<path id="パス_352-2" class="st0" d="M1433.5,2.5c0-0.3,0.1-0.6,0.2-0.9c0.1-0.3,0.3-0.5,0.5-0.7c0.2-0.2,0.5-0.4,0.7-0.5
						c0.6-0.2,1.2-0.2,1.7,0c0.3,0.1,0.5,0.3,0.7,0.5c0.2,0.2,0.4,0.4,0.5,0.7c0.1,0.3,0.2,0.6,0.2,0.9c0,0.3-0.1,0.6-0.2,0.9
						c-0.1,0.3-0.3,0.5-0.5,0.7c-0.2,0.2-0.4,0.4-0.7,0.5c-0.6,0.2-1.2,0.2-1.7,0c-0.3-0.1-0.5-0.3-0.7-0.5
						c-0.2-0.2-0.4-0.4-0.5-0.7C1433.5,3.1,1433.5,2.8,1433.5,2.5 M1433.8,10.9l2.8-1.1h1.1v20.2h-3.9V10.9z"/>
					<path id="パス_353-2" class="st0" d="M1465.2,11.1v1.7h-3.8c0.4,0.6,0.7,1.2,0.9,1.8c0.2,0.6,0.4,1.3,0.4,2
						c0,1-0.2,1.9-0.7,2.8c-0.5,0.9-1.1,1.6-1.9,2.2c-0.9,0.6-1.9,1.1-2.9,1.4c-1.2,0.3-2.5,0.5-3.7,0.5c-0.5,0-1,0-1.5-0.1
						c-0.5-0.1-0.9-0.2-1.4-0.3c-0.4,0.3-0.7,0.7-0.9,1.1c-0.2,0.4-0.4,0.8-0.4,1.2c0,0.4,0.3,0.8,0.7,0.9c0.6,0.3,1.2,0.4,1.8,0.4
						l7.3,0.3c1,0,2,0.2,2.9,0.4c0.7,0.2,1.3,0.5,1.9,0.9c0.4,0.4,0.8,0.8,1,1.3c0.2,0.6,0.3,1.1,0.3,1.7c0,1.1-0.3,2.2-0.8,3.1
						c-0.6,1-1.4,1.8-2.3,2.4c-1.1,0.7-2.4,1.2-3.7,1.5c-1.6,0.4-3.3,0.6-4.9,0.5c-1.4,0-2.9-0.1-4.3-0.3c-1-0.1-2.1-0.4-3.1-0.8
						c-0.7-0.3-1.3-0.7-1.8-1.3c-0.4-0.5-0.6-1.1-0.6-1.7c0-0.5,0.1-1.1,0.4-1.6c0.3-0.5,0.6-1,1-1.4c0.4-0.5,0.9-0.9,1.4-1.3
						c0.5-0.4,1-0.8,1.5-1.2c-0.3-0.1-0.7-0.3-1-0.4c-0.3-0.1-0.6-0.3-0.8-0.6c-0.2-0.2-0.4-0.4-0.5-0.7c-0.1-0.2-0.2-0.5-0.2-0.8
						c0-0.4,0.1-0.9,0.3-1.2c0.2-0.5,0.5-0.9,0.9-1.2c0.4-0.4,0.8-0.8,1.3-1.1c0.5-0.3,1-0.6,1.6-0.8c-1.2-0.5-2.3-1.3-3.1-2.4
						c-0.8-1-1.2-2.2-1.1-3.5c0-1,0.2-1.9,0.7-2.7c0.5-0.9,1.1-1.6,1.9-2.3c0.8-0.7,1.8-1.2,2.8-1.5c1.1-0.4,2.3-0.6,3.4-0.6
						c0.6,0,1.2,0,1.8,0.1c0.5,0.1,1.1,0.2,1.6,0.3c0.5,0.1,0.9,0.3,1.3,0.4c0.3,0.1,0.6,0.3,0.9,0.5L1465.2,11.1z M1449.3,29.8
						c-0.3,0.2-0.5,0.5-0.8,0.7c-0.2,0.3-0.4,0.5-0.6,0.9c-0.2,0.3-0.3,0.6-0.4,0.9c-0.1,0.3-0.1,0.6-0.1,0.9c0,0.5,0.2,0.9,0.5,1.3
						c0.4,0.5,0.9,0.8,1.4,1.1c0.7,0.3,1.5,0.6,2.3,0.7c1.1,0.2,2.2,0.3,3.3,0.3c1.2,0,2.4-0.1,3.5-0.3c0.9-0.2,1.8-0.4,2.7-0.8
						c0.6-0.3,1.2-0.7,1.7-1.1c0.3-0.3,0.5-0.8,0.6-1.3c0-0.4-0.1-0.8-0.3-1.1c-0.3-0.3-0.6-0.6-1-0.8c-0.5-0.2-1-0.4-1.5-0.5
						c-0.7-0.1-1.4-0.2-2.1-0.2c-0.9,0-1.9,0-2.9-0.1s-1.9-0.1-2.7-0.2s-1.6-0.1-2.2-0.2S1449.5,29.8,1449.3,29.8 M1454.2,22.5
						c0.6,0,1.1-0.1,1.6-0.4c0.5-0.3,1-0.6,1.4-1c0.4-0.5,0.7-1,0.9-1.5c0.2-0.6,0.4-1.3,0.3-1.9c0-0.9-0.1-1.8-0.4-2.7
						c-0.2-0.8-0.6-1.5-1.1-2.2c-0.4-0.6-1-1.1-1.6-1.4c-0.6-0.3-1.2-0.5-1.9-0.5c-0.6,0-1.2,0.1-1.7,0.4c-0.5,0.3-0.9,0.7-1.2,1.1
						c-0.3,0.5-0.6,1.1-0.7,1.7c-0.2,0.7-0.2,1.4-0.2,2.1c0,0.8,0.1,1.7,0.3,2.5c0.2,0.7,0.5,1.4,0.9,2c0.4,0.5,0.9,1,1.4,1.3
						C1452.9,22.3,1453.5,22.5,1454.2,22.5"/>
					<path id="パス_354-2" class="st0" d="M1473.2,9.7h1.1v4c1.1-1.2,2.3-2.2,3.7-3c1.2-0.6,2.6-1,3.9-1c0.7,0,1.3,0.2,1.9,0.5
						c0.6,0.3,1.1,0.7,1.6,1.3c0.5,0.6,0.8,1.2,1.1,1.9c0.3,0.7,0.4,1.5,0.4,2.3v14.2h-3.9V16.4c0-0.6-0.1-1.2-0.2-1.7
						c-0.1-0.5-0.4-0.9-0.7-1.2c-0.3-0.3-0.6-0.6-1-0.8c-0.4-0.2-0.8-0.3-1.3-0.3c-0.4,0-0.9,0.1-1.3,0.2c-0.5,0.2-1,0.4-1.4,0.6
						c-0.5,0.3-1,0.6-1.4,0.9c-0.5,0.4-0.9,0.7-1.4,1.2v14.7h-3.9V10.8L1473.2,9.7z"/>
					<path id="パス_355-2" class="st0" d="M1516.9,3.7l12.1,26.2h-4.4l-3.9-8.6h-11l-4,8.6h-2.2l12.4-26.2H1516.9z M1510.4,19.7
						h9.5l-4.7-10.2L1510.4,19.7z"/>
					<path id="パス_356-2" class="st0" d="M1534.9,4.3h8.9c1.4,0,2.7,0.1,4,0.5c1,0.3,2,0.7,2.9,1.4c0.7,0.6,1.3,1.3,1.8,2.1
						c0.4,0.8,0.6,1.8,0.6,2.7c0,0.8-0.1,1.5-0.5,2.2c-0.3,0.7-0.7,1.3-1.3,1.9c-0.6,0.6-1.3,1.1-2,1.5c-0.8,0.4-1.7,0.7-2.6,1
						l9.3,12.4h-5l-8.9-12.1h-3v12.1h-4.3L1534.9,4.3z M1539.2,16.6h2.5c0.9,0,1.8-0.1,2.7-0.4c0.8-0.2,1.5-0.6,2.1-1.1
						c0.6-0.5,1.1-1,1.4-1.7c0.3-0.7,0.5-1.5,0.5-2.3c0-0.7-0.1-1.5-0.4-2.1c-0.3-0.6-0.6-1.2-1.1-1.7c-0.5-0.5-1.1-0.8-1.7-1.1
						c-0.7-0.3-1.4-0.4-2.2-0.4h-3.8V16.6z"/>
					<path id="パス_357-2" class="st0" d="M1582.2,4.3v1.7h-9.3v24h-4.3v-24h-9.3V4.3H1582.2z"/>
					<path id="パス_358-2" class="st0" d="M1597.2,28.9c0.6,0,1.3-0.1,1.9-0.3c0.6-0.2,1.2-0.4,1.7-0.8c0.5-0.3,0.9-0.8,1.2-1.3
						c0.3-0.5,0.5-1.1,0.5-1.7c0-0.7-0.2-1.5-0.6-2.1c-0.4-0.6-1-1.2-1.6-1.7c-0.7-0.5-1.5-1-2.3-1.4c-0.8-0.5-1.7-0.9-2.6-1.4
						s-1.7-0.9-2.6-1.4c-0.8-0.5-1.6-1-2.3-1.7c-0.6-0.6-1.2-1.3-1.6-2.1c-0.4-0.8-0.6-1.7-0.6-2.6c0-0.9,0.2-1.9,0.5-2.7
						c0.4-0.8,0.9-1.6,1.6-2.2c0.8-0.6,1.7-1.1,2.6-1.4c1.2-0.4,2.4-0.5,3.6-0.5c1.1,0,2.2,0.1,3.3,0.4c0.9,0.2,1.7,0.6,2.5,1.1
						c0.7,0.5,1.3,1.1,1.8,1.9c0.5,0.8,0.9,1.6,1.2,2.6l-2.2,1c-0.2-0.8-0.6-1.5-1-2.2c-0.4-0.6-0.9-1.2-1.4-1.7
						c-0.6-0.5-1.2-0.8-1.9-1.1c-0.8-0.3-1.6-0.4-2.5-0.4c-0.7,0-1.4,0.1-2.1,0.3c-0.6,0.2-1.1,0.5-1.5,0.9
						c-0.4,0.3-0.7,0.8-0.9,1.2c-0.2,0.4-0.3,0.9-0.3,1.4c0,0.7,0.2,1.3,0.6,1.8c0.5,0.6,1,1.1,1.6,1.6c0.7,0.5,1.5,1,2.3,1.4
						c0.9,0.5,1.8,0.9,2.7,1.4s1.8,1,2.7,1.5c0.8,0.5,1.6,1.1,2.3,1.7c0.7,0.6,1.2,1.3,1.6,2c0.4,0.7,0.6,1.6,0.6,2.4
						c0,1-0.2,2-0.6,2.9c-0.4,0.9-1,1.7-1.7,2.3c-0.8,0.7-1.8,1.2-2.9,1.6c-1.3,0.4-2.7,0.6-4,0.6c-1.1,0-2.2-0.1-3.3-0.4
						c-0.9-0.2-1.8-0.6-2.6-1.2c-0.7-0.5-1.4-1.2-1.9-1.9c-0.6-0.8-1-1.6-1.3-2.5l2.3-0.9c0.2,0.8,0.6,1.6,1.1,2.2
						c0.4,0.6,1,1.2,1.6,1.7c0.6,0.5,1.3,0.8,2,1.1C1595.6,28.8,1596.4,28.9,1597.2,28.9"/>
				</g>
			</g>
		</g>
	</g>
</g>
<g id="グループ_59">
</g>
<g id="グループ_65">
</g>
<g id="グループ_68">
</g>
<g id="グループ_70">
</g>
</svg>
