<?xml version="1.0" encoding="utf-8"?>
<!-- Generator: Adobe Illustrator 26.2.1, SVG Export Plug-In . SVG Version: 6.00 Build 0)  -->
<svg version="1.1" id="レイヤー_1" xmlns="http://www.w3.org/2000/svg" xmlns:xlink="http://www.w3.org/1999/xlink" x="0px"
	 y="0px" viewBox="0 0 520 300" style="enable-background:new 0 0 520 300;" xml:space="preserve">
<style type="text/css">
	.st0{fill:#FFFFFF;}
</style>
<g id="レイヤー_1_00000019640086120238231480000007808116935870913461_">
	<g id="レイヤー_1_00000173135092444417984380000001292149815846662294_">
	</g>
</g>
<g id="グループ_59">
	<g id="グループ_58">
		<g>
			<g id="グループ_57">
				<path id="パス_212" class="st0" d="M179.6,94L179.6,94c-8.8,0-15.8,7.1-15.8,15.8s7.1,15.8,15.8,15.8s15.8-7.1,15.8-15.8
					S188.2,94,179.6,94L179.6,94"/>
				<path id="パス_213" class="st0" d="M179.6,134.6L179.6,134.6c-8.8,0-15.8,7.1-15.8,15.8s7.1,15.8,15.8,15.8
					s15.8-7.1,15.8-15.8C195.4,141.7,188.2,134.6,179.6,134.6L179.6,134.6"/>
				<path id="パス_214" class="st0" d="M179.6,175.3L179.6,175.3c-8.8,0-15.8,7.1-15.8,15.8s7.1,15.8,15.8,15.8
					s15.8-7.1,15.8-15.8S188.2,175.3,179.6,175.3L179.6,175.3"/>
				<path id="パス_215" class="st0" d="M222.9,93.3c-8.8,0-15.8,7.1-15.8,15.8s7.1,15.8,15.8,15.8s15.8-7.1,15.8-15.8
					C238.9,100.4,231.8,93.3,222.9,93.3L222.9,93.3"/>
				<path id="パス_216" class="st0" d="M264.1,105.9L264.1,105.9c-8.8,0-15.8,7.1-15.8,15.8c0,8.8,7.1,15.8,15.8,15.8
					c8.8,0,15.8-7.1,15.8-15.8C280,113,273,105.9,264.1,105.9L264.1,105.9"/>
				<path id="パス_217" class="st0" d="M296.2,166.1c8.8,0,15.8-7.1,15.8-15.8s-7.1-15.8-15.8-15.8s-15.8,7.1-15.8,15.8
					S287.5,166.1,296.2,166.1L296.2,166.1"/>
				<path id="パス_218" class="st0" d="M179.6,256.6L179.6,256.6c-8.8,0-15.8,7.1-15.8,15.8c0,8.7,7.1,15.8,15.8,15.8
					s15.8-7.1,15.8-15.8S188.2,256.6,179.6,256.6L179.6,256.6"/>
				<path id="パス_219" class="st0" d="M179.6,215.9L179.6,215.9c-8.8,0-15.8,7.1-15.8,15.8s7.1,15.8,15.8,15.8
					s15.8-7.1,15.8-15.8S188.2,215.9,179.6,215.9L179.6,215.9"/>
				<path id="パス_220" class="st0" d="M222.9,255.9c-8.8,0-15.8,7.1-15.8,15.8s7.1,15.8,15.8,15.8c8.8,0,15.8-7.1,15.8-15.8
					C238.9,263,231.8,255.9,222.9,255.9L222.9,255.9"/>
				<path id="パス_221" class="st0" d="M262.5,244.3c-8.8,0-15.8,7.1-15.8,15.8c0,8.7,7.1,15.8,15.8,15.8
					c8.7,0,15.8-7.1,15.8-15.8C278.4,251.4,271.2,244.3,262.5,244.3L262.5,244.3"/>
				<path id="パス_222" class="st0" d="M296.2,214.9c-8.8,0-15.8,7.1-15.8,15.8s7.1,15.8,15.8,15.8c8.7,0,15.8-7.1,15.8-15.8
					C312.1,222,305,214.9,296.2,214.9L296.2,214.9"/>
				<path id="パス_223" class="st0" d="M303.6,174.6c-8.8,0-15.8,7.1-15.8,15.8s7.1,15.8,15.8,15.8s15.8-7.1,15.8-15.8
					C319.5,181.7,312.5,174.6,303.6,174.6L303.6,174.6"/>
				<path id="パス_224" class="st0" d="M348.4,207.5l70.5-195.4h25l70.4,195.4h-27.5L432.2,50l-1.9-7.8l-1.9,7.8l-30.1,86.3
					l-3,5.6l3.2-0.5h36.3c3.8-0.1,7.5,0.8,10.8,2.7c2.9,1.8,5.4,4.2,7.3,7.1c1.9,3,3.5,6.2,4.8,9.5H390l-16.1,46.8L348.4,207.5
					L348.4,207.5z"/>
				<path id="パス_225" class="st0" d="M5.8,18v36c0,3.5,2.8,6.2,6.2,6.2l0,0h60.8c3.5,0,6.2,2.8,6.2,6.2l0,0v134.1
					c0,3.5,2.8,6.2,6.2,6.2l0,0h36c3.5,0,6.2-2.8,6.2-6.2l0,0v-134c0-3.5,2.8-6.2,6.2-6.2h60.8c3.5,0,6.2-2.8,6.2-6.2l0,0v-36
					c0-3.5-2.8-6.2-6.2-6.2H11.9C8.6,11.8,5.8,14.6,5.8,18L5.8,18 M22.9,36L22.9,36c0-3.5,2.8-6.2,6.2-6.2h43.7
					c3.5,0,6.2,2.8,6.2,6.2l0,0l0,0c0,3.5-2.8,6.2-6.2,6.2l0,0H29C25.6,42.3,22.9,39.5,22.9,36 M103.2,189.8L103.2,189.8
					c-3.5,0-6.2-2.8-6.2-6.2V35.1c0-3.5,2.8-6.2,6.2-6.2s6.2,2.8,6.2,6.2v148.4C109.6,187,106.8,189.8,103.2,189.8 M177.4,42.3
					h-43.7c-3.5,0-6.2-2.8-6.2-6.2l0,0l0,0c0-3.5,2.8-6.2,6.2-6.2h43.7c3.5,0,6.2,2.8,6.2,6.2l0,0l0,0
					C183.8,39.5,180.9,42.3,177.4,42.3L177.4,42.3"/>
			</g>
		</g>
	</g>
</g>
</svg>
