<?xml version="1.0" encoding="utf-8"?>
<!-- Generator: Adobe Illustrator 26.2.1, SVG Export Plug-In . SVG Version: 6.00 Build 0)  -->
<svg version="1.1" id="レイヤー_1" xmlns="http://www.w3.org/2000/svg" xmlns:xlink="http://www.w3.org/1999/xlink" x="0px"
	 y="0px" viewBox="0 0 520 300" style="enable-background:new 0 0 520 300;" xml:space="preserve">
<style type="text/css">
	.st0{fill:#FFFFFF;}
</style>
<g id="レイヤー_1_00000080180827616026406550000015256446553742612888_">
	<g id="レイヤー_1_00000173135092444417984380000001292149815846662294_">
	</g>
</g>
<g id="グループ_59">
</g>
<g id="グループ_65">
	<g id="グループ_64">
		<g>
			<g id="グループ_63">
				<path id="パス_259" class="st0" d="M129.2,41.1c20.4-4.3,43.3-9.3,57.5-11.1c13.3,3.4,24.1,9,28.1,20.1
					c-5.3,4.6-2.5,12.7,0.3,17.3c-1.6,0.9-3.2,1.6-4.9,2.2l-0.6-1.9c-1.3-0.7-2.8-1.1-4.3-1.2c-1.2,0-2.1,0.9-2.2,2.1v0.1
					c0,0.9,0.2,1.7,0.6,2.5c-18.6,3.7-45.8,1.2-71.5,12.4h-4.3v-3.4c-2.8-0.3-4.9,1.2-6.8,3.7c-10.5,1.2-13.9,5.3-20.4,24.8
					c-0.9,2.8-4.6,6.5-6.5,8l2.8,1.5c-1.6,6.5-6.2,18.9-9.3,18.6c-3.4-0.3-0.3-6.5-2.2-6.2c-3.4,0.6-3.7,7.4-5.3,12.4
					c1.2,2.8,1.8,5.9,1.9,9c-1.5,4-3.1,10.8-5.3,10.8c-3.1,0-1.2-5.9-2.5-8.4c-2.8,5.9-4.9,11.4-7.1,16.7l2.5,1.5
					c1.5-2.8,3.1-3.7,5.9-3.1c-5.9,16.1-11.1,32.2-14.5,46.1c-6.7,0.5-13.5,0-20.1-1.5l1.2-3.4c-8-2.8-7.4-13.3-8.7-25.4
					c-1.5-1.9-2.3-4.1-2.5-6.5c0-7.7,17.6-53.5,33.1-88.8h-24c-13.6,0-14.5,4.3-24.4,1.9C11,84.8,5.4,71.2,5.4,61.9
					c0-3.9,1.5-7.6,4.3-10.2c12.1,1.2,40.8,2.5,59.7-1.2c31.2-6.6,17.6-36,46.4-36L129.2,41.1z M90.2,121.5l-3.1,5.6l1.9,2.2
					l2.5-5.6L90.2,121.5z"/>
				<path id="パス_260" class="st0" d="M511.5,210l-30.7-64.6H296.3L265.9,210h-3.1l91.3-192.6h69.1L514.5,210H511.5z M421.5,20.3
					h-65.7l-58,122.3h181.5L421.5,20.3z"/>
				<path id="パス_261" class="st0" d="M239.7,245.2c0,9.8-2.4,19.6-11.4,28.8c-8.5,8.7-20.6,11.4-30.4,11.4h-27.5
					c-3.4,0-5.6,0.3-6.6-1.9c-1.1-1.3-1.1-3.7-1.1-6.3V108.4c0-2.9,0-5.3,1.1-6.6c1.6-1.8,3.4-1.6,6.9-1.6h27
					c11.4,0,23,3.2,31.2,10.8c7.7,7.1,10.8,17.7,10.8,29.1V245.2z M211.1,239.9v-94.2c0-5.6-0.3-10.6-3.4-14.5
					c-2.1-2.1-4-3.2-8.7-3.2c-4.2,0-6.3,0-7.1,1.1c-0.8,1.1-0.8,2.1-0.8,3.7v119c0,2.4,0,4.2,1.1,5.3c0.8,0.8,3.7,0.5,6.1,0.5
					c3.9,0.1,7.6-1.7,10.1-4.8C211.4,248.4,211.1,243.9,211.1,239.9"/>
			</g>
		</g>
	</g>
</g>
</svg>
