<?xml version="1.0" encoding="utf-8"?>
<!-- Generator: Adobe Illustrator 26.2.1, SVG Export Plug-In . SVG Version: 6.00 Build 0)  -->
<svg version="1.1" id="レイヤー_1" xmlns="http://www.w3.org/2000/svg" xmlns:xlink="http://www.w3.org/1999/xlink" x="0px"
	 y="0px" viewBox="0 0 520 300" style="enable-background:new 0 0 520 300;" xml:space="preserve">
<style type="text/css">
	.st0{fill:#FFFFFF;}
</style>
<g id="レイヤー_1_00000118380777385459411710000015844609890516740762_">
	<g id="レイヤー_1_00000173135092444417984380000001292149815846662294_">
	</g>
</g>
<g id="グループ_59">
</g>
<g id="グループ_65">
</g>
<g id="グループ_68">
	<path id="パス_262" class="st0" d="M78.2,20.5H40.8v-8.6h84.1v8.7H87.5v212.2h-9.3V20.5z"/>
	<g id="グループ_67">
		<g>
			<g id="グループ_66">
				<path id="パス_263" class="st0" d="M361.7,36.2c4.2-23.9,21.6-28.3,41.6-28.3c19.1,0,37.5,4.4,41.6,28.3l34.3,196.6h-42.6
					l-9.8-55.3h-47.3l-9.5,55.3h-42.5L361.7,36.2z M384,145.7h38.4l-13.3-89.6c-1-7.6-2.9-9.2-5.7-9.2s-4.8,1.6-5.7,9.2L384,145.7z"
					/>
				<path id="パス_264" class="st0" d="M291,187.1c0,54.7-25.1,105-87,105c-46.8,0-62.4-25.5-62.4-83.3c0-16.3,0.5-9.1,0.5-28.3
					c0-11-0.5-24.8-0.5-36.5c0-22.3,4.5-39.6,13-49C164.7,83.7,185,79,198,79C259.2,79,291,114.2,291,187.1 M248.9,186.5
					c0-32.7-12.7-62.2-45-62.2c-18.5,0-22.2,16-22.2,34.6s0,32.1,0.8,52.5c1.1,20.4,3.7,36.1,24.1,36.1
					C238.6,247.5,248.9,218.3,248.9,186.5"/>
			</g>
		</g>
	</g>
</g>
</svg>
