<?xml version="1.0" encoding="utf-8"?>
<!-- Generator: Adobe Illustrator 26.2.1, SVG Export Plug-In . SVG Version: 6.00 Build 0)  -->
<svg version="1.1" xmlns="http://www.w3.org/2000/svg" xmlns:xlink="http://www.w3.org/1999/xlink" x="0px" y="0px"
	 viewBox="0 0 35.2 31.6" style="enable-background:new 0 0 35.2 31.6;" xml:space="preserve">
<style type="text/css">
	.st0{fill:#FFFFFF;}
</style>
<g id="レイヤー_1">
</g>
<g id="グループ_2822">
</g>
<g id="グループ_2817">
	<path id="パス_29497" class="st0" d="M2.2,1.2H0.1V0h5.6v1.2H3.6v5.6H2.2V1.2z"/>
	<g id="グループ_2816" transform="translate(0 0)">
		<g>
			<g id="グループ_2815">
				<path id="パス_29498" class="st0" d="M8.4,7C7.7,7,7,6.8,6.5,6.3C6,5.8,5.8,5,5.8,4.3C5.8,4,5.9,3.6,6,3.2
					c0.1-0.3,0.3-0.6,0.5-0.8C6.7,2.2,7,2,7.3,1.9c0.7-0.2,1.4-0.2,2.1,0c0.6,0.2,1.1,0.7,1.3,1.4c0.1,0.4,0.2,0.7,0.2,1.1
					c0,0.4-0.1,0.8-0.2,1.1c-0.1,0.3-0.3,0.6-0.5,0.8C10,6.5,9.7,6.7,9.4,6.8C9.1,6.9,8.7,7,8.4,7 M8.4,5.9c0.3,0,0.7-0.1,0.9-0.4
					c0.2-0.4,0.3-0.8,0.3-1.2c0-0.4-0.1-0.8-0.3-1.2C8.8,2.7,8.1,2.6,7.6,3c-0.1,0-0.1,0.1-0.1,0.1C7.3,3.5,7.2,3.9,7.2,4.3
					c0,0.4,0.1,0.8,0.3,1.2C7.7,5.8,8,5.9,8.4,5.9"/>
				<path id="パス_29499" class="st0" d="M12.7,0H14v3.6l1.9-1.7h1.6l-1.8,1.7l2,3.3h-1.4l-1.5-2.5L14,4.9v1.9h-1.3V0z"/>
				<path id="パス_29500" class="st0" d="M19.3,7.5c0.2,0.1,0.4,0.1,0.6,0.1c0.2,0,0.3,0,0.4-0.1c0.1-0.1,0.2-0.3,0.3-0.5l0.2-0.4
					l-2.1-4.8h1.6l1.2,3.3l1.1-3.3h1.5l-2,5.1c-0.1,0.3-0.2,0.5-0.3,0.8c-0.1,0.2-0.2,0.4-0.3,0.5c-0.1,0.1-0.3,0.3-0.5,0.3
					c-0.2,0.1-0.4,0.1-0.7,0.1c-0.2,0-0.3,0-0.5,0c-0.2,0-0.3-0.1-0.5-0.1L19.3,7.5z"/>
				<path id="パス_29501" class="st0" d="M27.4,7c-0.7,0-1.4-0.2-1.9-0.7c-0.5-0.5-0.7-1.3-0.7-2c0-0.4,0.1-0.8,0.2-1.1
					c0.1-0.3,0.3-0.6,0.5-0.8c0.2-0.2,0.5-0.4,0.8-0.5c0.7-0.2,1.4-0.2,2.1,0c0.6,0.2,1.1,0.7,1.3,1.4c0.1,0.4,0.2,0.7,0.2,1.1
					c0,0.4-0.1,0.8-0.2,1.1c-0.1,0.3-0.3,0.6-0.5,0.8c-0.2,0.2-0.5,0.4-0.8,0.5C28.1,6.9,27.8,7,27.4,7 M27.4,5.9
					c0.3,0,0.7-0.1,0.9-0.4c0.2-0.4,0.3-0.8,0.3-1.2c0-0.4-0.1-0.8-0.3-1.2c-0.4-0.5-1.1-0.5-1.6-0.1c-0.1,0-0.1,0.1-0.1,0.1
					c-0.2,0.4-0.3,0.8-0.3,1.2c0,0.4,0.1,0.8,0.3,1.2C26.7,5.8,27.1,5.9,27.4,5.9"/>
				<path id="パス_29502" class="st0" d="M0.6,12.3h2.6c0.9-0.1,1.8,0.3,2.4,0.9c0.6,0.7,0.9,1.6,0.9,2.5c0,0.5-0.1,1-0.2,1.5
					c-0.3,0.8-1,1.5-1.8,1.7c-0.5,0.2-1,0.2-1.5,0.2H0.6V12.3z M2.9,17.9c0.3,0,0.6,0,0.9-0.2c0.2-0.1,0.5-0.3,0.6-0.5
					c0.2-0.2,0.3-0.4,0.4-0.7C5,16.3,5,16,5,15.7c0-0.3,0-0.6-0.1-0.9c-0.1-0.2-0.2-0.5-0.3-0.7c-0.2-0.2-0.3-0.3-0.6-0.4
					c-0.3-0.1-0.6-0.2-0.9-0.2H2v4.4L2.9,17.9z"/>
				<path id="パス_29503" class="st0" d="M12.9,17.6c-0.1,0.5-0.3,1-0.7,1.3c-0.5,0.3-1,0.5-1.6,0.4c-0.7,0.1-1.4-0.2-1.9-0.7
					c-0.4-0.5-0.7-1.2-0.6-2c0-0.4,0.1-0.8,0.2-1.1c0.1-0.3,0.3-0.6,0.5-0.8c0.2-0.2,0.5-0.4,0.8-0.5c0.3-0.1,0.7-0.2,1-0.2
					c0.6,0,1.3,0.2,1.7,0.7c0.4,0.5,0.6,1.1,0.6,1.8V17H9.5c0,0.3,0.1,0.7,0.3,0.9c0.2,0.2,0.5,0.4,0.9,0.3c0.4,0.1,0.9-0.2,0.9-0.7
					L12.9,17.6z M11.7,16.1c0-0.3-0.1-0.6-0.3-0.8c-0.2-0.2-0.5-0.3-0.8-0.3c-0.2,0-0.3,0-0.5,0.1c-0.1,0.1-0.2,0.1-0.3,0.2
					c-0.1,0.1-0.2,0.2-0.2,0.3c-0.1,0.1-0.1,0.3-0.1,0.4L11.7,16.1z"/>
				<path id="パス_29504" class="st0" d="M15.7,17.6c0,0.2,0.1,0.5,0.4,0.6c0.2,0.1,0.5,0.1,0.7,0.1c0.2,0,0.5,0,0.7-0.1
					c0.1-0.1,0.2-0.2,0.2-0.4c0-0.1,0-0.2-0.1-0.3c-0.1-0.1-0.3-0.2-0.5-0.2l-0.7-0.1c-0.5,0-1-0.2-1.4-0.5
					c-0.3-0.3-0.5-0.7-0.4-1.1c0-0.2,0.1-0.5,0.2-0.7c0.1-0.2,0.3-0.4,0.4-0.5c0.2-0.1,0.4-0.2,0.7-0.3c0.3-0.1,0.6-0.1,0.9-0.1
					c0.3,0,0.7,0,1,0.1c0.2,0.1,0.5,0.2,0.7,0.3c0.2,0.1,0.3,0.3,0.4,0.5c0.1,0.2,0.1,0.4,0.2,0.6l-1.2,0.2c0-0.2-0.1-0.4-0.3-0.5
					C17.2,15,17,15,16.7,15c-0.1,0-0.3,0-0.4,0c-0.1,0-0.2,0.1-0.3,0.1c-0.1,0-0.1,0.1-0.1,0.2c0,0.1,0,0.1,0,0.2
					c0,0.1,0,0.3,0.1,0.3c0.2,0.1,0.4,0.2,0.6,0.2l0.6,0.1c0.3,0,0.6,0.1,0.9,0.2c0.2,0.1,0.4,0.2,0.6,0.3c0.1,0.1,0.2,0.3,0.3,0.5
					c0.1,0.2,0.1,0.4,0.1,0.6c0,0.4-0.2,0.9-0.5,1.1c-0.5,0.3-1.1,0.5-1.7,0.4c-0.3,0-0.6,0-0.9-0.1c-0.3,0-0.5-0.1-0.7-0.3
					c-0.2-0.1-0.4-0.3-0.5-0.5c-0.1-0.3-0.2-0.5-0.2-0.8L15.7,17.6z"/>
				<path id="パス_29505" class="st0" d="M20.6,12.3H22v1.2h-1.4V12.3z M20.6,14.1H22v5h-1.3V14.1z"/>
				<path id="パス_29506" class="st0" d="M25.3,19.5c0,0.1,0.1,0.2,0.1,0.3c0,0.1,0.1,0.1,0.2,0.2c0.1,0,0.2,0.1,0.3,0.1
					c0.1,0,0.3,0,0.4,0c0.2,0,0.4,0,0.6-0.1c0.1-0.1,0.2-0.2,0.3-0.4c0.1-0.2,0.1-0.3,0.1-0.5c0-0.2,0-0.4,0-0.6v-0.2
					c-0.2,0.2-0.4,0.4-0.6,0.5c-0.3,0.1-0.6,0.2-0.9,0.2c-0.6,0-1.2-0.2-1.6-0.7c-0.4-0.5-0.6-1.2-0.5-1.8c0-0.3,0-0.7,0.1-1
					c0.1-0.3,0.2-0.6,0.4-0.8c0.2-0.2,0.4-0.4,0.7-0.5c0.3-0.1,0.6-0.2,0.9-0.2c0.3,0,0.5,0.1,0.8,0.2c0.3,0.1,0.5,0.3,0.7,0.6v-0.6
					h1.3v4.3c0,0.4,0,0.8-0.1,1.1c-0.1,0.3-0.2,0.6-0.4,0.8c-0.2,0.2-0.5,0.4-0.7,0.5c-0.4,0.1-0.7,0.2-1.1,0.2c-0.3,0-0.7,0-1-0.1
					c-0.3-0.1-0.5-0.2-0.7-0.3c-0.2-0.1-0.3-0.3-0.4-0.5C24.1,20,24,19.7,24,19.5L25.3,19.5z M27.4,16.5c0-0.2,0-0.5-0.1-0.7
					c-0.1-0.2-0.1-0.3-0.3-0.4c-0.1-0.1-0.2-0.2-0.4-0.2c-0.1,0-0.3,0-0.4,0c-0.1,0-0.3,0-0.4,0.1c-0.1,0.1-0.3,0.1-0.3,0.2
					c-0.1,0.1-0.2,0.3-0.2,0.4c-0.1,0.2-0.1,0.4-0.1,0.6c0,0.4,0.1,0.8,0.3,1.1c0.2,0.2,0.5,0.3,0.8,0.3c0.2,0,0.3,0,0.5-0.1
					c0.1,0,0.3-0.1,0.4-0.2c0.1-0.1,0.2-0.3,0.2-0.4c0.1-0.2,0.1-0.4,0.1-0.6L27.4,16.5z"/>
				<path id="パス_29507" class="st0" d="M30.7,14.1H32v0.7c0.2-0.3,0.4-0.5,0.7-0.6c0.3-0.1,0.6-0.2,0.8-0.2
					c0.5,0,0.9,0.1,1.3,0.4c0.3,0.4,0.5,0.9,0.4,1.4v3.3h-1.3V16c0-0.3,0-0.5-0.2-0.7c-0.1-0.1-0.3-0.2-0.5-0.2
					c-0.2,0-0.3,0-0.4,0.1c-0.1,0.1-0.2,0.1-0.3,0.2c-0.1,0.1-0.2,0.2-0.2,0.3C32,15.9,32,16,32,16.1v3h-1.3L30.7,14.1z"/>
				<path id="パス_29508" class="st0" d="M2.6,24.6h1.4l2.6,6.8H5l-0.5-1.6H2l-0.5,1.6H0L2.6,24.6z M4,28.7l-0.8-2.5l-0.8,2.5H4z"
					/>
				<path id="パス_29509" class="st0" d="M8.1,24.6h2.4c0.4,0,0.9,0.1,1.3,0.2c0.3,0.1,0.6,0.3,0.8,0.5c0.2,0.2,0.3,0.4,0.4,0.7
					c0.1,0.2,0.1,0.5,0.1,0.7c0,0.4-0.1,0.8-0.2,1.1c-0.2,0.3-0.5,0.6-0.8,0.8l1.4,2.9h-1.5l-1.1-2.6H9.5v2.6H8.1V24.6z M10.6,27.7
					c0.2,0,0.4,0,0.6-0.1c0.1,0,0.3-0.1,0.3-0.2c0.1-0.1,0.1-0.2,0.2-0.3c0-0.1,0-0.3,0-0.4c0-0.1,0-0.2-0.1-0.3
					c0-0.1-0.1-0.2-0.2-0.3c-0.1-0.1-0.2-0.2-0.4-0.2c-0.2-0.1-0.4-0.1-0.6-0.1h-1v1.9L10.6,27.7z"/>
				<path id="パス_29510" class="st0" d="M16.5,25.9h-2.1v-1.2H20v1.2H18v5.6h-1.4L16.5,25.9z"/>
				<path id="パス_29511" class="st0" d="M22.8,29.2c0,0.4,0.1,0.7,0.4,0.9c0.3,0.2,0.7,0.3,1.1,0.3c0.2,0,0.4,0,0.6-0.1
					c0.1,0,0.3-0.1,0.4-0.2c0.1-0.1,0.2-0.2,0.2-0.3c0-0.1,0.1-0.2,0.1-0.4c0-0.2-0.1-0.4-0.2-0.5c-0.2-0.2-0.5-0.3-0.7-0.3
					l-0.9-0.2c-0.3-0.1-0.6-0.1-0.9-0.2c-0.2-0.1-0.5-0.2-0.7-0.4c-0.2-0.2-0.3-0.4-0.4-0.6c-0.1-0.3-0.1-0.6-0.1-0.8
					c0-0.3,0.1-0.6,0.2-0.9c0.1-0.2,0.3-0.5,0.5-0.6c0.3-0.2,0.5-0.3,0.8-0.4c0.4-0.1,0.7-0.1,1.1-0.1c0.4,0,0.8,0,1.2,0.2
					c0.3,0.1,0.6,0.3,0.8,0.5c0.2,0.2,0.4,0.4,0.5,0.7c0.1,0.2,0.2,0.5,0.2,0.8l-1.3,0.2c0-0.3-0.2-0.6-0.4-0.8
					c-0.3-0.2-0.6-0.3-0.9-0.2c-0.2,0-0.4,0-0.6,0.1c-0.1,0-0.3,0.1-0.4,0.2C23.1,25.9,23,26,23,26.1c0,0.1-0.1,0.2-0.1,0.3
					c0,0.2,0.1,0.4,0.2,0.6c0.2,0.2,0.5,0.3,0.7,0.3l0.9,0.2c0.6,0.1,1.2,0.3,1.6,0.7c0.4,0.4,0.6,0.9,0.5,1.4
					c0,0.3-0.1,0.6-0.2,0.8c-0.1,0.3-0.3,0.5-0.5,0.7c-0.2,0.2-0.5,0.4-0.8,0.4c-0.4,0.1-0.8,0.2-1.2,0.2c-0.8,0-1.5-0.2-2.1-0.6
					c-0.5-0.5-0.8-1.1-0.8-1.8L22.8,29.2z"/>
			</g>
		</g>
	</g>
</g>
</svg>
