<?xml version="1.0" encoding="utf-8"?>
<!-- Generator: Adobe Illustrator 26.2.1, SVG Export Plug-In . SVG Version: 6.00 Build 0)  -->
<svg version="1.1" id="レイヤー_1" xmlns="http://www.w3.org/2000/svg" xmlns:xlink="http://www.w3.org/1999/xlink" x="0px"
	 y="0px" viewBox="0 0 524.9 45.4" style="enable-background:new 0 0 524.9 45.4;" xml:space="preserve">
<style type="text/css">
	.st0{fill:#FFFFFF;}
</style>
<g id="レイヤー_1_00000181061578955483981010000012470704569901666233_">
	<g id="レイヤー_1_00000173135092444417984380000001292149815846662294_">
	</g>
</g>
<g id="グループ_59">
	<path id="パス_197" class="st0" d="M0,0.8v6.3h10.4v28.4h7.3V7.1h10.4V0.8H0z"/>
	<g id="グループ_58">
		<g>
			<g id="グループ_57">
				<path id="パス_198" class="st0" d="M42.8,36.2c-4.1,0-7.2-1.2-9.5-3.5S30,27,30,22.7c0-1.9,0.3-3.8,0.9-5.6
					c0.5-1.6,1.4-3,2.6-4.2c1.1-1.2,2.5-2.1,4.1-2.6c1.7-0.6,3.5-0.9,5.3-0.9s3.6,0.3,5.3,0.9c3.1,1.2,5.6,3.7,6.6,6.9
					c0.6,1.8,0.9,3.7,0.9,5.6s-0.3,3.8-0.9,5.7c-0.5,1.6-1.4,3-2.6,4.2c-1.1,1.2-2.5,2.1-4.1,2.7C46.4,35.9,44.6,36.3,42.8,36.2
					 M42.8,30.8c1.7,0.1,3.4-0.7,4.3-2.1c1.1-1.8,1.6-3.9,1.4-6c0.1-2.1-0.4-4.1-1.4-5.9c-1-1.4-2.6-2.2-4.3-2
					c-1.7-0.1-3.3,0.7-4.3,2c-1.1,1.8-1.6,3.8-1.4,5.9c-0.1,2.1,0.4,4.2,1.4,6C39.5,30.1,41.1,30.9,42.8,30.8"/>
				<path id="パス_199" class="st0" d="M65.6,0.8h6.7v18.1l9.8-8.8H90l-9.2,8.7l9.9,16.6h-7.3l-7.5-12.8l-3.5,3.2v9.6h-6.7
					L65.6,0.8z"/>
				<path id="パス_200" class="st0" d="M100.1,39c0.9,0.3,1.9,0.4,2.9,0.4c0.8,0,1.6-0.2,2.2-0.7c0.7-0.6,1.1-1.4,1.4-2.3l0.8-2.1
					L96.9,10.1h7.9l5.9,16.6l5.5-16.6h7.4l-10.2,26.1c-0.6,1.5-1.1,2.7-1.6,3.8c-0.5,1-1.1,1.9-1.8,2.7c-0.7,0.7-1.5,1.3-2.4,1.6
					c-1.1,0.4-2.3,0.6-3.4,0.5c-0.8,0-1.7-0.1-2.5-0.2c-0.9-0.1-1.8-0.3-2.6-0.6L100.1,39z"/>
				<path id="パス_201" class="st0" d="M142.3,36.2c-4.1,0-7.2-1.2-9.5-3.5s-3.3-5.7-3.3-10c0-1.9,0.3-3.8,0.9-5.6
					c0.5-1.6,1.4-3,2.6-4.2c1.1-1.2,2.5-2.1,4.1-2.6c1.7-0.6,3.5-0.9,5.3-0.9s3.6,0.3,5.3,0.9c3.1,1.2,5.6,3.7,6.6,6.9
					c0.6,1.8,0.9,3.7,0.9,5.6s-0.3,3.8-0.9,5.7c-0.5,1.6-1.4,3-2.6,4.2c-1.1,1.2-2.5,2.1-4.1,2.7C145.9,35.9,144.1,36.3,142.3,36.2
					 M142.3,30.8c1.7,0.1,3.4-0.7,4.3-2.1c1.1-1.8,1.6-3.9,1.4-6c0.1-2.1-0.4-4.1-1.4-5.9c-2-2.4-5.6-2.7-7.9-0.7
					c-0.3,0.2-0.5,0.5-0.7,0.7c-1.1,1.8-1.6,3.8-1.4,5.9c-0.1,2.1,0.4,4.2,1.4,6C138.9,30.1,140.6,30.9,142.3,30.8"/>
				<path id="パス_202" class="st0" d="M181.3,0.8h13c5.3,0,9.4,1.4,12.4,4.3s4.4,7.1,4.4,12.8c0.1,2.6-0.4,5.1-1.2,7.6
					c-0.8,2.1-2,3.9-3.6,5.5c-1.6,1.5-3.6,2.7-5.7,3.3c-2.4,0.8-5,1.2-7.6,1.1h-11.7L181.3,0.8z M193.2,29.3c1.6,0,3.3-0.2,4.8-0.8
					c1.3-0.5,2.4-1.3,3.2-2.3s1.5-2.3,1.8-3.6c0.4-1.5,0.6-3.1,0.6-4.6s-0.2-3.1-0.5-4.6c-0.3-1.3-0.8-2.4-1.6-3.5
					c-0.8-1-1.8-1.7-2.9-2.2c-1.4-0.6-2.9-0.8-4.3-0.8h-5.7v22.3h4.6V29.3z"/>
				<path id="パス_203" class="st0" d="M244.6,27.6c-0.3,2.5-1.5,4.8-3.4,6.5c-1.8,1.5-4.5,2.2-8,2.2c-4.2,0-7.4-1.2-9.5-3.5
					s-3.2-5.6-3.2-9.9c0-1.9,0.3-3.9,0.9-5.7c0.6-1.6,1.4-3,2.6-4.2c1.1-1.2,2.5-2.1,4-2.6c1.6-0.6,3.4-0.9,5.1-0.9
					c3.9,0,6.8,1.1,8.8,3.3c2,2.2,2.9,5.2,2.9,9v2.7h-17.6c0,1.7,0.5,3.4,1.5,4.8c1.1,1.2,2.7,1.8,4.4,1.7c2.7,0,4.3-1.1,4.8-3.4
					H244.6z M238.3,20c0.1-1.5-0.4-2.9-1.3-4.1c-1.1-1-2.5-1.6-4-1.5c-0.8,0-1.6,0.1-2.4,0.4c-0.7,0.3-1.2,0.7-1.7,1.2
					s-0.8,1.1-1.1,1.7c-0.3,0.7-0.4,1.4-0.4,2.2L238.3,20z"/>
				<path id="パス_204" class="st0" d="M259.7,27.4c0.1,1.2,0.7,2.3,1.8,2.9c1.1,0.5,2.3,0.7,3.5,0.7c1.2,0.1,2.4-0.1,3.5-0.6
					c0.7-0.4,1.1-1.2,1-2c0-0.6-0.2-1.2-0.7-1.7c-0.7-0.6-1.6-1-2.5-1l-3.5-0.6c-2.5-0.3-4.8-1.1-6.9-2.5c-1.6-1.3-2.4-3.3-2.3-5.4
					c0-1.2,0.3-2.3,0.8-3.3c0.6-1,1.3-1.8,2.3-2.5c1.1-0.7,2.2-1.2,3.5-1.6c1.4-0.4,2.9-0.6,4.4-0.6c1.7,0,3.4,0.2,5,0.6
					c1.2,0.3,2.3,0.9,3.3,1.6c0.8,0.6,1.5,1.5,1.9,2.4c0.4,1,0.8,2,0.9,3l-6.1,0.8c-0.2-1-0.7-1.9-1.5-2.6c-1.1-0.6-2.3-0.9-3.5-0.8
					c-0.8,0-1.5,0.1-2.3,0.2c-0.5,0.1-1,0.3-1.4,0.6c-0.3,0.2-0.6,0.5-0.7,0.8s-0.2,0.5-0.2,0.8c-0.1,0.7,0.2,1.3,0.8,1.8
					c0.9,0.5,1.9,0.8,2.9,0.9l3.2,0.5c1.5,0.2,3,0.6,4.4,1.1c1,0.4,2,0.9,2.8,1.7c0.7,0.6,1.2,1.5,1.5,2.4c0.3,1,0.4,2.1,0.4,3.2
					c0.1,2.2-0.9,4.4-2.7,5.8c-1.8,1.4-4.6,2.2-8.4,2.2c-1.5,0-2.9-0.1-4.3-0.4c-1.3-0.2-2.6-0.7-3.7-1.4c-1.1-0.7-2-1.6-2.7-2.7
					c-0.7-1.3-1.2-2.8-1.2-4.3H259.7z"/>
				<path id="パス_205" class="st0" d="M285.7,0.8h7v6.1h-7V0.8z M285.8,10.1h6.8v25.3h-6.8V10.1z"/>
				<path id="パス_206" class="st0" d="M310.5,37.1c0.1,0.5,0.3,1.1,0.6,1.6c0.2,0.4,0.6,0.7,1,0.9c0.5,0.2,0.9,0.4,1.5,0.5
					c0.7,0.1,1.4,0.1,2.1,0.1c1,0.1,2.1-0.2,3-0.7c0.7-0.5,1.2-1.1,1.6-1.9s0.6-1.8,0.6-2.7c0.1-1,0.1-2,0.1-3.1V31
					c-0.8,1.2-1.9,2.2-3.2,2.8c-1.4,0.6-2.9,1-4.4,0.9c-3.6,0-6.2-1.1-8-3.4s-2.6-5.4-2.6-9.3c0-1.7,0.2-3.4,0.8-5.1
					c0.5-1.5,1.2-2.8,2.2-4c0.9-1.1,2.1-2,3.5-2.6c1.5-0.6,3-1,4.6-0.9c1.4,0,2.7,0.3,4,0.8c1.4,0.6,2.6,1.6,3.5,2.9v-2.9h6.6V32
					c0,1.9-0.2,3.8-0.7,5.7c-0.4,1.5-1.1,3-2.1,4.2s-2.3,2.1-3.7,2.6c-1.8,0.6-3.7,0.9-5.6,0.9c-1.8,0-3.5-0.1-5.2-0.5
					c-1.3-0.3-2.5-0.8-3.6-1.6c-0.9-0.7-1.7-1.6-2.2-2.6c-0.5-1.2-0.9-2.4-1-3.7L310.5,37.1z M320.9,21.9c0-1.2-0.1-2.5-0.5-3.7
					c-0.3-0.8-0.7-1.6-1.3-2.2c-0.5-0.5-1.2-0.8-1.8-1c-0.7-0.2-1.4-0.2-2-0.2c-0.7,0-1.4,0.1-2.1,0.4s-1.3,0.7-1.7,1.3
					c-0.5,0.7-0.9,1.4-1.2,2.2c-0.3,1.1-0.5,2.2-0.4,3.2c0,2.7,0.5,4.6,1.5,5.7s2.4,1.7,3.8,1.7c0.8,0,1.6-0.1,2.4-0.4
					c0.7-0.2,1.3-0.6,1.9-1.2s1-1.3,1.2-2.1c0.3-1,0.5-2.1,0.4-3.1L320.9,21.9z"/>
				<path id="パス_207" class="st0" d="M338.5,10.1h6.6v3.5c0.9-1.4,2.1-2.5,3.6-3.2c1.3-0.7,2.8-1,4.3-1c2.9,0,5,0.8,6.4,2.3
					s2.1,3.9,2.1,7.1v16.7h-6.8V19.7c0-1.8-0.3-3-1-3.6c-0.7-0.7-1.7-1-2.7-1c-0.8,0-1.5,0.1-2.3,0.4c-0.6,0.3-1.2,0.6-1.8,1.1
					c-0.5,0.5-0.9,1-1.1,1.6c-0.3,0.6-0.5,1.3-0.5,2.1v15.2h-6.8L338.5,10.1z"/>
				<path id="パス_208" class="st0" d="M398.2,0.8h6.9l13,34.6h-7.8l-2.8-8h-12.1l-2.8,8h-7.5L398.2,0.8z M405.7,21.5l-4.2-12.4
					l-4.2,12.4H405.7z"/>
				<path id="パス_209" class="st0" d="M427,0.8h12.3c2.3-0.1,4.5,0.3,6.7,0.9c1.6,0.5,3,1.3,4.1,2.5c1,0.9,1.7,2.1,2.1,3.4
					c0.4,1.2,0.6,2.4,0.6,3.7c0.1,1.9-0.4,3.9-1.2,5.6c-0.9,1.7-2.4,3-4.1,3.8l7,14.7h-7.8l-5.8-13h-6.8v13H427V0.8z M439.8,16.4
					c1,0,1.9-0.1,2.8-0.4c0.7-0.2,1.3-0.5,1.8-1c0.4-0.4,0.7-1,0.9-1.6c0.2-0.7,0.2-1.4,0.2-2s-0.1-1.2-0.3-1.8
					c-0.2-0.6-0.5-1.1-1-1.5c-0.6-0.5-1.2-0.8-1.9-1c-1-0.3-2.1-0.4-3.1-0.4h-5v9.7L439.8,16.4z"/>
				<path id="パス_210" class="st0" d="M470.9,7.1h-10.4V0.8h28.1v6.3h-10.4v28.4h-7.3L470.9,7.1L470.9,7.1z"/>
				<path id="パス_211" class="st0" d="M503.6,24.2c0,1.8,0.7,3.5,2.1,4.7c1.6,1.1,3.5,1.6,5.4,1.5c1,0,1.9-0.1,2.9-0.4
					c0.7-0.2,1.3-0.5,1.9-1c0.5-0.4,0.8-0.9,1-1.4c0.2-0.6,0.3-1.2,0.3-1.8c0-0.9-0.4-1.9-1-2.5c-1-1-2.3-1.6-3.7-1.7l-4.5-0.8
					c-1.6-0.3-3.2-0.7-4.7-1.3c-1.3-0.5-2.4-1.1-3.4-2c-0.9-0.8-1.7-1.9-2.1-3c-0.5-1.4-0.8-2.8-0.7-4.3c0-1.5,0.3-3,1-4.4
					c0.7-1.3,1.6-2.3,2.8-3.2c1.3-0.9,2.7-1.5,4.2-1.9c1.8-0.5,3.6-0.7,5.4-0.7c2.1-0.1,4.3,0.2,6.3,0.9c1.5,0.5,2.9,1.3,4.1,2.3
					c1,0.9,1.8,2.1,2.3,3.3c0.5,1.3,0.8,2.6,1,3.9l-6.8,0.9c-0.2-1.6-0.9-3-2.1-4.1c-1.4-0.9-3-1.4-4.6-1.3c-1,0-2,0.1-3,0.3
					c-0.7,0.2-1.3,0.4-1.9,0.8c-0.4,0.3-0.8,0.7-1,1.2c-0.2,0.4-0.3,0.9-0.3,1.4c-0.1,1.1,0.3,2.1,1.1,2.9c1.1,0.8,2.4,1.3,3.7,1.5
					l4.8,0.9c3.8,0.7,6.5,1.9,8.2,3.6s2.6,4.1,2.6,7.2c0,1.4-0.3,2.9-0.8,4.2c-0.6,1.3-1.4,2.4-2.5,3.3c-1.2,1-2.7,1.8-4.2,2.2
					c-1.9,0.6-3.9,0.8-5.9,0.8c-4.7,0-8.3-1-10.8-3s-3.9-5.1-4.1-9.1L503.6,24.2z"/>
			</g>
		</g>
	</g>
</g>
</svg>
