<?xml version="1.0" encoding="utf-8"?>
<!-- Generator: Adobe Illustrator 26.2.1, SVG Export Plug-In . SVG Version: 6.00 Build 0)  -->
<svg version="1.1" id="レイヤー_1" xmlns="http://www.w3.org/2000/svg" xmlns:xlink="http://www.w3.org/1999/xlink" x="0px"
	 y="0px" viewBox="0 0 520 300" style="enable-background:new 0 0 520 300;" xml:space="preserve">
<style type="text/css">
	.st0{fill:#FFFFFF;}
</style>
<g id="レイヤー_1_00000150787818444347099130000016550969388805128110_">
	<g id="レイヤー_1_00000173135092444417984380000001292149815846662294_">
	</g>
</g>
<g id="グループ_59">
</g>
<g id="グループ_65">
</g>
<g id="グループ_68">
</g>
<g id="グループ_70">
	<g>
		<g id="グループ_69">
			<path id="パス_280" class="st0" d="M126.1,10.3c41,0,104.1,16.6,137.2,16.6c11.2,0,22.7-1.1,29.4-9.4l0.4,0.1
				c-19,37.3-40.7,47.5-64.4,47.5c-9.4,0-19.4-1.7-29.6-4.3c-8.4,2.6-13,14.3-16.2,34.2l-12.8,79.9c-4.5,28.5-6.9,43.3,18.5,43.3
				v0.6H89v-0.6c25.3,0,28.3-14.7,32.7-43.3l11.2-72.9c4.8-31.9,45.2-40.5,65.4-41.6C157.6,49.8,112.4,24,78.9,24
				c-16.3,0-26.6,6.1-26.6,19s10.4,20,21.1,20c8.3,0,16.2-3.7,21.4-10.2c10,4.6,14.1,11.9,14.1,19.5c0,18.5-15.8,28.5-32.4,28.5
				c-17,0.2-34.8-10.6-36.2-34.2C41.5,22.2,86.3,10.3,126.1,10.3"/>
			<path id="パス_281" class="st0" d="M479.7,215.9c0.6,3.3-8.5,3-16.7,3c-8.8,0-14.6,0.6-15.2-3.7c-2.4-17-3.7-28.6-6.1-45.3
				c-0.3-3-4-2.4-8.8-2.4c-5.8,0-8.8-0.6-9.1,2.4c-1.8,17-3,28.3-4.6,46c-0.3,3.3-7,3-16.7,3c-4.6,0-15.2,0-14.9-2.7
				c11.3-79.4,19.2-132.7,29.2-206c0.5-4.3,9-4.6,15.7-4.6c7.6,0,15.5,0.3,16.4,5.5C460.5,89,467.5,136.5,479.7,215.9 M439.2,142.5
				c-1.5-22.5-2.4-35.3-4-59.3c0-1.5-0.6-8.2-2.7-8.2c-1.5,0-2.1,7.6-2.1,8.8c-1.5,23.7-2.4,39-4,58.4c0,2.1,1.5,2.4,6.1,2.4
				C436.5,144.7,439.5,145.3,439.2,142.5"/>
			<path id="パス_282" class="st0" d="M245.7,105.4h47.1c18,0,29.6,2.9,37.8,9.3c9.8,7.9,15.1,19.6,15.1,34.1
				c0,5.6-0.8,11.6-2.6,22.5L332,234.8c-6.1,39.9-28.3,60.1-66.4,59.5h-53.2L245.7,105.4z M264,277.1c27.8,0.5,42.3-14,48.4-48.4
				l10.1-57.9c1.4-6.6,2.2-13.3,2.4-20.1c0-9.5-4-18-10.8-23c-4.8-3.4-12.2-5-22.8-5h-27.8L236,277.2L264,277.1z"/>
		</g>
	</g>
</g>
</svg>
