<?xml version="1.0" encoding="utf-8"?>
<!-- Generator: Adobe Illustrator 26.2.1, SVG Export Plug-In . SVG Version: 6.00 Build 0)  -->
<svg version="1.1" id="レイヤー_1" xmlns="http://www.w3.org/2000/svg" xmlns:xlink="http://www.w3.org/1999/xlink" x="0px"
	 y="0px" viewBox="0 0 130 46" style="enable-background:new 0 0 130 46;" xml:space="preserve">
<style type="text/css">
	.st0{fill:#FFFFFF;}
</style>
<path id="パス_29497" class="st0" d="M96.6,1.8h-2.1V0.6h5.6v1.2H98v5.6h-1.4V1.8z"/>
<g id="グループ_2816" transform="translate(0 0)">
	<g>
		<g id="グループ_2815">
			<path id="パス_29498" class="st0" d="M102.8,7.6c-0.7,0-1.4-0.2-1.9-0.7c-0.5-0.5-0.7-1.3-0.7-2c0-0.4,0.1-0.8,0.2-1.1
				c0.1-0.3,0.3-0.6,0.5-0.8c0.2-0.2,0.5-0.4,0.8-0.5c0.7-0.2,1.4-0.2,2.1,0c0.6,0.2,1.1,0.7,1.3,1.4c0.1,0.4,0.2,0.7,0.2,1.1
				c0,0.4-0.1,0.8-0.2,1.1c-0.1,0.3-0.3,0.6-0.5,0.8c-0.2,0.2-0.5,0.4-0.8,0.5C103.5,7.5,103.2,7.6,102.8,7.6 M102.8,6.5
				c0.3,0,0.7-0.1,0.9-0.4c0.2-0.4,0.3-0.8,0.3-1.2c0-0.4-0.1-0.8-0.3-1.2c-0.4-0.5-1.1-0.5-1.6-0.1c-0.1,0-0.1,0.1-0.1,0.1
				c-0.2,0.4-0.3,0.8-0.3,1.2c0,0.4,0.1,0.8,0.3,1.2C102.1,6.4,102.5,6.5,102.8,6.5"/>
			<path id="パス_29499" class="st0" d="M107.1,0.6h1.3v3.6l1.9-1.7h1.6l-1.8,1.7l2,3.3h-1.4l-1.5-2.5l-0.7,0.6v1.9h-1.3V0.6z"/>
			<path id="パス_29500" class="st0" d="M113.7,8.1c0.2,0.1,0.4,0.1,0.6,0.1c0.2,0,0.3,0,0.4-0.1c0.1-0.1,0.2-0.3,0.3-0.5l0.2-0.4
				l-2.1-4.8h1.6l1.2,3.3l1.1-3.3h1.5l-2,5.1c-0.1,0.3-0.2,0.5-0.3,0.8c-0.1,0.2-0.2,0.4-0.3,0.5c-0.1,0.1-0.3,0.3-0.5,0.3
				c-0.2,0.1-0.4,0.1-0.7,0.1c-0.2,0-0.3,0-0.5,0c-0.2,0-0.3-0.1-0.5-0.1L113.7,8.1z"/>
			<path id="パス_29501" class="st0" d="M121.9,7.6c-0.7,0-1.4-0.2-1.9-0.7c-0.5-0.5-0.7-1.3-0.7-2c0-0.4,0.1-0.8,0.2-1.1
				c0.1-0.3,0.3-0.6,0.5-0.8c0.2-0.2,0.5-0.4,0.8-0.5c0.7-0.2,1.4-0.2,2.1,0c0.6,0.2,1.1,0.7,1.3,1.4c0.1,0.4,0.2,0.7,0.2,1.1
				c0,0.4-0.1,0.8-0.2,1.1c-0.1,0.3-0.3,0.6-0.5,0.8c-0.2,0.2-0.5,0.4-0.8,0.5C122.6,7.5,122.2,7.6,121.9,7.6 M121.9,6.5
				c0.3,0,0.7-0.1,0.9-0.4c0.2-0.4,0.3-0.8,0.3-1.2c0-0.4-0.1-0.8-0.3-1.2c-0.4-0.5-1.1-0.5-1.6-0.1c-0.1,0-0.1,0.1-0.1,0.1
				c-0.2,0.4-0.3,0.8-0.3,1.2c0,0.4,0.1,0.8,0.3,1.2C121.2,6.4,121.5,6.5,121.9,6.5"/>
			<path id="パス_29502" class="st0" d="M95.1,12.9h2.6c0.9-0.1,1.8,0.3,2.4,0.9c0.6,0.7,0.9,1.6,0.9,2.5c0,0.5-0.1,1-0.2,1.5
				c-0.3,0.8-1,1.5-1.8,1.7c-0.5,0.2-1,0.2-1.5,0.2h-2.3V12.9z M97.4,18.5c0.3,0,0.6,0,0.9-0.2c0.2-0.1,0.5-0.3,0.6-0.5
				c0.2-0.2,0.3-0.4,0.4-0.7c0.1-0.3,0.1-0.6,0.1-0.9c0-0.3,0-0.6-0.1-0.9c-0.1-0.2-0.2-0.5-0.3-0.7c-0.2-0.2-0.3-0.3-0.6-0.4
				c-0.3-0.1-0.6-0.2-0.9-0.2h-1.1v4.4L97.4,18.5z"/>
			<path id="パス_29503" class="st0" d="M107.3,18.2c-0.1,0.5-0.3,1-0.7,1.3c-0.5,0.3-1,0.5-1.6,0.4c-0.7,0.1-1.4-0.2-1.9-0.7
				c-0.4-0.5-0.7-1.2-0.6-2c0-0.4,0.1-0.8,0.2-1.1c0.1-0.3,0.3-0.6,0.5-0.8c0.2-0.2,0.5-0.4,0.8-0.5c0.3-0.1,0.7-0.2,1-0.2
				c0.6,0,1.3,0.2,1.7,0.7c0.4,0.5,0.6,1.1,0.6,1.8v0.5h-3.5c0,0.3,0.1,0.7,0.3,0.9c0.2,0.2,0.5,0.4,0.9,0.3
				c0.4,0.1,0.9-0.2,0.9-0.7L107.3,18.2z M106.1,16.7c0-0.3-0.1-0.6-0.3-0.8c-0.2-0.2-0.5-0.3-0.8-0.3c-0.2,0-0.3,0-0.5,0.1
				c-0.1,0.1-0.2,0.1-0.3,0.2c-0.1,0.1-0.2,0.2-0.2,0.3c-0.1,0.1-0.1,0.3-0.1,0.4L106.1,16.7z"/>
			<path id="パス_29504" class="st0" d="M110.1,18.1c0,0.2,0.1,0.5,0.4,0.6c0.2,0.1,0.5,0.1,0.7,0.1c0.2,0,0.5,0,0.7-0.1
				c0.1-0.1,0.2-0.2,0.2-0.4c0-0.1,0-0.2-0.1-0.3c-0.1-0.1-0.3-0.2-0.5-0.2l-0.7-0.1c-0.5,0-1-0.2-1.4-0.5c-0.3-0.3-0.5-0.7-0.4-1.1
				c0-0.2,0.1-0.5,0.2-0.7c0.1-0.2,0.3-0.4,0.4-0.5c0.2-0.1,0.4-0.2,0.7-0.3c0.3-0.1,0.6-0.1,0.9-0.1c0.3,0,0.7,0,1,0.1
				c0.2,0.1,0.5,0.2,0.7,0.3c0.2,0.1,0.3,0.3,0.4,0.5c0.1,0.2,0.1,0.4,0.2,0.6l-1.2,0.2c0-0.2-0.1-0.4-0.3-0.5
				c-0.2-0.1-0.5-0.2-0.7-0.2c-0.1,0-0.3,0-0.4,0c-0.1,0-0.2,0.1-0.3,0.1c-0.1,0-0.1,0.1-0.1,0.2c0,0.1,0,0.1,0,0.2
				c0,0.1,0,0.3,0.1,0.3c0.2,0.1,0.4,0.2,0.6,0.2l0.6,0.1c0.3,0,0.6,0.1,0.9,0.2c0.2,0.1,0.4,0.2,0.6,0.3c0.1,0.1,0.2,0.3,0.3,0.5
				c0.1,0.2,0.1,0.4,0.1,0.6c0,0.4-0.2,0.9-0.5,1.1c-0.5,0.3-1.1,0.5-1.7,0.4c-0.3,0-0.6,0-0.9-0.1c-0.3,0-0.5-0.1-0.7-0.3
				c-0.2-0.1-0.4-0.3-0.5-0.5c-0.1-0.3-0.2-0.5-0.2-0.8L110.1,18.1z"/>
			<path id="パス_29505" class="st0" d="M115.1,12.9h1.4v1.2h-1.4V12.9z M115.1,14.7h1.3v5h-1.3V14.7z"/>
			<path id="パス_29506" class="st0" d="M119.8,20c0,0.1,0.1,0.2,0.1,0.3c0,0.1,0.1,0.1,0.2,0.2c0.1,0,0.2,0.1,0.3,0.1
				c0.1,0,0.3,0,0.4,0c0.2,0,0.4,0,0.6-0.1c0.1-0.1,0.2-0.2,0.3-0.4c0.1-0.2,0.1-0.3,0.1-0.5c0-0.2,0-0.4,0-0.6v-0.2
				c-0.2,0.2-0.4,0.4-0.6,0.5c-0.3,0.1-0.6,0.2-0.9,0.2c-0.6,0-1.2-0.2-1.6-0.7c-0.4-0.5-0.6-1.2-0.5-1.8c0-0.3,0-0.7,0.1-1
				c0.1-0.3,0.2-0.6,0.4-0.8c0.2-0.2,0.4-0.4,0.7-0.5c0.3-0.1,0.6-0.2,0.9-0.2c0.3,0,0.5,0.1,0.8,0.2c0.3,0.1,0.5,0.3,0.7,0.6v-0.6
				h1.3V19c0,0.4,0,0.8-0.1,1.1c-0.1,0.3-0.2,0.6-0.4,0.8c-0.2,0.2-0.5,0.4-0.7,0.5c-0.4,0.1-0.7,0.2-1.1,0.2c-0.3,0-0.7,0-1-0.1
				c-0.3-0.1-0.5-0.2-0.7-0.3c-0.2-0.1-0.3-0.3-0.4-0.5c-0.1-0.2-0.2-0.5-0.2-0.7L119.8,20z M121.8,17c0-0.2,0-0.5-0.1-0.7
				c-0.1-0.2-0.1-0.3-0.3-0.4c-0.1-0.1-0.2-0.2-0.4-0.2c-0.1,0-0.3,0-0.4,0c-0.1,0-0.3,0-0.4,0.1c-0.1,0.1-0.3,0.1-0.3,0.2
				c-0.1,0.1-0.2,0.3-0.2,0.4c-0.1,0.2-0.1,0.4-0.1,0.6c0,0.4,0.1,0.8,0.3,1.1c0.2,0.2,0.5,0.3,0.8,0.3c0.2,0,0.3,0,0.5-0.1
				c0.1,0,0.3-0.1,0.4-0.2c0.1-0.1,0.2-0.3,0.2-0.4c0.1-0.2,0.1-0.4,0.1-0.6L121.8,17z"/>
			<path id="パス_29507" class="st0" d="M125.1,14.7h1.3v0.7c0.2-0.3,0.4-0.5,0.7-0.6c0.3-0.1,0.6-0.2,0.8-0.2
				c0.5,0,0.9,0.1,1.3,0.4c0.3,0.4,0.5,0.9,0.4,1.4v3.3h-1.3v-3.1c0-0.3,0-0.5-0.2-0.7c-0.1-0.1-0.3-0.2-0.5-0.2
				c-0.2,0-0.3,0-0.4,0.1c-0.1,0.1-0.2,0.1-0.3,0.2c-0.1,0.1-0.2,0.2-0.2,0.3c-0.1,0.1-0.1,0.3-0.1,0.4v3h-1.3L125.1,14.7z"/>
			<path id="パス_29508" class="st0" d="M97,25.2h1.4l2.6,6.8h-1.5l-0.5-1.6h-2.4L95.9,32h-1.5L97,25.2z M98.5,29.3l-0.8-2.5
				l-0.8,2.5H98.5z"/>
			<path id="パス_29509" class="st0" d="M102.5,25.2h2.4c0.4,0,0.9,0.1,1.3,0.2c0.3,0.1,0.6,0.3,0.8,0.5c0.2,0.2,0.3,0.4,0.4,0.7
				c0.1,0.2,0.1,0.5,0.1,0.7c0,0.4-0.1,0.8-0.2,1.1c-0.2,0.3-0.5,0.6-0.8,0.8l1.4,2.9h-1.5l-1.1-2.6h-1.3V32h-1.4V25.2z M105,28.3
				c0.2,0,0.4,0,0.6-0.1c0.1,0,0.3-0.1,0.3-0.2c0.1-0.1,0.1-0.2,0.2-0.3c0-0.1,0-0.3,0-0.4c0-0.1,0-0.2-0.1-0.3
				c0-0.1-0.1-0.2-0.2-0.3c-0.1-0.1-0.2-0.2-0.4-0.2c-0.2-0.1-0.4-0.1-0.6-0.1h-1v1.9L105,28.3z"/>
			<path id="パス_29510" class="st0" d="M111,26.4h-2.1v-1.2h5.6v1.2h-2.1V32H111L111,26.4z"/>
			<path id="パス_29511" class="st0" d="M117.2,29.8c0,0.4,0.1,0.7,0.4,0.9c0.3,0.2,0.7,0.3,1.1,0.3c0.2,0,0.4,0,0.6-0.1
				c0.1,0,0.3-0.1,0.4-0.2c0.1-0.1,0.2-0.2,0.2-0.3c0-0.1,0.1-0.2,0.1-0.4c0-0.2-0.1-0.4-0.2-0.5c-0.2-0.2-0.5-0.3-0.7-0.3l-0.9-0.2
				c-0.3-0.1-0.6-0.1-0.9-0.2c-0.2-0.1-0.5-0.2-0.7-0.4c-0.2-0.2-0.3-0.4-0.4-0.6c-0.1-0.3-0.1-0.6-0.1-0.8c0-0.3,0.1-0.6,0.2-0.9
				c0.1-0.2,0.3-0.5,0.5-0.6c0.3-0.2,0.5-0.3,0.8-0.4c0.4-0.1,0.7-0.1,1.1-0.1c0.4,0,0.8,0,1.2,0.2c0.3,0.1,0.6,0.3,0.8,0.5
				c0.2,0.2,0.4,0.4,0.5,0.7c0.1,0.2,0.2,0.5,0.2,0.8l-1.3,0.2c0-0.3-0.2-0.6-0.4-0.8c-0.3-0.2-0.6-0.3-0.9-0.2
				c-0.2,0-0.4,0-0.6,0.1c-0.1,0-0.3,0.1-0.4,0.2c-0.1,0.1-0.2,0.1-0.2,0.2c0,0.1-0.1,0.2-0.1,0.3c0,0.2,0.1,0.4,0.2,0.6
				c0.2,0.2,0.5,0.3,0.7,0.3l0.9,0.2c0.6,0.1,1.2,0.3,1.6,0.7c0.4,0.4,0.6,0.9,0.5,1.4c0,0.3-0.1,0.6-0.2,0.8
				c-0.1,0.3-0.3,0.5-0.5,0.7c-0.2,0.2-0.5,0.4-0.8,0.4c-0.4,0.1-0.8,0.2-1.2,0.2c-0.8,0-1.5-0.2-2.1-0.6c-0.5-0.5-0.8-1.1-0.8-1.8
				L117.2,29.8z"/>
			<path id="パス_29512" class="st0" d="M29.2,13.7L29.2,13.7c-1.5,0-2.6,1.2-2.6,2.6c0,1.5,1.2,2.6,2.6,2.6
				c1.5,0,2.6-1.2,2.6-2.6l0,0C31.9,14.9,30.7,13.7,29.2,13.7"/>
			<path id="パス_29513" class="st0" d="M29.2,20.4L29.2,20.4c-1.5,0-2.6,1.2-2.6,2.6c0,1.5,1.2,2.6,2.6,2.6
				c1.5,0,2.6-1.2,2.6-2.6C31.9,21.6,30.7,20.4,29.2,20.4"/>
			<path id="パス_29514" class="st0" d="M29.2,27.2L29.2,27.2c-1.5,0-2.6,1.2-2.6,2.6c0,1.5,1.2,2.6,2.6,2.6
				c1.5,0,2.6-1.2,2.6-2.6l0,0C31.9,28.4,30.7,27.2,29.2,27.2"/>
			<path id="パス_29515" class="st0" d="M36.4,13.6c-1.5,0-2.6,1.2-2.6,2.6c0,1.5,1.2,2.6,2.6,2.6s2.6-1.2,2.6-2.6
				S37.9,13.6,36.4,13.6"/>
			<path id="パス_29516" class="st0" d="M43.3,15.7L43.3,15.7c-1.5,0-2.6,1.2-2.6,2.6c0,1.5,1.2,2.6,2.6,2.6s2.6-1.2,2.6-2.6
				C45.9,16.8,44.7,15.7,43.3,15.7L43.3,15.7"/>
			<path id="パス_29517" class="st0" d="M48.6,25.7c1.5,0,2.6-1.2,2.6-2.6s-1.2-2.6-2.6-2.6c-1.5,0-2.6,1.2-2.6,2.6l0,0
				C46,24.5,47.2,25.7,48.6,25.7"/>
			<path id="パス_29518" class="st0" d="M29.2,40.7L29.2,40.7c-1.5,0-2.6,1.2-2.6,2.6s1.2,2.6,2.6,2.6c1.5,0,2.6-1.2,2.6-2.6l0,0
				C31.9,41.9,30.7,40.7,29.2,40.7"/>
			<path id="パス_29519" class="st0" d="M29.2,33.9L29.2,33.9c-1.5,0-2.6,1.2-2.6,2.6s1.2,2.6,2.6,2.6c1.5,0,2.6-1.2,2.6-2.6l0,0
				C31.9,35.1,30.7,33.9,29.2,33.9"/>
			<path id="パス_29520" class="st0" d="M36.4,40.6c-1.5,0-2.6,1.2-2.6,2.6s1.2,2.6,2.6,2.6s2.6-1.2,2.6-2.6l0,0
				C39.1,41.8,37.9,40.6,36.4,40.6"/>
			<path id="パス_29521" class="st0" d="M43,38.7c-1.5,0-2.6,1.2-2.6,2.6s1.2,2.6,2.6,2.6s2.6-1.2,2.6-2.6l0,0
				C45.6,39.8,44.5,38.7,43,38.7"/>
			<path id="パス_29522" class="st0" d="M48.6,33.8c-1.5,0-2.6,1.2-2.6,2.6c0,1.5,1.2,2.6,2.6,2.6s2.6-1.2,2.6-2.6
				S50.1,33.8,48.6,33.8"/>
			<path id="パス_29523" class="st0" d="M49.9,27.1c-1.5,0-2.6,1.2-2.6,2.6c0,1.5,1.2,2.6,2.6,2.6s2.6-1.2,2.6-2.6l0,0
				C52.5,28.3,51.3,27.1,49.9,27.1"/>
			<path id="パス_29524" class="st0" d="M57.3,32.5L69,0.1h4.2l11.7,32.5h-4.6L71.2,6.4l-0.3-1.3l-0.3,1.3l-5,14.3l-0.5,0.9
				l0.5-0.1h6c0.6,0,1.3,0.1,1.8,0.4c0.5,0.3,0.9,0.7,1.2,1.2c0.3,0.5,0.6,1,0.8,1.6H64.2l-2.7,7.8L57.3,32.5z"/>
			<path id="パス_29525" class="st0" d="M0.3,1.1v6c0,0.6,0.5,1,1,1h10.1c0.6,0,1,0.5,1,1c0,0,0,0,0,0v22.3c0,0.6,0.5,1,1,1h6
				c0.6,0,1-0.5,1-1c0,0,0,0,0,0V9.1c0-0.6,0.5-1,1-1c0,0,0,0,0,0h10.1c0.6,0,1-0.5,1-1c0,0,0,0,0,0v-6c0-0.6-0.5-1-1-1c0,0,0,0,0,0
				H1.4C0.8,0,0.3,0.5,0.3,1.1 M3.2,4.1L3.2,4.1c0-0.6,0.5-1,1-1c0,0,0,0,0,0h7.3c0.6,0,1,0.5,1,1c0,0.6-0.5,1-1,1H4.2
				C3.7,5.1,3.2,4.6,3.2,4.1C3.2,4.1,3.2,4.1,3.2,4.1 M16.6,29.6L16.6,29.6c-0.6,0-1-0.5-1-1c0,0,0,0,0,0V3.9c0-0.6,0.5-1,1-1
				c0.6,0,1,0.5,1,1v24.7C17.6,29.1,17.1,29.6,16.6,29.6C16.6,29.6,16.6,29.6,16.6,29.6 M28.9,5.1h-7.3c-0.6,0-1-0.5-1-1s0.5-1,1-1
				h7.3c0.6,0,1,0.5,1,1S29.5,5.1,28.9,5.1L28.9,5.1"/>
		</g>
	</g>
</g>
</svg>
