<?xml version="1.0" encoding="utf-8"?>
<!-- Generator: Adobe Illustrator 26.2.1, SVG Export Plug-In . SVG Version: 6.00 Build 0)  -->
<svg version="1.1" id="レイヤー_1" xmlns="http://www.w3.org/2000/svg" xmlns:xlink="http://www.w3.org/1999/xlink" x="0px"
	 y="0px" viewBox="0 0 520 300" style="enable-background:new 0 0 520 300;" xml:space="preserve">
<style type="text/css">
	.st0{fill:#FFFFFF;}
</style>
<g id="レイヤー_1_00000093152842509986838270000000050930861477061018_">
</g>
<g id="グループ_62">
	<g id="グループ_61">
		<g>
			<g id="グループ_60">
				<path id="パス_241" class="st0" d="M61.6,211.1l13.9-1.2C86,209,90,206.5,90,204.6V22.4H79.8c-30,2.2-50.4,30.9-60.3,50.7
					l-2.2,4h-2.2l9-57.5h173.6l5.9,57.2h-1.9l-1.9-4c-10.5-22.9-30.9-49.8-59.4-50.4h-10.5v183.2c0,2.2,1.9,3.1,17.6,4.6l10.5,0.9
					l0.9,1.9H60.7L61.6,211.1z"/>
				<path id="パス_242" class="st0" d="M421.8,32.6c2.9-13,9.4-21,21.7-21c11.7,0,18.8,8.2,21.6,21l39.8,180.3h-16.5l-13.1-58
					h-63.7l-13.1,58H382L421.8,32.6z M414.4,141.3h58L451.1,37.2c-1.4-6.5-3.4-11.4-7.7-11.4s-6.3,4.8-7.7,11.4L414.4,141.3z"/>
				<path id="パス_243" class="st0" d="M191.5,103.2h69c58.2,0,98.4,39.9,98.4,92.1v0.5c0,52.1-40.2,92.6-98.4,92.6h-69
					L191.5,103.2L191.5,103.2z M260.6,258.7c38.9,0,64.3-26.2,64.3-62.4v-0.5c0-36.2-25.4-63-64.3-63h-36.5v125.9H260.6z"/>
			</g>
		</g>
	</g>
</g>
</svg>
