<?xml version="1.0" encoding="utf-8"?>
<!-- Generator: Adobe Illustrator 26.2.1, SVG Export Plug-In . SVG Version: 6.00 Build 0)  -->
<svg version="1.1" xmlns="http://www.w3.org/2000/svg" xmlns:xlink="http://www.w3.org/1999/xlink" x="0px" y="0px"
	 viewBox="0 0 21.5 16.4" style="enable-background:new 0 0 21.5 16.4;" xml:space="preserve">
<style type="text/css">
	.st0{fill:none;stroke:#FFFFFF;stroke-linecap:round;stroke-miterlimit:10;}
</style>
<g id="レイヤー_1">
	<g id="レイヤー_1_00000173135092444417984380000001292149815846662294_">
	</g>
	<g id="グループ_41" transform="translate(0 0)">
		<g>
			<g id="グループ_32">
				<path id="長方形_14" class="st0" d="M5.7,0.5h13.9c0.8,0,1.4,0.6,1.4,1.4v8.8c0,0.8-0.6,1.4-1.4,1.4h0H5.7
					c-0.8,0-1.4-0.6-1.4-1.4c0,0,0,0,0,0V1.9C4.3,1.1,5,0.5,5.7,0.5C5.7,0.5,5.7,0.5,5.7,0.5z"/>
				<path id="パス_37" class="st0" d="M2,4H1.9C1.1,4,0.5,4.6,0.5,5.3c0,0,0,0,0,0V14c0,1.1,0.9,2,2,2h0h13.1
					c0.8,0,1.4-0.6,1.4-1.4"/>
			</g>
		</g>
	</g>
</g>
<g id="グループ_59">
</g>
<g id="グループ_65">
</g>
<g id="グループ_68">
</g>
<g id="グループ_70">
</g>
</svg>
