<?xml version="1.0" standalone="no"?>
<!DOCTYPE svg PUBLIC "-//W3C//DTD SVG 20010904//EN"
 "http://www.w3.org/TR/2001/REC-SVG-20010904/DTD/svg10.dtd">
<svg version="1.0" xmlns="http://www.w3.org/2000/svg"
 width="320.000000pt" height="320.000000pt" viewBox="0 0 320.000000 320.000000"
 preserveAspectRatio="xMidYMid meet">
<metadata>
Created by potrace 1.14, written by Peter Selinger 2001-2017
</metadata>
<g transform="translate(0.000000,320.000000) scale(0.100000,-0.100000)"
fill="#000000" stroke="none">
<path d="M377 3185 c-176 -48 -315 -189 -362 -366 -22 -80 -22 -2358 0 -2438
47 -179 187 -319 366 -366 80 -22 2358 -22 2438 0 179 47 319 187 366 366 22
80 22 2358 0 2438 -47 179 -187 319 -366 366 -77 21 -2368 20 -2442 0z m2267
-526 l26 -20 0 -227 c0 -125 -4 -232 -8 -238 -20 -31 -54 -34 -399 -34 -299 0
-352 -2 -371 -16 l-22 -15 0 -765 0 -765 -25 -24 -24 -25 -221 0 -221 0 -24
25 -25 24 0 758 c0 670 -2 761 -16 781 l-15 22 -355 0 c-352 0 -386 3 -406 34
-4 6 -8 113 -8 237 0 230 3 249 40 262 8 3 472 6 1031 6 1014 1 1016 1 1043
-20z"/>
<path d="M1556 2466 l-26 -25 0 -836 0 -836 25 -24 c29 -30 55 -32 86 -6 l24
19 0 846 c0 924 4 866 -57 881 -21 5 -33 1 -52 -19z"/>
<path d="M755 2468 c-45 -25 -48 -76 -8 -108 26 -20 35 -21 284 -18 236 3 259
5 278 22 30 27 27 70 -5 95 -25 20 -39 21 -278 21 -168 -1 -258 -4 -271 -12z"/>
<path d="M1920 2473 c-55 -21 -67 -78 -24 -112 25 -20 39 -21 276 -21 245 0
280 4 300 34 15 21 8 63 -13 82 -19 18 -41 19 -273 21 -138 1 -258 -1 -266 -4z"/>
</g>
</svg>
